<?xml version="1.0" standalone="no"?>
<!DOCTYPE svg PUBLIC "-//W3C//DTD SVG 1.1//EN" "http://www.w3.org/Graphics/SVG/1.1/DTD/svg11.dtd" >
<svg xmlns="http://www.w3.org/2000/svg" xmlns:xlink="http://www.w3.org/1999/xlink" version="1.1">
<metadata>
Created by FontForge 20170731 at Mon Jun 12 18:19:57 2017
 By Aleksey,,,
Copyright 2017 Fontstore Pte Ltd. All rights reserved.
</metadata>
<defs>
<font id="NeurialGrotesk-RegularItalic" horiz-adv-x="570" >
  <font-face 
    font-family="Neurial Grotesk Italic"
    font-weight="400"
    font-style="italic"
    font-stretch="normal"
    units-per-em="1000"
    panose-1="0 0 5 0 0 0 0 0 0 0"
    ascent="800"
    descent="-200"
    x-height="506"
    cap-height="706"
    bbox="-591 -232 1682 1050"
    underline-thickness="80"
    underline-position="-275"
    slope="-8"
    unicode-range="U+0020-FB03"
  />
<missing-glyph horiz-adv-x="589" 
d="M104 707h507l-100 -707h-507z" />
    <glyph glyph-name="f_f" unicode="ff" horiz-adv-x="660" 
d="M633 665q-36 0 -53 -15t-22 -47l-13 -97h124l-9 -73h-125l-59 -433h-83l58 433h-237l-60 -433h-83l59 433h-87l10 73h87l14 101q9 67 44 98t101 31h80l-11 -71h-57q-36 0 -52.5 -15t-21.5 -47l-13 -97h237l14 101q10 68 44.5 98.5t101.5 30.5h81l-10 -71h-59z" />
    <glyph glyph-name="fi" unicode="fi" horiz-adv-x="582" 
d="M544 506l-68 -506h-82l58 433h-238l-60 -433h-83l59 433h-87l10 73h87l14 101q9 67 44 98t101 31h80l-11 -71h-57q-36 0 -52.5 -15t-21.5 -47l-13 -97h320zM480 711h103l-14 -96h-102z" />
    <glyph glyph-name="fl" unicode="fl" horiz-adv-x="558" 
d="M311 665q-36 0 -52.5 -15t-21.5 -47l-13 -97h124l-10 -73h-124l-60 -433h-83l59 433h-87l10 73h87l14 101q9 67 44 98t101 31h82l-11 -71h-59zM471 736h82l-100 -736h-82z" />
    <glyph glyph-name="f_f_i" unicode="ffi" horiz-adv-x="904" 
d="M867 506l-69 -506h-82l59 433h-239l-59 -433h-83l58 433h-238l-60 -433h-83l59 433h-87l10 73h87l14 101q9 67 44 98t101 31h80l-11 -71h-57q-36 0 -52.5 -15t-21.5 -47l-13 -97h238l14 101q9 67 44 98t102 31h80l-11 -71h-58q-36 0 -52.5 -15t-21.5 -47l-13 -97h321z
M803 713h102l-13 -95h-102z" />
    <glyph glyph-name=".notdef" horiz-adv-x="589" 
d="M104 707h507l-100 -707h-507z" />
    <glyph glyph-name=".null" horiz-adv-x="0" 
 />
    <glyph glyph-name="nonmarkingreturn" horiz-adv-x="333" 
 />
    <glyph glyph-name="space" unicode=" " horiz-adv-x="194" 
 />
    <glyph glyph-name="exclam" unicode="!" horiz-adv-x="256" 
d="M120 507l27 199h85l-28 -199q-19 -143 -53 -297h-61q5 119 30 297zM34 0l16 115h116l-17 -115h-115z" />
    <glyph glyph-name="quotedbl" unicode="&#x22;" horiz-adv-x="400" 
d="M128 653l7 53h83l-8 -53q-23 -148 -41 -201h-53q-6 52 12 201zM295 653l6 53h84l-8 -53q-24 -155 -42 -201h-52q-6 52 12 201z" />
    <glyph glyph-name="numbersign" unicode="#" horiz-adv-x="610" 
d="M588 438h-97l-64 -174h104l-25 -73h-105l-70 -191h-78l69 191h-125l-70 -191h-78l70 191h-93l25 73h95l64 174h-103l24 72h105l72 196h77l-71 -196h125l72 196h78l-72 -196h94zM224 264h126l63 174h-125z" />
    <glyph glyph-name="dollar" unicode="$" horiz-adv-x="623" 
d="M599 512h-85q5 60 -35 94.5t-121 34.5q-75 0 -120.5 -35.5t-45.5 -92.5q0 -84 114 -109l91 -21q167 -37 167 -180q0 -96 -73.5 -152t-183.5 -61l-12 -88h-74l13 92q-94 13 -146 66t-45 134h85q-4 -58 37.5 -93.5t128.5 -35.5q77 0 129 34.5t52 92.5q0 45 -26 72t-84 40
l-95 21q-168 37 -168 179q0 90 65 147t168 64l12 87h74l-12 -89q94 -11 145.5 -64.5t44.5 -136.5z" />
    <glyph glyph-name="percent" unicode="%" horiz-adv-x="912" 
d="M218 342q-63 0 -104 44.5t-41 121.5q0 87 47 147t123 60q66 0 106.5 -44t40.5 -124q0 -87 -47 -146t-125 -59zM156 0l538 706h86l-538 -706h-86zM221 409q49 0 71.5 42t22.5 96q0 101 -74 101q-47 0 -70 -40.5t-23 -97.5q0 -101 73 -101zM693 -10q-63 0 -104 44.5
t-41 121.5q0 87 47 147t123 60q66 0 106.5 -44t40.5 -123q0 -87 -47 -146.5t-125 -59.5zM696 57q49 0 72 42t23 96q0 48 -19 74.5t-55 26.5q-47 0 -70.5 -41t-23.5 -97q0 -101 73 -101z" />
    <glyph glyph-name="ampersand" unicode="&#x26;" horiz-adv-x="745" 
d="M647 77h47l-10 -77h-56q-48 0 -76 13t-54 46l-6 9q-93 -78 -211 -78q-93 0 -156 45t-63 132q0 121 170 209l22 11l-5 7q-62 84 -62 150q0 75 51 123.5t135 48.5q77 0 124.5 -42t47.5 -109q0 -50 -29 -89t-90 -74l-55 -32l139 -183q51 72 70 177h74q-16 -138 -100 -235
l11 -15q15 -21 32.5 -29t49.5 -8zM372 647q-46 0 -74.5 -27.5t-28.5 -68.5q0 -43 48 -109l15 -20l49 27q84 48 84 110q0 39 -25.5 63.5t-67.5 24.5zM285 61q94 0 166 61l-159 214l-24 -14q-67 -38 -93 -73t-26 -76q0 -56 38.5 -84t97.5 -28z" />
    <glyph glyph-name="quotesingle" unicode="'" horiz-adv-x="234" 
d="M128 648l8 58h84l-9 -58q-20 -139 -42 -196h-53q-8 67 12 196z" />
    <glyph glyph-name="parenleft" unicode="(" horiz-adv-x="278" 
d="M130 -58q-68 146 -68 322q0 139 54 276.5t136 223.5h75q-78 -91 -129.5 -227.5t-51.5 -268.5q2 -174 54 -326h-70z" />
    <glyph glyph-name="parenright" unicode=")" horiz-adv-x="277" 
d="M158 440q0 96 -17.5 184t-48.5 140h76q38 -62 57 -159t15 -195q-4 -132 -55.5 -258t-132.5 -210h-74q77 89 128.5 225.5t51.5 272.5z" />
    <glyph glyph-name="asterisk" unicode="*" horiz-adv-x="347" 
d="M78 594l17 48l56 -19q33 -10 50 -24q-9 18 -9 54v60h52v-60q0 -38 -7 -54q17 16 48 25l56 18l19 -49l-57 -19q-38 -13 -57 -10q21 -13 42 -40l36 -49l-42 -30l-35 47q-21 27 -29 54q-5 -25 -27 -54l-35 -47l-44 30l37 49q22 28 42 40q-22 -3 -58 10z" />
    <glyph glyph-name="plus" unicode="+" horiz-adv-x="598" 
d="M546 369l-11 -80h-192l-27 -192h-79l27 192h-192l11 80h192l27 192h79l-27 -192h192z" />
    <glyph glyph-name="comma" unicode="," horiz-adv-x="230" 
d="M24 0l16 115h116l-16 -115l-75 -114h-53l73 114h-61z" />
    <glyph glyph-name="hyphen" unicode="-" horiz-adv-x="417" 
d="M65 326h307l-11 -79h-307z" />
    <glyph glyph-name="period" unicode="." horiz-adv-x="227" 
d="M21 0l17 115h116l-17 -115h-116z" />
    <glyph glyph-name="slash" unicode="/" horiz-adv-x="346" 
d="M-28 0l351 706h78l-351 -706h-78z" />
    <glyph glyph-name="zero" unicode="0" horiz-adv-x="660" 
d="M314 -10q-121 0 -190.5 81.5t-69.5 231.5q0 175 88 294t234 119q118 0 187 -83t69 -233q0 -174 -89 -292t-229 -118zM311 65q107 0 171 97.5t64 240.5q0 112 -43 175t-129 63q-109 0 -171.5 -98t-62.5 -240q0 -112 43 -175t128 -63z" />
    <glyph glyph-name="one" unicode="1" horiz-adv-x="355" 
d="M228 0h-84l83 618l-174 -84l12 86l174 86h84z" />
    <glyph glyph-name="two" unicode="2" horiz-adv-x="540" 
d="M368 281l-238 -200h338l-11 -81h-459l11 77l303 252q73 61 103.5 103t30.5 89q0 55 -37 87t-99 32q-63 0 -106.5 -38t-55.5 -98h-84q17 101 87 156.5t168 55.5q94 0 153.5 -52t59.5 -137q0 -66 -39 -120.5t-125 -125.5z" />
    <glyph glyph-name="three" unicode="3" 
d="M408 362q50 -17 78.5 -58t28.5 -94q0 -101 -72.5 -160.5t-187.5 -59.5q-110 0 -174 59t-54 155h84q-3 -67 33.5 -103.5t114.5 -36.5q75 0 121.5 39t46.5 106q0 53 -37.5 85t-104.5 32h-55l11 74h55q77 0 118.5 36.5t41.5 98.5q0 50 -37 79t-101 29q-72 0 -115 -38
t-51 -103h-85q13 99 81 156.5t180 57.5q92 0 153.5 -47.5t61.5 -131.5q0 -63 -34.5 -109.5t-100.5 -65.5z" />
    <glyph glyph-name="four" unicode="4" horiz-adv-x="576" 
d="M333 0l20 146h-344l11 75l398 485h94l-63 -483h104l-11 -77h-104l-20 -146h-85zM114 223h250l48 362z" />
    <glyph glyph-name="five" unicode="5" horiz-adv-x="557" 
d="M544 629h-311l-66 -202q58 49 142 49q95 0 153 -59t58 -161q0 -118 -75.5 -192t-189.5 -74q-95 0 -161.5 54t-69.5 145h86q0 -57 42.5 -91t101.5 -34q76 0 127 54t51 137q0 69 -37 109t-101 40q-95 0 -153 -81h-85l121 383h377z" />
    <glyph glyph-name="six" unicode="6" horiz-adv-x="590" 
d="M338 487q93 0 156.5 -62.5t62.5 -166.5q-1 -114 -77 -191t-192 -77q-48 0 -89 15.5t-74.5 48.5t-52.5 91t-19 136q0 64 12.5 126t39 118t64 98.5t91.5 67.5t118 25q85 0 145 -45.5t69 -126.5h-84q-27 99 -132 99q-89 0 -146.5 -64.5t-79.5 -182.5q28 42 79.5 66.5
t108.5 24.5zM289 64q81 0 132 58.5t52 138.5q0 69 -39 111.5t-108 42.5q-79 0 -133 -54.5t-55 -139.5q0 -76 43.5 -116.5t107.5 -40.5z" />
    <glyph glyph-name="seven" unicode="7" horiz-adv-x="499" 
d="M432 628h-376l11 78h477l-9 -73q-129 -137 -228 -306.5t-145 -326.5h-86q48 161 144.5 327.5t211.5 300.5z" />
    <glyph glyph-name="eight" unicode="8" horiz-adv-x="608" 
d="M474 376q46 -19 75 -62.5t29 -100.5q0 -100 -76.5 -160.5t-196.5 -60.5q-112 0 -182 52.5t-70 142.5q0 69 42 123t113 75q-36 19 -57 56t-21 83q0 88 71.5 140.5t175.5 52.5q97 0 158 -49t61 -129q0 -58 -33.5 -101t-88.5 -62zM373 649q-70 0 -115.5 -35.5t-45.5 -92.5
q0 -50 37 -80t102 -30q71 0 116.5 35.5t45.5 91.5q0 52 -39.5 81.5t-100.5 29.5zM306 66q82 0 134 39.5t52 104.5q0 58 -43 95.5t-119 37.5q-83 0 -136.5 -42.5t-53.5 -108.5q0 -59 45.5 -92.5t120.5 -33.5z" />
    <glyph glyph-name="nine" unicode="9" horiz-adv-x="599" 
d="M331 716q110 0 175.5 -79t65.5 -229q0 -63 -12 -122.5t-37 -113.5t-61.5 -94t-89.5 -64t-116 -24q-95 0 -153 47t-66 125h84q10 -49 46.5 -74t90.5 -25q88 0 148 69.5t71 177.5q-26 -40 -75.5 -65.5t-109.5 -25.5q-87 0 -154 55.5t-67 169.5q0 118 72.5 195t187.5 77z
M306 291q74 0 126 50t52 131q0 72 -41.5 122t-112.5 50q-72 0 -123.5 -53t-51.5 -141q0 -80 44.5 -119.5t106.5 -39.5z" />
    <glyph glyph-name="colon" unicode=":" horiz-adv-x="230" 
d="M76 391l16 115h116l-16 -115h-116zM21 0l16 115h116l-16 -115h-116z" />
    <glyph glyph-name="semicolon" unicode=";" horiz-adv-x="228" 
d="M74 391l17 115h116l-17 -115h-116zM24 0l16 115h116l-16 -115l-75 -114h-53l73 114h-61z" />
    <glyph glyph-name="less" unicode="&#x3c;" horiz-adv-x="600" 
d="M548 578l-12 -94l-352 -161l309 -158l-12 -88l-379 201l14 98z" />
    <glyph glyph-name="equal" unicode="=" horiz-adv-x="601" 
d="M135 476h393l-11 -76h-393zM104 262h393l-10 -76h-393z" />
    <glyph glyph-name="greater" unicode="&#x3e;" horiz-adv-x="600" 
d="M72 77l12 93l353 162l-310 159l12 86l380 -200l-14 -99z" />
    <glyph glyph-name="question" unicode="?" horiz-adv-x="502" 
d="M68 518q10 88 73 143t157 55q89 0 143 -48.5t54 -126.5q0 -49 -23 -87.5t-56.5 -64t-67.5 -48.5t-60 -53.5t-30 -66.5h-78q5 47 30.5 84t57.5 61.5t63 47.5t52.5 54t21.5 69q0 50 -30.5 76.5t-80.5 26.5q-60 0 -97 -34.5t-42 -87.5h-87zM130 0l16 115h116l-16 -115h-116z
" />
    <glyph glyph-name="at" unicode="@" horiz-adv-x="853" 
d="M468 715q157 0 262.5 -92.5t105.5 -240.5q0 -119 -55.5 -191.5t-138.5 -72.5q-53 0 -85 24t-35 67q-17 -29 -51 -50.5t-78 -21.5q-63 0 -104 44t-41 123q0 89 52.5 155t134.5 66q46 0 78.5 -21t42.5 -58l17 54h51l-48 -226q-10 -52 9.5 -78.5t61.5 -26.5q54 0 89 59.5
t35 153.5q0 124 -83 202.5t-218 78.5q-161 0 -263 -109t-102 -267q0 -133 77 -218t219 -85q97 0 184 41l21 -47q-92 -47 -203 -47q-168 0 -266 99.5t-98 257.5q0 181 122.5 304t306.5 123zM400 190q46 -1 77.5 33t44.5 96q14 69 -7.5 112t-73.5 43q-59 0 -91 -53t-32 -118
q0 -52 20.5 -82t61.5 -31z" />
    <glyph glyph-name="A" unicode="A" horiz-adv-x="657" 
d="M523 0l-41 175h-321l-91 -175h-93l371 706h91l173 -706h-89zM199 248h265l-83 351z" />
    <glyph glyph-name="B" unicode="B" horiz-adv-x="662" 
d="M513 365q47 -16 73 -55t26 -92q0 -98 -69.5 -158t-182.5 -60h-317l94 706h290q96 0 150.5 -47t54.5 -121q0 -56 -29.5 -103.5t-89.5 -69.5zM542 528q0 48 -32 74.5t-96 26.5h-202l-31 -232h213q68 0 108 35t40 96zM354 77q81 0 124 37.5t43 102.5q0 50 -32 78.5t-92 28.5
h-225l-33 -247h215z" />
    <glyph glyph-name="C" unicode="C" horiz-adv-x="735" 
d="M363 70q165 0 238 150h95q-43 -111 -128.5 -170.5t-205.5 -59.5q-140 0 -224 86.5t-84 232.5q0 172 109 289t274 117q117 0 194.5 -62.5t94.5 -167.5h-92q-40 150 -199 150q-127 0 -209 -91t-82 -234q0 -110 59 -175t160 -65z" />
    <glyph glyph-name="D" unicode="D" horiz-adv-x="711" 
d="M43 0h234q186 0 296 109t110 278q0 146 -84.5 232.5t-229.5 86.5h-231zM139 79l73 548h153q108 0 167.5 -64t59.5 -176q0 -142 -86 -225t-237 -83h-130z" />
    <glyph glyph-name="E" unicode="E" horiz-adv-x="592" 
d="M585 627h-371l-32 -233h290l-11 -77h-290l-33 -238h395l-11 -79h-479l95 706h457z" />
    <glyph glyph-name="F" unicode="F" horiz-adv-x="559" 
d="M580 627h-367l-32 -243h315l-11 -77h-316l-41 -307h-85l95 706h453z" />
    <glyph glyph-name="G" unicode="G" horiz-adv-x="764" 
d="M354 -9q-132 0 -216 86t-84 231q0 169 109.5 288.5t274.5 119.5q121 0 200.5 -62t93.5 -165h-90q-18 72 -73 109.5t-135 37.5q-125 0 -207.5 -92.5t-82.5 -230.5q0 -112 61 -177.5t163 -65.5q90 0 163.5 48t86.5 142q0 7 1 15.5t2.5 18.5t2.5 16h-230l12 76h314l-54 -387
h-68l4 99q-85 -107 -248 -107z" />
    <glyph glyph-name="H" unicode="H" horiz-adv-x="709" 
d="M556 318h-386l-42 -318h-85l95 706h86l-42 -308h385l40 308h86l-94 -706h-86z" />
    <glyph glyph-name="I" unicode="I" horiz-adv-x="240" 
d="M224 706l-96 -706h-85l95 706h86z" />
    <glyph glyph-name="J" unicode="J" horiz-adv-x="538" 
d="M105 203q-7 -62 23.5 -97.5t96.5 -35.5q129 0 147 131l67 505h85l-68 -515q-13 -95 -76.5 -148t-156.5 -53q-100 0 -157.5 58t-44.5 155h84z" />
    <glyph glyph-name="K" unicode="K" horiz-adv-x="644" 
d="M43 0l95 706h85l-53 -396l404 396h110l-313 -310l228 -396h-100l-194 335l-152 -148l-25 -187h-85z" />
    <glyph glyph-name="L" unicode="L" horiz-adv-x="550" 
d="M140 81h360l-11 -81h-446l95 706h85z" />
    <glyph glyph-name="M" unicode="M" horiz-adv-x="852" 
d="M402 97l336 609h97l-94 -706h-84l50 377q13 104 33 178l-310 -555h-83l-152 561q-2 -69 -17 -184l-50 -377h-85l95 706h96z" />
    <glyph glyph-name="N" unicode="N" horiz-adv-x="709" 
d="M43 0l95 706h91l301 -577l78 577h85l-96 -706h-91l-301 573l-77 -573h-85z" />
    <glyph glyph-name="O" unicode="O" horiz-adv-x="765" 
d="M54 316q0 166 112 283t265 117q138 0 222 -88t84 -236q0 -166 -112 -283t-265 -117q-137 0 -221.5 88.5t-84.5 235.5zM646 393q0 111 -60 176.5t-160 65.5q-114 0 -197.5 -93t-83.5 -226q0 -112 59 -177.5t160 -65.5q114 0 198 93.5t84 226.5z" />
    <glyph glyph-name="P" unicode="P" horiz-adv-x="640" 
d="M43 0l95 706h276q104 0 162.5 -57t58.5 -147q0 -105 -77 -175.5t-202 -70.5h-192l-35 -256h-86zM174 333h177q87 0 139.5 46.5t52.5 119.5q0 59 -35.5 94t-101.5 35h-192z" />
    <glyph glyph-name="Q" unicode="Q" horiz-adv-x="785" 
d="M639 100q13 -16 23 -20.5t39 -4.5h36l-11 -75h-56q-40 0 -60.5 11.5t-48.5 43.5q-93 -63 -201 -63q-137 0 -221.5 88.5t-84.5 235.5q0 166 112 283t265 117q138 0 222 -88t84 -236q0 -163 -109 -280zM145 316q0 -112 59 -177.5t160 -65.5q77 0 145 46l-30 37
q-15 19 -25.5 24t-34.5 5h-53l11 73h69q34 0 54 -9t42 -36l30 -35q74 92 74 215q0 111 -60 176.5t-160 65.5q-114 0 -197.5 -93t-83.5 -226z" />
    <glyph glyph-name="R" unicode="R" horiz-adv-x="653" 
d="M43 0l95 706h274q113 0 171.5 -56t58.5 -150q0 -89 -53 -150t-146 -82l109 -268h-95l-103 257h-191l-35 -257h-85zM173 334h181q94 0 145.5 43t51.5 123q0 63 -35.5 95.5t-103.5 32.5h-200z" />
    <glyph glyph-name="S" unicode="S" horiz-adv-x="606" 
d="M276 -10q-118 0 -188.5 55.5t-62.5 148.5h87q-4 -58 38.5 -93.5t128.5 -35.5q80 0 132 35.5t52 94.5q0 87 -110 110l-98 22q-172 36 -172 179q0 96 73 153t188 57q113 0 182 -53t63 -151h-87q5 60 -36 95t-123 35q-74 0 -121.5 -35t-47.5 -93q0 -86 112 -109l99 -21
q169 -36 169 -182q0 -100 -81 -156t-197 -56z" />
    <glyph glyph-name="T" unicode="T" horiz-adv-x="620" 
d="M401 627l-88 -627h-85l89 627h-245l11 79h574l-10 -79h-246z" />
    <glyph glyph-name="U" unicode="U" horiz-adv-x="694" 
d="M216 706l-57 -424q-13 -98 33 -156t137 -58q183 0 211 202l57 436h86l-60 -446q-17 -129 -93 -199.5t-203 -70.5q-128 0 -200 79.5t-53 218.5l56 418h86z" />
    <glyph glyph-name="V" unicode="V" horiz-adv-x="685" 
d="M316 100l323 606h97l-382 -706h-100l-184 706h91z" />
    <glyph glyph-name="W" unicode="W" horiz-adv-x="978" 
d="M166 0l-90 706h90l69 -590l266 590h99l68 -590l262 590h92l-318 -706h-100l-73 585l-265 -585h-100z" />
    <glyph glyph-name="X" unicode="X" horiz-adv-x="641" 
d="M682 706l-290 -354l196 -352h-100l-162 291l-238 -291h-104l291 358l-192 348h100l157 -289l237 289h105z" />
    <glyph glyph-name="Y" unicode="Y" horiz-adv-x="630" 
d="M267 241l-196 465h94l154 -373l258 373h102l-327 -465l-34 -241h-84z" />
    <glyph glyph-name="Z" unicode="Z" horiz-adv-x="589" 
d="M119 79h408l-11 -79h-515l11 72l475 555h-390l12 79h495l-10 -72z" />
    <glyph glyph-name="bracketleft" unicode="[" horiz-adv-x="300" 
d="M147 775h197l-9 -64h-121l-100 -716h120l-9 -64h-196z" />
    <glyph glyph-name="backslash" unicode="\" horiz-adv-x="461" 
d="M422 0h-82l-273 713h82z" />
    <glyph glyph-name="bracketright" unicode="]" horiz-adv-x="300" 
d="M111 -5l100 716h-120l9 64h196l-118 -844h-196l9 64h120z" />
    <glyph glyph-name="asciicircum" unicode="^" horiz-adv-x="600" 
d="M151 460l171 246h80l101 -246h-82l-67 170l-118 -170h-85z" />
    <glyph glyph-name="underscore" unicode="_" horiz-adv-x="474" 
d="M-34 -2h474l-11 -79h-474z" />
    <glyph glyph-name="grave" unicode="`" horiz-adv-x="220" 
d="M258 600h-74l-115 131h91z" />
    <glyph glyph-name="a" unicode="a" horiz-adv-x="562" 
d="M483 64h26l-9 -64h-56q-33 0 -49 16.5t-15 56.5q-28 -38 -76 -60.5t-105 -22.5q-79 0 -125.5 37.5t-46.5 105.5q0 66 49 112t150 46h176l4 28q18 129 -111 129q-57 0 -94 -26t-46 -71h-77q15 77 74 121t148 44q96 0 148.5 -53t39.5 -151l-29 -209q-4 -23 2 -31t22 -8z
M390 198l4 32h-164q-63 0 -90 -25.5t-27 -65.5q0 -81 109 -81q61 0 110 35.5t58 104.5z" />
    <glyph glyph-name="b" unicode="b" horiz-adv-x="631" 
d="M366 516q90 0 153.5 -62.5t63.5 -176.5q0 -131 -80 -209t-187 -78q-64 0 -113 26.5t-72 71.5l-22 -88h-72l98 736h85l-41 -304q27 36 76.5 60t110.5 24zM308 62q76 0 133 58.5t57 154.5q0 77 -41.5 123t-104.5 46q-85 0 -141.5 -61.5t-56.5 -156.5q0 -77 43 -120.5
t111 -43.5z" />
    <glyph glyph-name="c" unicode="c" 
d="M455 336q-9 51 -46 80t-89 29q-76 0 -132 -61.5t-56 -157.5q0 -82 42.5 -123t106.5 -41q53 0 96 29.5t63 84.5h88q-26 -87 -93 -136.5t-157 -49.5q-101 0 -166 62.5t-65 171.5q0 125 79 208.5t198 83.5q89 0 148.5 -48t69.5 -132h-87z" />
    <glyph glyph-name="d" unicode="d" horiz-adv-x="624" 
d="M538 736h80l-98 -736h-73l2 72q-30 -40 -80.5 -61t-106.5 -21q-35 0 -69.5 11t-68.5 36t-55.5 74t-21.5 115q0 131 79 210.5t191 79.5q59 0 106 -26.5t72 -69.5zM284 62q81 0 137 61.5t56 155.5q0 78 -43.5 121t-110.5 43q-76 0 -133 -58.5t-57 -154.5q0 -83 45 -125.5
t106 -42.5z" />
    <glyph glyph-name="e" unicode="e" horiz-adv-x="596" 
d="M545 230h-413v-9q0 -79 40.5 -120t108.5 -41q121 0 166 99h83q-22 -76 -92 -122t-156 -46q-102 0 -166 63t-64 172q-1 128 78 209t198 81q105 0 163 -63t59 -165q0 -26 -5 -58zM318 449q-62 0 -112 -41t-67 -117h329q-3 158 -150 158z" />
    <glyph glyph-name="f" unicode="f" horiz-adv-x="339" 
d="M311 665q-36 0 -52.5 -15t-21.5 -47l-13 -97h124l-10 -73h-124l-60 -433h-83l59 433h-87l10 73h87l14 101q9 67 44 98t101 31h82l-11 -71h-59z" />
    <glyph glyph-name="g" unicode="g" horiz-adv-x="603" 
d="M494 506h72l-66 -485q-16 -118 -84 -174.5t-169 -56.5q-98 0 -158.5 46.5t-67.5 123.5h83q6 -47 45 -74t98 -27q72 0 115.5 39t53.5 110l12 83q-27 -37 -74 -58.5t-97 -21.5q-53 0 -98.5 21t-78 74t-32.5 130q0 120 71 200t181 80q60 0 106 -26t67 -69zM271 82
q76 0 128 58t52 146q0 74 -39.5 116t-104.5 42q-79 0 -126.5 -62.5t-47.5 -147.5q0 -80 41 -116t97 -36z" />
    <glyph glyph-name="h" unicode="h" horiz-adv-x="582" 
d="M354 516q90 0 136 -58.5t33 -155.5l-41 -302h-82l37 286q11 80 -18 118t-87 38q-71 0 -118 -47t-58 -126l-37 -269h-82l100 736h83l-42 -302q27 37 74 59.5t102 22.5z" />
    <glyph glyph-name="i" unicode="i" horiz-adv-x="225" 
d="M110 615l13 96h103l-14 -96h-102zM37 0l68 506h82l-68 -506h-82z" />
    <glyph glyph-name="j" unicode="j" horiz-adv-x="236" 
d="M121 615l13 96h103l-14 -96h-102zM118 -86q-8 -61 -41.5 -87.5t-99.5 -26.5h-68l10 74h56q32 0 45 11t17 40l79 581h82z" />
    <glyph glyph-name="k" unicode="k" horiz-adv-x="514" 
d="M37 0l100 736h82l-65 -480l277 250h101l-246 -226l179 -280h-94l-145 229l-86 -78l-21 -151h-82z" />
    <glyph glyph-name="l" unicode="l" horiz-adv-x="225" 
d="M37 0l100 736h82l-100 -736h-82z" />
    <glyph glyph-name="m" unicode="m" horiz-adv-x="869" 
d="M652 516q88 0 130.5 -55.5t30.5 -147.5l-42 -313h-84l42 305q18 137 -99 137q-52 0 -91 -33.5t-53 -98.5l-43 -310h-80l40 298q10 70 -15.5 107t-80.5 37q-61 0 -100 -37t-48 -103l-40 -302h-82l69 506h72l3 -60q51 70 149 70q55 0 95.5 -25.5t55.5 -73.5q28 49 75.5 74
t95.5 25z" />
    <glyph glyph-name="n" unicode="n" horiz-adv-x="580" 
d="M355 516q82 0 131.5 -53.5t34.5 -162.5l-40 -300h-83l40 293q11 85 -22.5 118t-85.5 33q-69 0 -116.5 -47.5t-58.5 -127.5l-36 -269h-82l68 506h72l-3 -78q28 41 76.5 64.5t104.5 23.5z" />
    <glyph glyph-name="o" unicode="o" horiz-adv-x="602" 
d="M47 226q0 122 78.5 206t196.5 84q98 0 165 -63t67 -176q0 -121 -77.5 -204t-194.5 -83q-100 0 -167.5 62.5t-67.5 173.5zM280 61q81 0 136 62t55 154q0 80 -42 124.5t-108 44.5q-81 0 -135.5 -62.5t-54.5 -155.5q0 -80 41.5 -123.5t107.5 -43.5z" />
    <glyph glyph-name="p" unicode="p" horiz-adv-x="630" 
d="M361 516q93 0 157.5 -60.5t64.5 -178.5q0 -127 -76 -207t-186 -80q-65 0 -116.5 28.5t-72.5 73.5l-40 -292h-82l97 706h73l-3 -73q32 39 80.5 61t103.5 22zM307 62q81 0 135.5 60.5t54.5 152.5q0 84 -45.5 126t-106.5 42q-76 0 -134 -59t-58 -154q0 -81 44 -124.5
t110 -43.5z" />
    <glyph glyph-name="q" unicode="q" horiz-adv-x="633" 
d="M522 506h73l-96 -706h-83l37 274q-30 -39 -79.5 -61.5t-103.5 -22.5q-100 0 -161 63t-61 173q0 130 77.5 210t191.5 80q63 0 110.5 -26.5t72.5 -72.5zM286 62q75 0 133.5 59.5t58.5 154.5q0 80 -45.5 124t-108.5 44q-82 0 -136.5 -63t-54.5 -153q0 -82 46 -124t107 -42z
" />
    <glyph glyph-name="r" unicode="r" horiz-adv-x="372" 
d="M309 506h72l-10 -76h-72q-120 0 -140 -139l-40 -291h-82l69 506h72l2 -62q36 62 129 62z" />
    <glyph glyph-name="s" unicode="s" horiz-adv-x="502" 
d="M24 149h81q5 -95 122 -95q58 0 92.5 23t34.5 63q0 32 -20.5 48.5t-64.5 27.5l-73 18q-133 31 -133 128q0 70 57.5 112t149.5 42q90 0 141.5 -43t49.5 -115h-79q1 45 -30 69.5t-86 24.5t-87 -22.5t-32 -58.5q0 -32 19.5 -45.5t64.5 -24.5l73 -18q73 -18 104 -50.5
t31 -84.5q0 -74 -61 -116t-156 -42q-90 0 -144 42t-54 117z" />
    <glyph glyph-name="t" unicode="t" horiz-adv-x="339" 
d="M33 433l10 73h46q25 0 36.5 8t14.5 30l12 94h82l-17 -132h118l-10 -73h-118l-41 -301q-4 -32 6 -45t43 -13h61l-10 -74h-79q-121 0 -104 130l42 303h-92z" />
    <glyph glyph-name="u" unicode="u" 
d="M453 506h79l-69 -506h-71l2 77q-27 -42 -72 -64.5t-98 -22.5q-84 0 -132.5 58t-34.5 160l41 298h81l-40 -297q-10 -71 20 -109t90 -38q68 0 112.5 46t54.5 121z" />
    <glyph glyph-name="v" unicode="v" horiz-adv-x="529" 
d="M131 506l105 -414l226 414h91l-282 -506h-88l-139 506h87z" />
    <glyph glyph-name="w" unicode="w" horiz-adv-x="775" 
d="M138 506l53 -411l186 411h87l75 -411l164 411h86l-213 -506h-94l-72 412l-188 -412h-94l-75 506h85z" />
    <glyph glyph-name="x" unicode="x" horiz-adv-x="509" 
d="M-16 0l215 259l-146 247h95l114 -200l167 200h97l-218 -255l147 -251h-94l-115 202l-165 -202h-97z" />
    <glyph glyph-name="y" unicode="y" horiz-adv-x="518" 
d="M131 506l101 -451l220 452l90 -1l-303 -605q-30 -62 -72.5 -81.5t-108.5 -19.5h-92l10 74h90q52 0 78 26t26 69q0 14 -4 34l-119 503h84z" />
    <glyph glyph-name="z" unicode="z" horiz-adv-x="496" 
d="M128 73h297l-10 -73h-402l10 72l346 360h-298l10 74h402l-10 -72z" />
    <glyph glyph-name="braceleft" unicode="{" horiz-adv-x="288" 
d="M215 642l-29 -203q-8 -56 -68 -86q52 -32 45 -85l-30 -213q-4 -32 6.5 -44.5t38.5 -13.5l44 -1l-9 -65l-53 1q-57 1 -83.5 32t-18.5 90l27 199q9 62 -58 65l10 70q67 5 76 66l29 207q15 115 133 115h57l-9 -65h-38q-39 0 -52 -15t-18 -54z" />
    <glyph glyph-name="bar" unicode="|" horiz-adv-x="290" 
d="M58 -81l121 858h78l-121 -858h-78z" />
    <glyph glyph-name="braceright" unicode="}" horiz-adv-x="287" 
d="M157 775q57 -1 82.5 -32t17.5 -90l-28 -199q-9 -60 58 -65l-9 -70q-68 -5 -76 -66l-29 -203q-9 -64 -43.5 -91.5t-95.5 -27.5h-52l9 65h43q57 0 65 57l30 215q8 57 67 86q-51 30 -44 85l29 205q8 65 -44 66l-45 1l9 65z" />
    <glyph glyph-name="asciitilde" unicode="~" horiz-adv-x="598" 
d="M325 337q32 -27 46 -35.5t32 -8.5q28 0 43.5 19t17.5 53h70q-2 -66 -36 -106.5t-94 -40.5q-27 0 -52.5 11t-34.5 18t-35 29q-30 26 -45 35t-33 9q-52 0 -57 -72h-70q0 66 35.5 106.5t92.5 40.5q25 0 49 -10.5t36 -19.5t35 -28z" />
    <glyph glyph-name="exclamdown" unicode="&#xa1;" horiz-adv-x="256" 
d="M134 710h115l-16 -115h-115zM79 203q25 176 53 297h61q-7 -132 -30 -297l-29 -203h-84z" />
    <glyph glyph-name="cent" unicode="&#xa2;" horiz-adv-x="556" 
d="M270 166q109 0 164 109h87q-65 -167 -230 -180l-13 -95h-70l13 98q-78 14 -126 72.5t-48 144.5q0 120 68 201.5t179 92.5l13 97h70l-13 -98q71 -10 118.5 -56.5t56.5 -116.5h-85q-12 50 -47.5 77.5t-84.5 27.5q-83 0 -137.5 -59.5t-54.5 -161.5q0 -73 38 -113t102 -40z
" />
    <glyph glyph-name="sterling" unicode="&#xa3;" horiz-adv-x="605" 
d="M368 78q44 0 66 19t27 62h83q-8 -80 -49.5 -119.5t-121.5 -39.5h-359l10 74q133 50 133 172q0 32 -7 69h-96l9 69h70q-14 54 -14 108q0 105 65 164.5t168 59.5q92 0 151.5 -47.5t66.5 -135.5h-88q-11 58 -43.5 83t-90.5 26q-67 0 -105.5 -38.5t-38.5 -110.5
q0 -43 16 -109h215l-15 -69h-184q5 -32 5 -64q0 -110 -95 -173h222z" />
    <glyph glyph-name="currency" unicode="&#xa4;" horiz-adv-x="607" 
d="M555 347q0 -85 -55 -153l71 -73l-52 -48l-70 74q-61 -44 -139 -44t-140 46l-80 -76l-46 48l78 75q-47 63 -47 143q0 86 53 153l-68 71l51 48l69 -72q61 44 139 44q77 0 142 -47l79 75l46 -48l-78 -74q47 -65 47 -142zM312 179q69 0 116 48t47 117t-46 115.5t-113 46.5
q-69 0 -115 -48.5t-46 -117.5q0 -68 45.5 -114.5t111.5 -46.5z" />
    <glyph glyph-name="yen" unicode="&#xa5;" horiz-adv-x="641" 
d="M76 706h99l156 -328l248 328h106l-273 -350h157l-10 -70h-195l-11 -86h195l-11 -70h-195l-18 -130h-84l18 130h-195l11 70h194l12 86h-195l10 70h157z" />
    <glyph glyph-name="brokenbar" unicode="&#xa6;" horiz-adv-x="290" 
d="M130 424l49 353h78l-50 -353h-77zM58 -81l50 353h77l-49 -353h-78z" />
    <glyph glyph-name="section" unicode="&#xa7;" horiz-adv-x="432" 
d="M325 247q79 -37 79 -118q0 -67 -52 -103t-133 -36q-88 0 -141.5 41.5t-55.5 110.5h76q2 -43 31.5 -67t85.5 -24q50 0 80.5 20t30.5 56q0 55 -74 73l-86 22q-131 33 -131 129q0 84 83 111q-82 36 -82 113q0 64 48 102.5t128 38.5q83 0 133 -41.5t51 -108.5h-73
q-2 40 -31 64.5t-78 24.5q-47 0 -74.5 -21t-27.5 -57q0 -30 21 -46t63 -25l80 -19q129 -31 129 -133q0 -78 -80 -107zM108 355q0 -31 21.5 -47t65.5 -25l5 -1q61 -9 94 10.5t33 57.5q0 55 -73 73q-74 13 -110 -7.5t-36 -60.5z" />
    <glyph glyph-name="dieresis" unicode="&#xa8;" horiz-adv-x="358" 
d="M81 614l13 91h98l-12 -91h-99zM262 614l12 91h99l-12 -91h-99z" />
    <glyph glyph-name="copyright" unicode="&#xa9;" horiz-adv-x="798" 
d="M776 353q0 -148 -107 -255.5t-255 -107.5q-150 0 -257 107t-107 256q0 151 106.5 257t257.5 106q150 0 256 -106t106 -257zM413 655q-124 0 -213 -89t-89 -213t89 -213t213 -89t213 89.5t89 212.5t-89.5 212.5t-212.5 89.5zM410 140q72 0 123 37.5t70 103.5h-64
q-35 -86 -127 -86q-62 0 -100 43.5t-38 114.5q0 70 38 114t100 44q92 0 127 -87h64q-19 67 -69.5 104.5t-122.5 37.5q-87 0 -142.5 -60.5t-55.5 -153.5t55 -152.5t142 -59.5z" />
    <glyph glyph-name="ordfeminine" unicode="&#xaa;" horiz-adv-x="247" 
d="M171 716q46 0 73.5 -26.5t27.5 -73.5v-152h-42l-4 28q-8 -14 -28.5 -23.5t-45.5 -9.5q-38 0 -64.5 21.5t-26.5 58.5q0 34 23.5 55.5t69.5 21.5h70v6q0 50 -56 50q-25 0 -41.5 -11.5t-16.5 -31.5h-45q0 43 31.5 65t74.5 22zM224 551v28h-65q-50 0 -50 -38q0 -41 52 -41
q28 0 45.5 14t17.5 37z" />
    <glyph glyph-name="guillemotleft" unicode="&#xab;" horiz-adv-x="543" 
d="M168 59l-128 221l224 226h90l-227 -231l125 -216h-84zM356 59l-128 221l224 226h90l-227 -231l125 -216h-84z" />
    <glyph glyph-name="logicalnot" unicode="&#xac;" horiz-adv-x="600" 
d="M495 348l-8 -51l-26 -190h-79l22 161h-326l12 80h405z" />
    <glyph glyph-name="registered" unicode="&#xae;" horiz-adv-x="475" 
d="M473 515q0 -83 -58.5 -141.5t-141.5 -58.5q-82 0 -141 59t-59 141q0 83 59 142t141 59q83 0 141.5 -58.5t58.5 -142.5zM273 673q-66 0 -111.5 -46t-45.5 -112q0 -65 45.5 -110.5t111.5 -45.5t111 44.5t45 111.5q0 66 -45 112t-111 46zM239 484h38l36 -72h45l-40 78
q41 15 41 61q0 29 -20 47.5t-50 18.5h-90v-205h40v72zM281 582q17 0 27 -8.5t10 -23.5q0 -35 -37 -35h-42v67h42z" />
    <glyph glyph-name="macron" unicode="&#xaf;" horiz-adv-x="323" 
d="M84 713h279l-9 -63h-279z" />
    <glyph glyph-name="degree" unicode="&#xb0;" horiz-adv-x="330" 
d="M209 451q-55 0 -93.5 38.5t-38.5 93.5t38.5 93.5t93.5 38.5t93.5 -38.5t38.5 -93.5t-38.5 -93.5t-93.5 -38.5zM209 510q30 0 51.5 21.5t21.5 51.5t-21.5 51t-51.5 21t-51.5 -21t-21.5 -51t21.5 -51.5t51.5 -21.5z" />
    <glyph glyph-name="plusminus" unicode="&#xb1;" horiz-adv-x="602" 
d="M363 410h192l-12 -80h-191l-23 -166h-80l23 166h-192l11 80h193l23 165h79zM33 0l11 80h464l-11 -80h-464z" />
    <glyph glyph-name="acute" unicode="&#xb4;" horiz-adv-x="178" 
d="M61 600l98 131h91l-114 -131h-75z" />
    <glyph glyph-name="uni00B5" unicode="&#xb5;" horiz-adv-x="619" 
d="M527 75h21l-10 -75h-31q-37 0 -63.5 15t-33.5 42q-25 -32 -66.5 -49.5t-86.5 -17.5t-82 17.5t-50 45.5l-32 -229h-81l96 682h80l-42 -299q-20 -143 119 -145q55 -2 95.5 34t49.5 100l44 310h79l-51 -363q-2 -19 -1.5 -33.5t11.5 -24t35 -10.5z" />
    <glyph glyph-name="paragraph" unicode="&#xb6;" horiz-adv-x="581" 
d="M444 -91v716h-128v-716h-81v518h-50q-64 0 -101.5 42t-35.5 100q1 57 37 97t100 40h396v-81h-57v-716h-80z" />
    <glyph glyph-name="periodcentered" unicode="&#xb7;" horiz-adv-x="281" 
d="M142 244q-25 0 -42.5 16.5t-17.5 42.5q0 29 20 49t49 20q25 0 43 -16.5t18 -42.5q0 -29 -20 -49t-50 -20z" />
    <glyph glyph-name="cedilla" unicode="&#xb8;" horiz-adv-x="262" 
d="M72 6l35 -12l-22 -41q33 2 53 -15t20 -46q0 -33 -25.5 -52t-67.5 -19q-36 0 -57.5 19t-20.5 48h52q-1 -11 7.5 -17.5t21.5 -6.5q32 0 32 26q0 17 -14 23.5t-35 1.5l-21 11z" />
    <glyph glyph-name="ordmasculine" unicode="&#xba;" horiz-adv-x="299" 
d="M67 581q0 56 35 92.5t91 36.5q55 0 90.5 -36.5t35.5 -92.5t-35.5 -92t-90.5 -36q-56 0 -91 36t-35 92zM116 580q0 -37 21 -60t56 -23t56.5 23t21.5 60q0 38 -21.5 62t-56.5 24t-56 -24t-21 -62z" />
    <glyph glyph-name="guillemotright" unicode="&#xbb;" horiz-adv-x="551" 
d="M195 506l127 -219l-223 -228h-92l228 232l-125 215h85zM390 506l127 -219l-223 -228h-92l228 232l-125 215h85z" />
    <glyph glyph-name="onequarter" unicode="&#xbc;" horiz-adv-x="746" 
d="M73 345l8 57h69l33 242l-86 -40l8 60l86 42h60l-41 -304h68l-8 -57h-197zM584 706h68l-452 -706h-68zM662 123h49l-8 -54h-49l-10 -69h-61l9 69h-170l8 53l198 239h65zM600 123l20 152l-128 -152h108z" />
    <glyph glyph-name="onehalf" unicode="&#xbd;" horiz-adv-x="792" 
d="M73 345l8 57h69l33 242l-86 -40l8 60l86 42h60l-41 -304h68l-8 -57h-197zM584 706h68l-452 -706h-68zM687 136l-98 -79h152l-8 -57h-242l7 55l152 120q32 26 46 43.5t14 38.5q0 24 -15.5 39t-42.5 15q-29 0 -48 -17.5t-24 -46.5h-59q6 58 43.5 88.5t90.5 30.5
q52 0 84 -28.5t32 -75.5q0 -36 -20.5 -64t-63.5 -62z" />
    <glyph glyph-name="threequarters" unicode="&#xbe;" horiz-adv-x="763" 
d="M309 453q0 -52 -39 -82.5t-99 -30.5q-59 0 -93 33t-27 85h60q-4 -31 12.5 -48.5t48.5 -17.5t52.5 17t20.5 45q0 23 -15.5 37t-44.5 14h-29l7 48h30q33 0 50.5 16t17.5 43q0 22 -15 34.5t-42 12.5q-32 0 -52 -18t-22 -48h-60q6 54 42.5 86t96.5 32q51 0 83.5 -25.5
t32.5 -68.5q0 -30 -17 -54t-47 -34q48 -17 48 -76zM601 706h68l-452 -706h-68zM680 123h49l-8 -54h-49l-10 -69h-61l9 69h-170l8 53l198 239h65zM618 123l20 152l-128 -152h108z" />
    <glyph glyph-name="questiondown" unicode="&#xbf;" horiz-adv-x="501" 
d="M398 706l-16 -115h-117l16 115h117zM460 187q-9 -85 -75 -141t-160 -56q-87 0 -139.5 46.5t-52.5 119.5q0 52 23 92t56.5 66t68 49.5t60.5 54t30 67.5h77q-5 -47 -30.5 -84.5t-57.5 -61.5t-63.5 -47.5t-53 -55.5t-21.5 -72q0 -46 30 -72t79 -26q61 0 99 34.5t44 86.5h86z
" />
    <glyph glyph-name="Agrave" unicode="&#xc0;" horiz-adv-x="657" 
d="M437 759h-74l-115 131h91zM523 0l-41 175h-321l-91 -175h-93l371 706h91l173 -706h-89zM199 248h265l-83 351z" />
    <glyph glyph-name="Aacute" unicode="&#xc1;" horiz-adv-x="657" 
d="M553 890l-114 -131h-75l98 131h91zM523 0l-41 175h-321l-91 -175h-93l371 706h91l173 -706h-89zM199 248h265l-83 351z" />
    <glyph glyph-name="Acircumflex" unicode="&#xc2;" horiz-adv-x="657" 
d="M411 834l-67 -75h-82l116 131h80l80 -131h-80zM523 0l-41 175h-321l-91 -175h-93l371 706h91l173 -706h-89zM199 248h265l-83 351z" />
    <glyph glyph-name="Atilde" unicode="&#xc3;" horiz-adv-x="657" 
d="M350 813q-35 0 -41 -38h-53q3 49 29 77t66 28q28 0 64 -19.5t51 -19.5q33 0 41 37h53q-3 -49 -29 -76.5t-66 -27.5q-28 0 -64 19.5t-51 19.5zM523 0l-41 175h-321l-91 -175h-93l371 706h91l173 -706h-89zM199 248h265l-83 351z" />
    <glyph glyph-name="Adieresis" unicode="&#xc4;" horiz-adv-x="657" 
d="M375 864l-12 -91h-99l13 91h98zM556 864l-12 -91h-99l12 91h99zM523 0l-41 175h-321l-91 -175h-93l371 706h91l173 -706h-89zM199 248h265l-83 351z" />
    <glyph glyph-name="Aring" unicode="&#xc5;" horiz-adv-x="657" 
d="M523 0l-41 175h-321l-91 -175h-93l362 689q-50 30 -50 91q0 49 33.5 82.5t82.5 33.5q47 0 77 -29.5t30 -76.5q0 -36 -18.5 -64t-49.5 -42l168 -684h-89zM404 844q-27 0 -43 -18t-16 -46q0 -25 15.5 -39t37.5 -14q26 0 42 18t16 44q0 24 -14 39.5t-38 15.5zM199 248h265
l-83 351z" />
    <glyph glyph-name="AE" unicode="&#xc6;" horiz-adv-x="984" 
d="M-33 0l544 706h482l-11 -79h-358l-33 -233h270l-11 -77h-269l-34 -238h378l-11 -79h-462l25 177h-273l-136 -177h-101zM260 252h228l51 361z" />
    <glyph glyph-name="Ccedilla" unicode="&#xc7;" horiz-adv-x="735" 
d="M363 70q165 0 238 150h95q-42 -106 -122 -165.5t-192 -64.5l-20 -36q33 2 53 -15t20 -46q0 -33 -25.5 -52t-67.5 -19q-36 0 -57.5 19t-20.5 48h52q-1 -11 7.5 -17.5t21.5 -6.5q32 0 32 26q0 17 -14 23.5t-35 1.5l-21 11l33 64q-131 7 -208.5 92.5t-77.5 225.5
q0 172 109 289t274 117q117 0 194.5 -62.5t94.5 -167.5h-92q-40 150 -199 150q-127 0 -209 -91t-82 -234q0 -110 59 -175t160 -65z" />
    <glyph glyph-name="Egrave" unicode="&#xc8;" horiz-adv-x="592" 
d="M400 759h-74l-115 131h91zM585 627h-371l-32 -233h290l-11 -77h-290l-33 -238h395l-11 -79h-479l95 706h457z" />
    <glyph glyph-name="Eacute" unicode="&#xc9;" horiz-adv-x="592" 
d="M516 890l-114 -131h-75l98 131h91zM585 627h-371l-32 -233h290l-11 -77h-290l-33 -238h395l-11 -79h-479l95 706h457z" />
    <glyph glyph-name="Ecircumflex" unicode="&#xca;" horiz-adv-x="592" 
d="M375 834l-67 -75h-82l116 131h80l80 -131h-80zM585 627h-371l-32 -233h290l-11 -77h-290l-33 -238h395l-11 -79h-479l95 706h457z" />
    <glyph glyph-name="Edieresis" unicode="&#xcb;" horiz-adv-x="592" 
d="M338 864l-12 -91h-99l13 91h98zM519 864l-12 -91h-99l12 91h99zM585 627h-371l-32 -233h290l-11 -77h-290l-33 -238h395l-11 -79h-479l95 706h457z" />
    <glyph glyph-name="Igrave" unicode="&#xcc;" horiz-adv-x="240" 
d="M227 759h-74l-115 131h91zM224 706l-96 -706h-85l95 706h86z" />
    <glyph glyph-name="Iacute" unicode="&#xcd;" horiz-adv-x="240" 
d="M154 759l98 131h91l-114 -131h-75zM224 706l-96 -706h-85l95 706h86z" />
    <glyph glyph-name="Icircumflex" unicode="&#xce;" horiz-adv-x="240" 
d="M52 759l116 131h80l80 -131h-80l-47 75l-67 -75h-82zM224 706l-96 -706h-85l95 706h86z" />
    <glyph glyph-name="Idieresis" unicode="&#xcf;" horiz-adv-x="240" 
d="M54 773l13 91h98l-12 -91h-99zM235 773l12 91h99l-12 -91h-99zM224 706l-96 -706h-85l95 706h86z" />
    <glyph glyph-name="Eth" unicode="&#xd0;" horiz-adv-x="745" 
d="M404 706q145 0 229.5 -86.5t84.5 -232.5q0 -169 -110 -278t-296 -109h-234l44 325h-96l11 75h95l41 306h231zM304 79q151 0 237 83t86 225q0 112 -59.5 176t-167.5 64h-153l-30 -227h96l-10 -75h-96l-33 -246h130z" />
    <glyph glyph-name="Ntilde" unicode="&#xd1;" horiz-adv-x="709" 
d="M391 880q28 0 64 -19.5t51 -19.5q33 0 41 37h53q-3 -49 -29 -76.5t-66 -27.5q-28 0 -64 19.5t-51 19.5q-35 0 -41 -38h-53q3 49 29 77t66 28zM43 0l95 706h91l301 -577l78 577h85l-96 -706h-91l-301 573l-77 -573h-85z" />
    <glyph glyph-name="Ograve" unicode="&#xd2;" horiz-adv-x="765" 
d="M480 761h-74l-115 131h91zM54 316q0 166 112 283t265 117q138 0 222 -88t84 -236q0 -166 -112 -283t-265 -117q-137 0 -221.5 88.5t-84.5 235.5zM646 393q0 111 -60 176.5t-160 65.5q-114 0 -197.5 -93t-83.5 -226q0 -112 59 -177.5t160 -65.5q114 0 198 93.5t84 226.5z
" />
    <glyph glyph-name="Oacute" unicode="&#xd3;" horiz-adv-x="765" 
d="M407 761l98 131h91l-114 -131h-75zM54 316q0 166 112 283t265 117q138 0 222 -88t84 -236q0 -166 -112 -283t-265 -117q-137 0 -221.5 88.5t-84.5 235.5zM646 393q0 111 -60 176.5t-160 65.5q-114 0 -197.5 -93t-83.5 -226q0 -112 59 -177.5t160 -65.5q114 0 198 93.5
t84 226.5z" />
    <glyph glyph-name="Ocircumflex" unicode="&#xd4;" horiz-adv-x="765" 
d="M306 761l116 131h80l80 -131h-80l-47 75l-67 -75h-82zM54 316q0 166 112 283t265 117q138 0 222 -88t84 -236q0 -166 -112 -283t-265 -117q-137 0 -221.5 88.5t-84.5 235.5zM646 393q0 111 -60 176.5t-160 65.5q-114 0 -197.5 -93t-83.5 -226q0 -112 59 -177.5t160 -65.5
q114 0 198 93.5t84 226.5z" />
    <glyph glyph-name="Otilde" unicode="&#xd5;" horiz-adv-x="765" 
d="M395 882q28 0 64 -19.5t51 -19.5q33 0 41 37h53q-3 -49 -29 -76.5t-66 -27.5q-28 0 -64 19.5t-51 19.5q-35 0 -41 -38h-53q3 49 29 77t66 28zM54 316q0 166 112 283t265 117q138 0 222 -88t84 -236q0 -166 -112 -283t-265 -117q-137 0 -221.5 88.5t-84.5 235.5zM646 393
q0 111 -60 176.5t-160 65.5q-114 0 -197.5 -93t-83.5 -226q0 -112 59 -177.5t160 -65.5q114 0 198 93.5t84 226.5z" />
    <glyph glyph-name="Odieresis" unicode="&#xd6;" horiz-adv-x="765" 
d="M308 775l13 91h98l-12 -91h-99zM489 775l12 91h99l-12 -91h-99zM54 316q0 166 112 283t265 117q138 0 222 -88t84 -236q0 -166 -112 -283t-265 -117q-137 0 -221.5 88.5t-84.5 235.5zM646 393q0 111 -60 176.5t-160 65.5q-114 0 -197.5 -93t-83.5 -226q0 -112 59 -177.5
t160 -65.5q114 0 198 93.5t84 226.5z" />
    <glyph glyph-name="multiply" unicode="&#xd7;" horiz-adv-x="600" 
d="M82 176l169 149l-127 147l63 56l127 -148l168 148l53 -61l-168 -148l127 -148l-63 -56l-128 148l-168 -148z" />
    <glyph glyph-name="Oslash" unicode="&#xd8;" horiz-adv-x="774" 
d="M644 641q98 -89 98 -249q0 -166 -112 -283t-265 -117q-86 0 -154 37l-25 -36h-80l52 73q-99 90 -99 250q0 166 111.5 283t264.5 117q87 0 156 -37l23 33h80zM149 316q0 -114 59 -179l334 473q-49 26 -111 26q-115 0 -198.5 -93.5t-83.5 -226.5zM369 72q115 0 198.5 93.5
t83.5 227.5q0 110 -58 176l-333 -472q48 -25 109 -25z" />
    <glyph glyph-name="Ugrave" unicode="&#xd9;" horiz-adv-x="694" 
d="M449 759h-74l-115 131h91zM216 706l-57 -424q-13 -98 33 -156t137 -58q183 0 211 202l57 436h86l-60 -446q-17 -129 -93 -199.5t-203 -70.5q-128 0 -200 79.5t-53 218.5l56 418h86z" />
    <glyph glyph-name="Uacute" unicode="&#xda;" horiz-adv-x="694" 
d="M376 759l98 131h91l-114 -131h-75zM216 706l-57 -424q-13 -98 33 -156t137 -58q183 0 211 202l57 436h86l-60 -446q-17 -129 -93 -199.5t-203 -70.5q-128 0 -200 79.5t-53 218.5l56 418h86z" />
    <glyph glyph-name="Ucircumflex" unicode="&#xdb;" horiz-adv-x="694" 
d="M275 759l116 131h80l80 -131h-80l-47 75l-67 -75h-82zM216 706l-57 -424q-13 -98 33 -156t137 -58q183 0 211 202l57 436h86l-60 -446q-17 -129 -93 -199.5t-203 -70.5q-128 0 -200 79.5t-53 218.5l56 418h86z" />
    <glyph glyph-name="Udieresis" unicode="&#xdc;" horiz-adv-x="694" 
d="M277 773l13 91h98l-12 -91h-99zM458 773l12 91h99l-12 -91h-99zM216 706l-57 -424q-13 -98 33 -156t137 -58q183 0 211 202l57 436h86l-60 -446q-17 -129 -93 -199.5t-203 -70.5q-128 0 -200 79.5t-53 218.5l56 418h86z" />
    <glyph glyph-name="Yacute" unicode="&#xdd;" horiz-adv-x="630" 
d="M343 759l98 131h91l-114 -131h-75zM267 241l-196 465h94l154 -373l258 373h102l-327 -465l-34 -241h-84z" />
    <glyph glyph-name="Thorn" unicode="&#xde;" horiz-adv-x="646" 
d="M387 579q112 0 170.5 -60.5t58.5 -152.5q0 -103 -74 -170.5t-196 -67.5h-201l-17 -128h-86l95 706h87l-17 -127h180zM336 206q89 0 139.5 44.5t50.5 114.5q0 61 -38 97t-104 37l-188 1l-40 -294h180z" />
    <glyph glyph-name="germandbls" unicode="&#xdf;" horiz-adv-x="582" 
d="M410 400q61 -17 96.5 -65t35.5 -113q0 -104 -67.5 -168t-175.5 -64q-64 0 -112 21l9 70q46 -25 101 -25q71 0 116.5 43.5t45.5 120.5q0 72 -47 107.5t-131 33.5l10 68q71 -1 116.5 34t45.5 98q0 50 -31.5 80.5t-87.5 30.5q-126 0 -146 -151l-70 -520h-82l69 514
q15 112 76 167.5t158 55.5q84 0 139 -46t55 -122q0 -62 -32.5 -106t-90.5 -64z" />
    <glyph glyph-name="agrave" unicode="&#xe0;" horiz-adv-x="562" 
d="M351 575h-74l-115 131h91zM483 64h26l-9 -64h-56q-33 0 -49 16.5t-15 56.5q-28 -38 -76 -60.5t-105 -22.5q-79 0 -125.5 37.5t-46.5 105.5q0 66 49 112t150 46h176l4 28q18 129 -111 129q-57 0 -94 -26t-46 -71h-77q15 77 74 121t148 44q96 0 148.5 -53t39.5 -151
l-29 -209q-4 -23 2 -31t22 -8zM390 198l4 32h-164q-63 0 -90 -25.5t-27 -65.5q0 -81 109 -81q61 0 110 35.5t58 104.5z" />
    <glyph glyph-name="aacute" unicode="&#xe1;" horiz-adv-x="562" 
d="M467 706l-114 -131h-75l98 131h91zM483 64h26l-9 -64h-56q-33 0 -49 16.5t-15 56.5q-28 -38 -76 -60.5t-105 -22.5q-79 0 -125.5 37.5t-46.5 105.5q0 66 49 112t150 46h176l4 28q18 129 -111 129q-57 0 -94 -26t-46 -71h-77q15 77 74 121t148 44q96 0 148.5 -53
t39.5 -151l-29 -209q-4 -23 2 -31t22 -8zM390 198l4 32h-164q-63 0 -90 -25.5t-27 -65.5q0 -81 109 -81q61 0 110 35.5t58 104.5z" />
    <glyph glyph-name="acircumflex" unicode="&#xe2;" horiz-adv-x="562" 
d="M326 650l-67 -75h-82l116 131h80l80 -131h-80zM483 64h26l-9 -64h-56q-33 0 -49 16.5t-15 56.5q-28 -38 -76 -60.5t-105 -22.5q-79 0 -125.5 37.5t-46.5 105.5q0 66 49 112t150 46h176l4 28q18 129 -111 129q-57 0 -94 -26t-46 -71h-77q15 77 74 121t148 44
q96 0 148.5 -53t39.5 -151l-29 -209q-4 -23 2 -31t22 -8zM390 198l4 32h-164q-63 0 -90 -25.5t-27 -65.5q0 -81 109 -81q61 0 110 35.5t58 104.5z" />
    <glyph glyph-name="atilde" unicode="&#xe3;" horiz-adv-x="562" 
d="M264 629q-35 0 -41 -38h-53q3 49 29 77t66 28q28 0 64 -19.5t51 -19.5q33 0 41 37h53q-3 -49 -29 -76.5t-66 -27.5q-28 0 -64 19.5t-51 19.5zM483 64h26l-9 -64h-56q-33 0 -49 16.5t-15 56.5q-28 -38 -76 -60.5t-105 -22.5q-79 0 -125.5 37.5t-46.5 105.5q0 66 49 112
t150 46h176l4 28q18 129 -111 129q-57 0 -94 -26t-46 -71h-77q15 77 74 121t148 44q96 0 148.5 -53t39.5 -151l-29 -209q-4 -23 2 -31t22 -8zM390 198l4 32h-164q-63 0 -90 -25.5t-27 -65.5q0 -81 109 -81q61 0 110 35.5t58 104.5z" />
    <glyph glyph-name="adieresis" unicode="&#xe4;" horiz-adv-x="562" 
d="M289 680l-12 -91h-99l13 91h98zM470 680l-12 -91h-99l12 91h99zM483 64h26l-9 -64h-56q-33 0 -49 16.5t-15 56.5q-28 -38 -76 -60.5t-105 -22.5q-79 0 -125.5 37.5t-46.5 105.5q0 66 49 112t150 46h176l4 28q18 129 -111 129q-57 0 -94 -26t-46 -71h-77q15 77 74 121
t148 44q96 0 148.5 -53t39.5 -151l-29 -209q-4 -23 2 -31t22 -8zM390 198l4 32h-164q-63 0 -90 -25.5t-27 -65.5q0 -81 109 -81q61 0 110 35.5t58 104.5z" />
    <glyph glyph-name="aring" unicode="&#xe5;" horiz-adv-x="562" 
d="M483 64h26l-9 -64h-56q-33 0 -49 16.5t-15 56.5q-28 -38 -76 -60.5t-105 -22.5q-79 0 -125.5 37.5t-46.5 105.5q0 66 49 112t150 46h176l4 28q18 129 -111 129q-57 0 -94 -26t-46 -71h-77q12 63 53.5 104t106.5 55q-29 29 -29 74q0 49 33.5 82.5t82.5 33.5q47 0 77 -29.5
t30 -76.5q0 -58 -44 -92q55 -21 82 -69t18 -121l-29 -209q-4 -23 2 -31t22 -8zM324 648q-27 0 -43 -18t-16 -46q0 -25 15.5 -39t37.5 -14q26 0 42 18t16 44q0 24 -14 39.5t-38 15.5zM390 198l4 32h-164q-63 0 -90 -25.5t-27 -65.5q0 -81 109 -81q61 0 110 35.5t58 104.5z
" />
    <glyph glyph-name="ae" unicode="&#xe6;" horiz-adv-x="938" 
d="M671 516q112 0 173 -71.5t46 -184.5l-4 -33h-411q-9 -81 32 -124t111 -43q55 0 101 27t65 72h84q-27 -78 -95 -123t-156 -45q-71 0 -122.5 31t-75.5 90q-24 -54 -82 -88t-133 -34q-79 0 -128.5 37t-49.5 102q0 63 47.5 109.5t147.5 46.5h179l4 29q9 68 -23.5 101.5
t-92.5 33.5q-58 0 -95 -29t-46 -73h-75q16 80 77 124.5t142 44.5q61 0 106.5 -25t65.5 -73q77 98 208 98zM813 288q7 76 -33.5 118.5t-109.5 42.5q-68 0 -120 -42.5t-67 -118.5h330zM389 207l2 17h-166q-60 0 -86 -25t-26 -62q0 -43 30.5 -61.5t74.5 -18.5q65 0 114 37.5
t57 112.5z" />
    <glyph glyph-name="ccedilla" unicode="&#xe7;" 
d="M281 62q53 0 96 29.5t63 84.5h88q-25 -84 -89 -133.5t-150 -52.5l-14 -25q33 2 53 -15t20 -46q0 -33 -25.5 -52t-67.5 -19q-36 0 -57.5 19t-20.5 48h52q-1 -11 7.5 -17.5t21.5 -6.5q32 0 32 26q0 17 -14 23.5t-35 1.5l-21 11l28 54q-90 9 -145.5 70.5t-55.5 161.5
q0 125 79 208.5t198 83.5q89 0 148.5 -48t69.5 -132h-87q-9 51 -46 80t-89 29q-76 0 -132 -61.5t-56 -157.5q0 -82 42.5 -123t106.5 -41z" />
    <glyph glyph-name="egrave" unicode="&#xe8;" horiz-adv-x="596" 
d="M368 575h-74l-115 131h91zM545 230h-413v-9q0 -79 40.5 -120t108.5 -41q121 0 166 99h83q-22 -76 -92 -122t-156 -46q-102 0 -166 63t-64 172q-1 128 78 209t198 81q105 0 163 -63t59 -165q0 -26 -5 -58zM318 449q-62 0 -112 -41t-67 -117h329q-3 158 -150 158z" />
    <glyph glyph-name="eacute" unicode="&#xe9;" horiz-adv-x="596" 
d="M484 706l-114 -131h-75l98 131h91zM545 230h-413v-9q0 -79 40.5 -120t108.5 -41q121 0 166 99h83q-22 -76 -92 -122t-156 -46q-102 0 -166 63t-64 172q-1 128 78 209t198 81q105 0 163 -63t59 -165q0 -26 -5 -58zM318 449q-62 0 -112 -41t-67 -117h329q-3 158 -150 158z
" />
    <glyph glyph-name="ecircumflex" unicode="&#xea;" horiz-adv-x="596" 
d="M343 650l-67 -75h-82l116 131h80l80 -131h-80zM545 230h-413v-9q0 -79 40.5 -120t108.5 -41q121 0 166 99h83q-22 -76 -92 -122t-156 -46q-102 0 -166 63t-64 172q-1 128 78 209t198 81q105 0 163 -63t59 -165q0 -26 -5 -58zM318 449q-62 0 -112 -41t-67 -117h329
q-3 158 -150 158z" />
    <glyph glyph-name="edieresis" unicode="&#xeb;" horiz-adv-x="596" 
d="M306 680l-12 -91h-99l13 91h98zM487 680l-12 -91h-99l12 91h99zM545 230h-413v-9q0 -79 40.5 -120t108.5 -41q121 0 166 99h83q-22 -76 -92 -122t-156 -46q-102 0 -166 63t-64 172q-1 128 78 209t198 81q105 0 163 -63t59 -165q0 -26 -5 -58zM318 449q-62 0 -112 -41
t-67 -117h329q-3 158 -150 158z" />
    <glyph glyph-name="igrave" unicode="&#xec;" horiz-adv-x="225" 
d="M192 575h-74l-115 131h91zM36 0l71 506h82l-71 -506h-82z" />
    <glyph glyph-name="iacute" unicode="&#xed;" horiz-adv-x="225" 
d="M119 575l98 131h91l-114 -131h-75zM36 0l71 506h82l-71 -506h-82z" />
    <glyph glyph-name="icircumflex" unicode="&#xee;" horiz-adv-x="225" 
d="M18 575l116 131h80l80 -131h-80l-47 75l-67 -75h-82zM36 0l71 506h82l-71 -506h-82z" />
    <glyph glyph-name="idieresis" unicode="&#xef;" horiz-adv-x="225" 
d="M19 589l13 91h98l-12 -91h-99zM200 589l12 91h99l-12 -91h-99zM36 0l71 506h82l-71 -506h-82z" />
    <glyph glyph-name="eth" unicode="&#xf0;" horiz-adv-x="610" 
d="M479 607q89 -132 89 -298q0 -80 -25 -143.5t-66.5 -100t-89.5 -55.5t-98 -19q-105 0 -172 63t-67 179q0 126 76 203t190 77q105 0 157 -68q-24 71 -68 133l-119 -46l9 68l70 27q-48 51 -109 89h116q38 -26 69 -60l123 47l-10 -67zM286 63q78 0 134 57t56 151
q0 84 -46 128t-112 44q-79 0 -133 -57.5t-54 -150.5q0 -84 45.5 -128t109.5 -44z" />
    <glyph glyph-name="ntilde" unicode="&#xf1;" horiz-adv-x="580" 
d="M300 629q-35 0 -41 -38h-53q3 49 29 77t66 28q28 0 64 -19.5t51 -19.5q33 0 41 37h53q-3 -49 -29 -76.5t-66 -27.5q-28 0 -64 19.5t-51 19.5zM355 516q82 0 131.5 -53.5t34.5 -162.5l-40 -300h-83l40 293q11 85 -22.5 118t-85.5 33q-69 0 -116.5 -47.5t-58.5 -127.5
l-36 -269h-82l68 506h72l-3 -78q28 41 76.5 64.5t104.5 23.5z" />
    <glyph glyph-name="ograve" unicode="&#xf2;" horiz-adv-x="602" 
d="M364 574h-74l-115 131h91zM47 226q0 122 78.5 206t196.5 84q98 0 165 -63t67 -176q0 -121 -77.5 -204t-194.5 -83q-100 0 -167.5 62.5t-67.5 173.5zM280 61q81 0 136 62t55 154q0 80 -42 124.5t-108 44.5q-81 0 -135.5 -62.5t-54.5 -155.5q0 -80 41.5 -123.5t107.5 -43.5
z" />
    <glyph glyph-name="oacute" unicode="&#xf3;" horiz-adv-x="602" 
d="M291 574l98 131h91l-114 -131h-75zM47 226q0 122 78.5 206t196.5 84q98 0 165 -63t67 -176q0 -121 -77.5 -204t-194.5 -83q-100 0 -167.5 62.5t-67.5 173.5zM280 61q81 0 136 62t55 154q0 80 -42 124.5t-108 44.5q-81 0 -135.5 -62.5t-54.5 -155.5q0 -80 41.5 -123.5
t107.5 -43.5z" />
    <glyph glyph-name="ocircumflex" unicode="&#xf4;" horiz-adv-x="602" 
d="M190 574l116 131h80l80 -131h-80l-47 75l-67 -75h-82zM47 226q0 122 78.5 206t196.5 84q98 0 165 -63t67 -176q0 -121 -77.5 -204t-194.5 -83q-100 0 -167.5 62.5t-67.5 173.5zM280 61q81 0 136 62t55 154q0 80 -42 124.5t-108 44.5q-81 0 -135.5 -62.5t-54.5 -155.5
q0 -80 41.5 -123.5t107.5 -43.5z" />
    <glyph glyph-name="otilde" unicode="&#xf5;" horiz-adv-x="602" 
d="M278 695q28 0 64 -19.5t51 -19.5q33 0 41 37h53q-3 -49 -29 -76.5t-66 -27.5q-28 0 -64 19.5t-51 19.5q-35 0 -41 -38h-53q3 49 29 77t66 28zM47 226q0 122 78.5 206t196.5 84q98 0 165 -63t67 -176q0 -121 -77.5 -204t-194.5 -83q-100 0 -167.5 62.5t-67.5 173.5z
M280 61q81 0 136 62t55 154q0 80 -42 124.5t-108 44.5q-81 0 -135.5 -62.5t-54.5 -155.5q0 -80 41.5 -123.5t107.5 -43.5z" />
    <glyph glyph-name="odieresis" unicode="&#xf6;" horiz-adv-x="602" 
d="M191 588l13 91h98l-12 -91h-99zM372 588l12 91h99l-12 -91h-99zM47 226q0 122 78.5 206t196.5 84q98 0 165 -63t67 -176q0 -121 -77.5 -204t-194.5 -83q-100 0 -167.5 62.5t-67.5 173.5zM280 61q81 0 136 62t55 154q0 80 -42 124.5t-108 44.5q-81 0 -135.5 -62.5
t-54.5 -155.5q0 -80 41.5 -123.5t107.5 -43.5z" />
    <glyph glyph-name="divide" unicode="&#xf7;" horiz-adv-x="599" 
d="M332 457q-23 0 -40 15.5t-17 40.5q0 26 19 45t46 19q24 0 40.5 -16t16.5 -42t-19 -44t-46 -18zM84 368h463l-12 -80h-463zM280 80q-23 0 -40.5 15.5t-17.5 40.5q0 26 19 44.5t47 18.5q23 0 39.5 -16t16.5 -41q0 -27 -18.5 -44.5t-45.5 -17.5z" />
    <glyph glyph-name="oslash" unicode="&#xf8;" horiz-adv-x="619" 
d="M591 526l-84 -95q47 -63 47 -154q0 -121 -77.5 -204t-194.5 -83q-78 0 -134 37l-45 -51h-76l77 87q-57 64 -57 163q0 122 78.5 206t196.5 84q84 0 145 -46l49 56h75zM131 228q0 -62 27 -105l258 291q-40 32 -95 32q-81 0 -135.5 -62.5t-54.5 -155.5zM471 277q0 54 -20 92
l-253 -286q38 -22 82 -22q81 0 136 62t55 154z" />
    <glyph glyph-name="ugrave" unicode="&#xf9;" 
d="M361 575h-74l-115 131h91zM453 506h79l-69 -506h-71l2 77q-27 -42 -72 -64.5t-98 -22.5q-84 0 -132.5 58t-34.5 160l41 298h81l-40 -297q-10 -71 20 -109t90 -38q68 0 112.5 46t54.5 121z" />
    <glyph glyph-name="uacute" unicode="&#xfa;" 
d="M477 706l-114 -131h-75l98 131h91zM453 506h79l-69 -506h-71l2 77q-27 -42 -72 -64.5t-98 -22.5q-84 0 -132.5 58t-34.5 160l41 298h81l-40 -297q-10 -71 20 -109t90 -38q68 0 112.5 46t54.5 121z" />
    <glyph glyph-name="ucircumflex" unicode="&#xfb;" 
d="M336 650l-67 -75h-82l116 131h80l80 -131h-80zM453 506h79l-69 -506h-71l2 77q-27 -42 -72 -64.5t-98 -22.5q-84 0 -132.5 58t-34.5 160l41 298h81l-40 -297q-10 -71 20 -109t90 -38q68 0 112.5 46t54.5 121z" />
    <glyph glyph-name="udieresis" unicode="&#xfc;" 
d="M300 680l-12 -91h-99l13 91h98zM481 680l-12 -91h-99l12 91h99zM453 506h79l-69 -506h-71l2 77q-27 -42 -72 -64.5t-98 -22.5q-84 0 -132.5 58t-34.5 160l41 298h81l-40 -297q-10 -71 20 -109t90 -38q68 0 112.5 46t54.5 121z" />
    <glyph glyph-name="yacute" unicode="&#xfd;" horiz-adv-x="518" 
d="M261 575l98 131h91l-114 -131h-75zM131 506l101 -451l220 452l90 -1l-303 -605q-30 -62 -72.5 -81.5t-108.5 -19.5h-92l10 74h90q52 0 78 26t26 69q0 14 -4 34l-119 503h84z" />
    <glyph glyph-name="thorn" unicode="&#xfe;" horiz-adv-x="630" 
d="M362 516q92 0 156.5 -60.5t64.5 -178.5q0 -127 -75.5 -207t-185.5 -80q-66 0 -117 28.5t-73 73.5l-40 -292h-82l128 936h82l-41 -302q31 37 79.5 59.5t103.5 22.5zM307 62q81 0 135.5 60.5t54.5 152.5q0 85 -45.5 126.5t-107.5 41.5q-76 0 -133.5 -59t-57.5 -154
q0 -82 43.5 -125t110.5 -43z" />
    <glyph glyph-name="ydieresis" unicode="&#xff;" horiz-adv-x="518" 
d="M162 589l13 91h98l-12 -91h-99zM343 589l12 91h99l-12 -91h-99zM131 506l101 -451l220 452l90 -1l-303 -605q-30 -62 -72.5 -81.5t-108.5 -19.5h-92l10 74h90q52 0 78 26t26 69q0 14 -4 34l-119 503h84z" />
    <glyph glyph-name="Amacron" unicode="&#x100;" horiz-adv-x="657" 
d="M554 846l-9 -63h-279l9 63h279zM523 0l-41 175h-321l-91 -175h-93l371 706h91l173 -706h-89zM199 248h265l-83 351z" />
    <glyph glyph-name="amacron" unicode="&#x101;" horiz-adv-x="562" 
d="M468 662l-9 -63h-279l9 63h279zM483 64h26l-9 -64h-56q-33 0 -49 16.5t-15 56.5q-28 -38 -76 -60.5t-105 -22.5q-79 0 -125.5 37.5t-46.5 105.5q0 66 49 112t150 46h176l4 28q18 129 -111 129q-57 0 -94 -26t-46 -71h-77q15 77 74 121t148 44q96 0 148.5 -53t39.5 -151
l-29 -209q-4 -23 2 -31t22 -8zM390 198l4 32h-164q-63 0 -90 -25.5t-27 -65.5q0 -81 109 -81q61 0 110 35.5t58 104.5z" />
    <glyph glyph-name="Abreve" unicode="&#x102;" horiz-adv-x="657" 
d="M402 757q-60 0 -94 36t-28 95h64q-3 -31 12.5 -49.5t44.5 -18.5q33 0 54 18t24 50h66q-5 -60 -44 -95.5t-99 -35.5zM523 0l-41 175h-321l-91 -175h-93l371 706h91l173 -706h-89zM199 248h265l-83 351z" />
    <glyph glyph-name="abreve" unicode="&#x103;" horiz-adv-x="562" 
d="M316 573q-60 0 -94 36t-28 95h64q-3 -31 12.5 -49.5t44.5 -18.5q33 0 54 18t24 50h66q-5 -60 -44 -95.5t-99 -35.5zM483 64h26l-9 -64h-56q-33 0 -49 16.5t-15 56.5q-28 -38 -76 -60.5t-105 -22.5q-79 0 -125.5 37.5t-46.5 105.5q0 66 49 112t150 46h176l4 28
q18 129 -111 129q-57 0 -94 -26t-46 -71h-77q15 77 74 121t148 44q96 0 148.5 -53t39.5 -151l-29 -209q-4 -23 2 -31t22 -8zM390 198l4 32h-164q-63 0 -90 -25.5t-27 -65.5q0 -81 109 -81q61 0 110 35.5t58 104.5z" />
    <glyph glyph-name="Aogonek" unicode="&#x104;" horiz-adv-x="657" 
d="M531 -73q0 -24 29 -24q22 0 36 8l-7 -54q-24 -13 -55 -13t-51 16t-20 44q0 58 76 96h-16l-41 175h-321l-91 -175h-93l371 706h91l173 -706h1q-82 -38 -82 -73zM199 248h265l-83 351z" />
    <glyph glyph-name="aogonek" unicode="&#x105;" horiz-adv-x="562" 
d="M500 0q-82 -38 -82 -73q0 -24 29 -24q22 0 36 8l-7 -54q-24 -13 -55 -13t-51 16t-20 44q0 59 78 97q-51 7 -48 72q-28 -38 -76 -60.5t-105 -22.5q-79 0 -125.5 37.5t-46.5 105.5q0 66 49 112t150 46h176l4 28q18 129 -111 129q-57 0 -94 -26t-46 -71h-77q15 77 74 121
t148 44q96 0 148.5 -53t39.5 -151l-29 -209q-4 -23 2 -31t22 -8h26zM390 198l4 32h-164q-63 0 -90 -25.5t-27 -65.5q0 -81 109 -81q61 0 110 35.5t58 104.5z" />
    <glyph glyph-name="Cacute" unicode="&#x106;" horiz-adv-x="735" 
d="M409 761l98 131h91l-114 -131h-75zM363 70q165 0 238 150h95q-43 -111 -128.5 -170.5t-205.5 -59.5q-140 0 -224 86.5t-84 232.5q0 172 109 289t274 117q117 0 194.5 -62.5t94.5 -167.5h-92q-40 150 -199 150q-127 0 -209 -91t-82 -234q0 -110 59 -175t160 -65z" />
    <glyph glyph-name="cacute" unicode="&#x107;" 
d="M299 575l98 131h91l-114 -131h-75zM455 336q-9 51 -46 80t-89 29q-76 0 -132 -61.5t-56 -157.5q0 -82 42.5 -123t106.5 -41q53 0 96 29.5t63 84.5h88q-26 -87 -93 -136.5t-157 -49.5q-101 0 -166 62.5t-65 171.5q0 125 79 208.5t198 83.5q89 0 148.5 -48t69.5 -132h-87z
" />
    <glyph glyph-name="Ccircumflex" unicode="&#x108;" horiz-adv-x="735" 
d="M307 761l116 131h80l80 -131h-80l-47 75l-67 -75h-82zM363 70q165 0 238 150h95q-43 -111 -128.5 -170.5t-205.5 -59.5q-140 0 -224 86.5t-84 232.5q0 172 109 289t274 117q117 0 194.5 -62.5t94.5 -167.5h-92q-40 150 -199 150q-127 0 -209 -91t-82 -234q0 -110 59 -175
t160 -65z" />
    <glyph glyph-name="ccircumflex" unicode="&#x109;" 
d="M198 575l116 131h80l80 -131h-80l-47 75l-67 -75h-82zM455 336q-9 51 -46 80t-89 29q-76 0 -132 -61.5t-56 -157.5q0 -82 42.5 -123t106.5 -41q53 0 96 29.5t63 84.5h88q-26 -87 -93 -136.5t-157 -49.5q-101 0 -166 62.5t-65 171.5q0 125 79 208.5t198 83.5
q89 0 148.5 -48t69.5 -132h-87z" />
    <glyph glyph-name="Cdotaccent" unicode="&#x10a;" horiz-adv-x="735" 
d="M396 790l12 95h102l-12 -95h-102zM363 70q165 0 238 150h95q-43 -111 -128.5 -170.5t-205.5 -59.5q-140 0 -224 86.5t-84 232.5q0 172 109 289t274 117q117 0 194.5 -62.5t94.5 -167.5h-92q-40 150 -199 150q-127 0 -209 -91t-82 -234q0 -110 59 -175t160 -65z" />
    <glyph glyph-name="cdotaccent" unicode="&#x10b;" 
d="M286 604l12 95h102l-12 -95h-102zM455 336q-9 51 -46 80t-89 29q-76 0 -132 -61.5t-56 -157.5q0 -82 42.5 -123t106.5 -41q53 0 96 29.5t63 84.5h88q-26 -87 -93 -136.5t-157 -49.5q-101 0 -166 62.5t-65 171.5q0 125 79 208.5t198 83.5q89 0 148.5 -48t69.5 -132h-87z
" />
    <glyph glyph-name="Ccaron" unicode="&#x10c;" horiz-adv-x="735" 
d="M605 892l-119 -131h-80l-79 131h79l47 -75l68 75h84zM363 70q165 0 238 150h95q-43 -111 -128.5 -170.5t-205.5 -59.5q-140 0 -224 86.5t-84 232.5q0 172 109 289t274 117q117 0 194.5 -62.5t94.5 -167.5h-92q-40 150 -199 150q-127 0 -209 -91t-82 -234q0 -110 59 -175
t160 -65z" />
    <glyph glyph-name="ccaron" unicode="&#x10d;" 
d="M496 706l-119 -131h-80l-79 131h79l47 -75l68 75h84zM455 336q-9 51 -46 80t-89 29q-76 0 -132 -61.5t-56 -157.5q0 -82 42.5 -123t106.5 -41q53 0 96 29.5t63 84.5h88q-26 -87 -93 -136.5t-157 -49.5q-101 0 -166 62.5t-65 171.5q0 125 79 208.5t198 83.5
q89 0 148.5 -48t69.5 -132h-87z" />
    <glyph glyph-name="Dcaron" unicode="&#x10e;" horiz-adv-x="711" 
d="M516 890l-119 -131h-80l-79 131h79l47 -75l68 75h84zM43 0h234q186 0 296 109t110 278q0 146 -84.5 232.5t-229.5 86.5h-231zM139 79l73 548h153q108 0 167.5 -64t59.5 -176q0 -142 -86 -225t-237 -83h-130z" />
    <glyph glyph-name="dcaron" unicode="&#x10f;" horiz-adv-x="659" 
d="M495 420l43 316h80l-98 -736h-73l2 72q-30 -40 -80.5 -61t-106.5 -21q-35 0 -69.5 11t-68.5 36t-55.5 74t-21.5 115q0 131 79 210.5t191 79.5q59 0 106 -26.5t72 -69.5zM681 736h82l-49 -176h-56zM284 62q81 0 137 61.5t56 155.5q0 78 -43.5 121t-110.5 43
q-76 0 -133 -58.5t-57 -154.5q0 -83 45 -125.5t106 -42.5z" />
    <glyph glyph-name="Dcroat" unicode="&#x110;" horiz-adv-x="745" 
d="M404 706q145 0 229.5 -86.5t84.5 -232.5q0 -169 -110 -278t-296 -109h-234l44 325h-96l11 75h95l41 306h231zM304 79q151 0 237 83t86 225q0 112 -59.5 176t-167.5 64h-153l-30 -227h96l-10 -75h-96l-33 -246h130z" />
    <glyph glyph-name="dcroat" unicode="&#x111;" horiz-adv-x="629" 
d="M665 645l-10 -69h-58l-77 -576h-73l2 72q-30 -40 -80.5 -61t-106.5 -21q-35 0 -69.5 11t-68.5 36t-55.5 74t-21.5 115q0 131 79 210.5t191 79.5q59 0 106 -26.5t72 -69.5l21 156h-161l10 69h161l12 91h80l-12 -91h59zM284 62q81 0 137 61.5t56 155.5q0 78 -43.5 121
t-110.5 43q-76 0 -133 -58.5t-57 -154.5q0 -83 45 -125.5t106 -42.5z" />
    <glyph glyph-name="Emacron" unicode="&#x112;" horiz-adv-x="592" 
d="M517 846l-9 -63h-279l9 63h279zM585 627h-371l-32 -233h290l-11 -77h-290l-33 -238h395l-11 -79h-479l95 706h457z" />
    <glyph glyph-name="emacron" unicode="&#x113;" horiz-adv-x="596" 
d="M485 662l-9 -63h-279l9 63h279zM545 230h-413v-9q0 -79 40.5 -120t108.5 -41q121 0 166 99h83q-22 -76 -92 -122t-156 -46q-102 0 -166 63t-64 172q-1 128 78 209t198 81q105 0 163 -63t59 -165q0 -26 -5 -58zM318 449q-62 0 -112 -41t-67 -117h329q-3 158 -150 158z" />
    <glyph glyph-name="Ebreve" unicode="&#x114;" horiz-adv-x="592" 
d="M366 757q-60 0 -94 36t-28 95h64q-3 -31 12.5 -49.5t44.5 -18.5q33 0 54 18t24 50h66q-5 -60 -44 -95.5t-99 -35.5zM585 627h-371l-32 -233h290l-11 -77h-290l-33 -238h395l-11 -79h-479l95 706h457z" />
    <glyph glyph-name="ebreve" unicode="&#x115;" horiz-adv-x="596" 
d="M333 573q-60 0 -94 36t-28 95h64q-3 -31 12.5 -49.5t44.5 -18.5q33 0 54 18t24 50h66q-5 -60 -44 -95.5t-99 -35.5zM545 230h-413v-9q0 -79 40.5 -120t108.5 -41q121 0 166 99h83q-22 -76 -92 -122t-156 -46q-102 0 -166 63t-64 172q-1 128 78 209t198 81q105 0 163 -63
t59 -165q0 -26 -5 -58zM318 449q-62 0 -112 -41t-67 -117h329q-3 158 -150 158z" />
    <glyph glyph-name="Edotaccent" unicode="&#x116;" horiz-adv-x="592" 
d="M429 883l-12 -95h-102l12 95h102zM585 627h-371l-32 -233h290l-11 -77h-290l-33 -238h395l-11 -79h-479l95 706h457z" />
    <glyph glyph-name="edotaccent" unicode="&#x117;" horiz-adv-x="596" 
d="M396 699l-12 -95h-102l12 95h102zM545 230h-413v-9q0 -79 40.5 -120t108.5 -41q121 0 166 99h83q-22 -76 -92 -122t-156 -46q-102 0 -166 63t-64 172q-1 128 78 209t198 81q105 0 163 -63t59 -165q0 -26 -5 -58zM318 449q-62 0 -112 -41t-67 -117h329q-3 158 -150 158z
" />
    <glyph glyph-name="Eogonek" unicode="&#x118;" horiz-adv-x="592" 
d="M585 627h-371l-32 -233h290l-11 -77h-290l-33 -238h395l-11 -79q-82 -38 -82 -73q0 -24 29 -24q22 0 36 8l-7 -54q-24 -13 -55 -13t-51 16t-20 44q0 58 76 96h-405l95 706h457z" />
    <glyph glyph-name="eogonek" unicode="&#x119;" horiz-adv-x="596" 
d="M545 230h-413v-9q0 -79 40.5 -120t108.5 -41q121 0 166 99h83q-17 -59 -64 -100.5t-111 -58.5q-76 -35 -76 -70q0 -24 29 -24q22 0 36 8l-7 -54q-24 -13 -55 -13t-51 16t-20 44q0 49 55 84q-96 5 -155 67.5t-59 167.5q-1 128 78 209t198 81q105 0 163 -63t59 -165
q0 -26 -5 -58zM318 449q-62 0 -112 -41t-67 -117h329q-3 158 -150 158z" />
    <glyph glyph-name="Ecaron" unicode="&#x11a;" horiz-adv-x="592" 
d="M405 759h-80l-79 131h79l47 -75l68 75h84zM585 627h-371l-32 -233h290l-11 -77h-290l-33 -238h395l-11 -79h-479l95 706h457z" />
    <glyph glyph-name="ecaron" unicode="&#x11b;" horiz-adv-x="596" 
d="M373 575h-80l-79 131h79l47 -75l68 75h84zM545 230h-413v-9q0 -79 40.5 -120t108.5 -41q121 0 166 99h83q-22 -76 -92 -122t-156 -46q-102 0 -166 63t-64 172q-1 128 78 209t198 81q105 0 163 -63t59 -165q0 -26 -5 -58zM318 449q-62 0 -112 -41t-67 -117h329
q-3 158 -150 158z" />
    <glyph glyph-name="Gcircumflex" unicode="&#x11c;" horiz-adv-x="764" 
d="M311 761l116 131h80l80 -131h-80l-47 75l-67 -75h-82zM354 -9q-132 0 -216 86t-84 231q0 169 109.5 288.5t274.5 119.5q121 0 200.5 -62t93.5 -165h-90q-18 72 -73 109.5t-135 37.5q-125 0 -207.5 -92.5t-82.5 -230.5q0 -112 61 -177.5t163 -65.5q90 0 163.5 48t86.5 142
q0 7 1 15.5t2.5 18.5t2.5 16h-230l12 76h314l-54 -387h-68l4 99q-85 -107 -248 -107z" />
    <glyph glyph-name="gcircumflex" unicode="&#x11d;" horiz-adv-x="603" 
d="M336 650l-67 -75h-82l116 131h80l80 -131h-80zM494 506h72l-66 -485q-16 -118 -84 -174.5t-169 -56.5q-98 0 -158.5 46.5t-67.5 123.5h83q6 -47 45 -74t98 -27q72 0 115.5 39t53.5 110l12 83q-27 -37 -74 -58.5t-97 -21.5q-53 0 -98.5 21t-78 74t-32.5 130q0 120 71 200
t181 80q60 0 106 -26t67 -69zM271 82q76 0 128 58t52 146q0 74 -39.5 116t-104.5 42q-79 0 -126.5 -62.5t-47.5 -147.5q0 -80 41 -116t97 -36z" />
    <glyph glyph-name="Gbreve" unicode="&#x11e;" horiz-adv-x="764" 
d="M528 890h66q-5 -60 -44 -95.5t-99 -35.5t-94 36t-28 95h64q-3 -31 12.5 -49.5t44.5 -18.5q33 0 54 18t24 50zM354 -9q-132 0 -216 86t-84 231q0 169 109.5 288.5t274.5 119.5q121 0 200.5 -62t93.5 -165h-90q-18 72 -73 109.5t-135 37.5q-125 0 -207.5 -92.5
t-82.5 -230.5q0 -112 61 -177.5t163 -65.5q90 0 163.5 48t86.5 142q0 7 1 15.5t2.5 18.5t2.5 16h-230l12 76h314l-54 -387h-68l4 99q-85 -107 -248 -107z" />
    <glyph glyph-name="gbreve" unicode="&#x11f;" horiz-adv-x="603" 
d="M327 573q-60 0 -94 36t-28 95h64q-3 -31 12.5 -49.5t44.5 -18.5q33 0 54 18t24 50h66q-5 -60 -44 -95.5t-99 -35.5zM494 506h72l-66 -485q-16 -118 -84 -174.5t-169 -56.5q-98 0 -158.5 46.5t-67.5 123.5h83q6 -47 45 -74t98 -27q72 0 115.5 39t53.5 110l12 83
q-27 -37 -74 -58.5t-97 -21.5q-53 0 -98.5 21t-78 74t-32.5 130q0 120 71 200t181 80q60 0 106 -26t67 -69zM271 82q76 0 128 58t52 146q0 74 -39.5 116t-104.5 42q-79 0 -126.5 -62.5t-47.5 -147.5q0 -80 41 -116t97 -36z" />
    <glyph glyph-name="Gdotaccent" unicode="&#x120;" horiz-adv-x="764" 
d="M400 790l12 95h102l-12 -95h-102zM354 -9q-132 0 -216 86t-84 231q0 169 109.5 288.5t274.5 119.5q121 0 200.5 -62t93.5 -165h-90q-18 72 -73 109.5t-135 37.5q-125 0 -207.5 -92.5t-82.5 -230.5q0 -112 61 -177.5t163 -65.5q90 0 163.5 48t86.5 142q0 7 1 15.5
t2.5 18.5t2.5 16h-230l12 76h314l-54 -387h-68l4 99q-85 -107 -248 -107z" />
    <glyph glyph-name="gdotaccent" unicode="&#x121;" horiz-adv-x="603" 
d="M390 699l-12 -95h-102l12 95h102zM494 506h72l-66 -485q-16 -118 -84 -174.5t-169 -56.5q-98 0 -158.5 46.5t-67.5 123.5h83q6 -47 45 -74t98 -27q72 0 115.5 39t53.5 110l12 83q-27 -37 -74 -58.5t-97 -21.5q-53 0 -98.5 21t-78 74t-32.5 130q0 120 71 200t181 80
q60 0 106 -26t67 -69zM271 82q76 0 128 58t52 146q0 74 -39.5 116t-104.5 42q-79 0 -126.5 -62.5t-47.5 -147.5q0 -80 41 -116t97 -36z" />
    <glyph glyph-name="Gcommaaccent" unicode="&#x122;" horiz-adv-x="764" 
d="M394 310l12 76h314l-54 -387h-68l4 99q-85 -107 -248 -107q-132 0 -216 86t-84 231q0 169 109.5 288.5t274.5 119.5q121 0 200.5 -62t93.5 -165h-90q-18 72 -73 109.5t-135 37.5q-125 0 -207.5 -92.5t-82.5 -230.5q0 -112 61 -177.5t163 -65.5q90 0 163.5 48t86.5 142
q0 7 1 15.5t2.5 18.5t2.5 16h-230zM296 -144l12 89h92l-12 -89l-47 -85h-52l48 85h-41z" />
    <glyph glyph-name="gcommaaccent" unicode="&#x123;" horiz-adv-x="603" 
d="M386 676l-13 -89h-92l13 89l46 85h53l-51 -85h44zM494 506h72l-66 -485q-16 -118 -84 -174.5t-169 -56.5q-98 0 -158.5 46.5t-67.5 123.5h83q6 -47 45 -74t98 -27q72 0 115.5 39t53.5 110l12 83q-27 -37 -74 -58.5t-97 -21.5q-53 0 -98.5 21t-78 74t-32.5 130
q0 120 71 200t181 80q60 0 106 -26t67 -69zM271 82q76 0 128 58t52 146q0 74 -39.5 116t-104.5 42q-79 0 -126.5 -62.5t-47.5 -147.5q0 -80 41 -116t97 -36z" />
    <glyph glyph-name="Hcircumflex" unicode="&#x124;" horiz-adv-x="709" 
d="M285 759l116 131h80l80 -131h-80l-47 75l-67 -75h-82zM556 318h-386l-42 -318h-85l95 706h86l-42 -308h385l40 308h86l-94 -706h-86z" />
    <glyph glyph-name="hcircumflex" unicode="&#x125;" horiz-adv-x="582" 
d="M193 841l-67 -75h-82l116 131h80l80 -131h-80zM354 516q90 0 136 -58.5t33 -155.5l-41 -302h-82l37 286q11 80 -18 118t-87 38q-71 0 -118 -47t-58 -126l-37 -269h-82l100 736h83l-42 -302q27 37 74 59.5t102 22.5z" />
    <glyph glyph-name="Hbar" unicode="&#x126;" horiz-adv-x="726" 
d="M757 594l-8 -69h-74l-70 -525h-86l43 318h-386l-42 -318h-85l71 525h-65l9 69h65l15 112h86l-15 -112h383l15 112h86l-15 -112h73zM573 398l16 127h-384l-17 -127h385z" />
    <glyph glyph-name="hbar" unicode="&#x127;" horiz-adv-x="585" 
d="M356 516q90 0 136 -58.5t33 -155.5l-41 -302h-82l37 286q11 80 -18 118t-87 38q-71 0 -118 -47t-58 -126l-37 -269h-82l78 576h-58l10 69h58l12 91h83l-13 -91h162l-10 -69h-161l-20 -142q27 37 74 59.5t102 22.5z" />
    <glyph glyph-name="Itilde" unicode="&#x128;" horiz-adv-x="240" 
d="M141 880q28 0 64 -19.5t51 -19.5q33 0 41 37h53q-3 -49 -29 -76.5t-66 -27.5q-28 0 -64 19.5t-51 19.5q-35 0 -41 -38h-53q3 49 29 77t66 28zM224 706l-96 -706h-85l95 706h86z" />
    <glyph glyph-name="itilde" unicode="&#x129;" horiz-adv-x="225" 
d="M107 696q28 0 64 -19.5t51 -19.5q33 0 41 37h53q-3 -49 -29 -76.5t-66 -27.5q-28 0 -64 19.5t-51 19.5q-35 0 -41 -38h-53q3 49 29 77t66 28zM36 0l71 506h82l-71 -506h-82z" />
    <glyph glyph-name="Imacron" unicode="&#x12a;" horiz-adv-x="240" 
d="M65 846h279l-9 -63h-279zM224 706l-96 -706h-85l95 706h86z" />
    <glyph glyph-name="imacron" unicode="&#x12b;" horiz-adv-x="225" 
d="M30 662h279l-9 -63h-279zM36 0l71 506h82l-71 -506h-82z" />
    <glyph glyph-name="Ibreve" unicode="&#x12c;" horiz-adv-x="240" 
d="M269 888h66q-5 -60 -44 -95.5t-99 -35.5t-94 36t-28 95h64q-3 -31 12.5 -49.5t44.5 -18.5q33 0 54 18t24 50zM224 706l-96 -706h-85l95 706h86z" />
    <glyph glyph-name="ibreve" unicode="&#x12d;" horiz-adv-x="225" 
d="M235 704h66q-5 -60 -44 -95.5t-99 -35.5t-94 36t-28 95h64q-3 -31 12.5 -49.5t44.5 -18.5q33 0 54 18t24 50zM36 0l71 506h82l-71 -506h-82z" />
    <glyph glyph-name="Iogonek" unicode="&#x12e;" horiz-adv-x="240" 
d="M129 0q-82 -38 -82 -73q0 -24 29 -24q22 0 36 8l-7 -54q-24 -13 -55 -13t-51 16t-20 44q0 58 76 96h-12l95 706h86l-96 -706h1z" />
    <glyph glyph-name="iogonek" unicode="&#x12f;" horiz-adv-x="225" 
d="M123 711h103l-14 -96h-102zM37 0l68 506h82l-68 -506q-82 -38 -82 -73q0 -24 29 -24q22 0 36 8l-7 -54q-24 -13 -55 -13t-51 16t-20 44q0 58 76 96h-8z" />
    <glyph glyph-name="Idotaccent" unicode="&#x130;" horiz-adv-x="240" 
d="M141 788l12 95h102l-12 -95h-102zM224 706l-96 -706h-85l95 706h86z" />
    <glyph glyph-name="dotlessi" unicode="&#x131;" horiz-adv-x="225" 
d="M36 0l71 506h82l-71 -506h-82z" />
    <glyph glyph-name="IJ" unicode="&#x132;" horiz-adv-x="758" 
d="M224 706l-96 -706h-85l95 706h86zM315 203q-7 -62 23.5 -97.5t96.5 -35.5q129 0 147 131l67 505h85l-68 -515q-13 -95 -76.5 -148t-156.5 -53q-100 0 -157.5 58t-44.5 155h84z" />
    <glyph glyph-name="ij" unicode="&#x133;" horiz-adv-x="457" 
d="M110 615l13 96h103l-14 -96h-102zM343 615l13 96h103l-14 -96h-102zM37 0l68 506h82l-68 -506h-82zM340 -86q-8 -61 -41.5 -87.5t-99.5 -26.5h-68l10 74h56q32 0 45 11t17 40l79 581h82z" />
    <glyph glyph-name="Jcircumflex" unicode="&#x134;" horiz-adv-x="538" 
d="M350 759l116 131h80l80 -131h-80l-47 75l-67 -75h-82zM105 203q-7 -62 23.5 -97.5t96.5 -35.5q129 0 147 131l67 505h85l-68 -515q-13 -95 -76.5 -148t-156.5 -53q-100 0 -157.5 58t-44.5 155h84z" />
    <glyph glyph-name="jcircumflex" unicode="&#x135;" horiz-adv-x="238" 
d="M29 575l116 131h80l80 -131h-80l-47 75l-67 -75h-82zM118 -86q-8 -61 -41.5 -87.5t-99.5 -26.5h-68l10 74h56q32 0 45 11t17 40l79 581h82z" />
    <glyph glyph-name="Kcommaaccent" unicode="&#x136;" horiz-adv-x="644" 
d="M684 706l-313 -310l228 -396h-100l-194 335l-152 -148l-25 -187h-85l95 706h85l-53 -396l404 396h110zM243 -143l12 89h92l-12 -89l-47 -85h-52l48 85h-41z" />
    <glyph glyph-name="kcommaaccent" unicode="&#x137;" horiz-adv-x="514" 
d="M532 506l-246 -226l179 -280h-94l-145 229l-86 -78l-21 -151h-82l100 736h82l-65 -480l277 250h101zM182 -136l12 89h92l-12 -89l-47 -85h-52l48 85h-41z" />
    <glyph glyph-name="Lacute" unicode="&#x139;" horiz-adv-x="550" 
d="M150 759l98 131h91l-114 -131h-75zM140 81h360l-11 -81h-446l95 706h85z" />
    <glyph glyph-name="lacute" unicode="&#x13a;" horiz-adv-x="225" 
d="M145 773l98 131h91l-114 -131h-75zM37 0l100 736h82l-100 -736h-82z" />
    <glyph glyph-name="Lcommaaccent" unicode="&#x13b;" horiz-adv-x="550" 
d="M140 81h360l-11 -81h-446l95 706h85zM203 -147l12 89h92l-12 -89l-47 -85h-52l48 85h-41z" />
    <glyph glyph-name="lcommaaccent" unicode="&#x13c;" horiz-adv-x="225" 
d="M137 736h82l-100 -736h-82zM15 -136l12 89h92l-12 -89l-47 -85h-52l48 85h-41z" />
    <glyph glyph-name="Lcaron" unicode="&#x13d;" horiz-adv-x="550" 
d="M140 81h360l-11 -81h-446l95 706h85zM390 706l-49 -176h-56l23 176h82z" />
    <glyph glyph-name="lcaron" unicode="&#x13e;" horiz-adv-x="258" 
d="M37 0l100 736h82l-100 -736h-82zM361 736l-49 -176h-56l23 176h82z" />
    <glyph glyph-name="Ldot" unicode="&#x13f;" horiz-adv-x="553" 
d="M140 81h360l-11 -81h-446l95 706h85zM406 355q-21 0 -34.5 13t-13.5 34q0 23 16 39.5t39 16.5q20 0 34.5 -13.5t14.5 -34.5q0 -23 -16 -39t-40 -16z" />
    <glyph glyph-name="ldot" unicode="&#x140;" horiz-adv-x="337" 
d="M37 0l100 736h82l-100 -736h-82zM293 324q-21 0 -34.5 13t-13.5 34q0 23 16 39.5t39 16.5q20 0 34.5 -13.5t14.5 -34.5q0 -23 -16 -39t-40 -16z" />
    <glyph glyph-name="Lslash" unicode="&#x141;" horiz-adv-x="582" 
d="M168 81h360l-11 -81h-446l46 342l-102 -61l12 83l101 60l38 282h85l-30 -226l123 73l-11 -83l-123 -73z" />
    <glyph glyph-name="lslash" unicode="&#x142;" horiz-adv-x="248" 
d="M275 488l-11 -73l-83 -30l-52 -385h-82l47 354l-80 -29l10 74l80 28l41 310h83l-37 -279z" />
    <glyph glyph-name="Nacute" unicode="&#x143;" horiz-adv-x="709" 
d="M404 759l98 131h91l-114 -131h-75zM43 0l95 706h91l301 -577l78 577h85l-96 -706h-91l-301 573l-77 -573h-85z" />
    <glyph glyph-name="nacute" unicode="&#x144;" horiz-adv-x="580" 
d="M502 706l-114 -131h-75l98 131h91zM355 516q82 0 131.5 -53.5t34.5 -162.5l-40 -300h-83l40 293q11 85 -22.5 118t-85.5 33q-69 0 -116.5 -47.5t-58.5 -127.5l-36 -269h-82l68 506h72l-3 -78q28 41 76.5 64.5t104.5 23.5z" />
    <glyph glyph-name="Ncommaaccent" unicode="&#x145;" horiz-adv-x="709" 
d="M608 706h85l-96 -706h-91l-301 573l-77 -573h-85l95 706h91l301 -577zM258 -134l12 89h92l-12 -89l-47 -85h-52l48 85h-41z" />
    <glyph glyph-name="ncommaaccent" unicode="&#x146;" horiz-adv-x="580" 
d="M355 516q82 0 131.5 -53.5t34.5 -162.5l-40 -300h-83l40 293q11 85 -22.5 118t-85.5 33q-69 0 -116.5 -47.5t-58.5 -127.5l-36 -269h-82l68 506h72l-3 -78q28 41 76.5 64.5t104.5 23.5zM193 -136l12 89h92l-12 -89l-47 -85h-52l48 85h-41z" />
    <glyph glyph-name="Ncaron" unicode="&#x147;" horiz-adv-x="709" 
d="M600 890l-119 -131h-80l-79 131h79l47 -75l68 75h84zM43 0l95 706h91l301 -577l78 577h85l-96 -706h-91l-301 573l-77 -573h-85z" />
    <glyph glyph-name="ncaron" unicode="&#x148;" horiz-adv-x="580" 
d="M391 575h-80l-79 131h79l47 -75l68 75h84zM355 516q82 0 131.5 -53.5t34.5 -162.5l-40 -300h-83l40 293q11 85 -22.5 118t-85.5 33q-69 0 -116.5 -47.5t-58.5 -127.5l-36 -269h-82l68 506h72l-3 -78q28 41 76.5 64.5t104.5 23.5z" />
    <glyph glyph-name="Eng" unicode="&#x14a;" horiz-adv-x="710" 
d="M511 -2l-307 572l-76 -570h-85l95 706h92l302 -574l76 574h86l-108 -794q-9 -61 -42 -86.5t-99 -25.5h-68l10 76h51q32 0 45 11.5t17 39.5z" />
    <glyph glyph-name="eng" unicode="&#x14b;" horiz-adv-x="574" 
d="M380 -77l50 370q12 83 -21 115.5t-86 32.5q-70 0 -117 -46.5t-58 -125.5l-37 -269h-82l69 506h72l-2 -78q27 41 75.5 64.5t103.5 23.5q82 0 132 -53.5t35 -162.5l-53 -388q-17 -115 -144 -115h-66l10 75h57q30 0 43.5 12t18.5 39z" />
    <glyph glyph-name="Omacron" unicode="&#x14c;" horiz-adv-x="765" 
d="M319 848h279l-9 -63h-279zM54 316q0 166 112 283t265 117q138 0 222 -88t84 -236q0 -166 -112 -283t-265 -117q-137 0 -221.5 88.5t-84.5 235.5zM646 393q0 111 -60 176.5t-160 65.5q-114 0 -197.5 -93t-83.5 -226q0 -112 59 -177.5t160 -65.5q114 0 198 93.5t84 226.5z
" />
    <glyph glyph-name="omacron" unicode="&#x14d;" horiz-adv-x="602" 
d="M202 661h279l-9 -63h-279zM47 226q0 122 78.5 206t196.5 84q98 0 165 -63t67 -176q0 -121 -77.5 -204t-194.5 -83q-100 0 -167.5 62.5t-67.5 173.5zM280 61q81 0 136 62t55 154q0 80 -42 124.5t-108 44.5q-81 0 -135.5 -62.5t-54.5 -155.5q0 -80 41.5 -123.5t107.5 -43.5
z" />
    <glyph glyph-name="Obreve" unicode="&#x14e;" horiz-adv-x="765" 
d="M523 890h66q-5 -60 -44 -95.5t-99 -35.5t-94 36t-28 95h64q-3 -31 12.5 -49.5t44.5 -18.5q33 0 54 18t24 50zM54 316q0 166 112 283t265 117q138 0 222 -88t84 -236q0 -166 -112 -283t-265 -117q-137 0 -221.5 88.5t-84.5 235.5zM646 393q0 111 -60 176.5t-160 65.5
q-114 0 -197.5 -93t-83.5 -226q0 -112 59 -177.5t160 -65.5q114 0 198 93.5t84 226.5z" />
    <glyph glyph-name="obreve" unicode="&#x14f;" horiz-adv-x="602" 
d="M406 703h66q-5 -60 -44 -95.5t-99 -35.5t-94 36t-28 95h64q-3 -31 12.5 -49.5t44.5 -18.5q33 0 54 18t24 50zM47 226q0 122 78.5 206t196.5 84q98 0 165 -63t67 -176q0 -121 -77.5 -204t-194.5 -83q-100 0 -167.5 62.5t-67.5 173.5zM280 61q81 0 136 62t55 154
q0 80 -42 124.5t-108 44.5q-81 0 -135.5 -62.5t-54.5 -155.5q0 -80 41.5 -123.5t107.5 -43.5z" />
    <glyph glyph-name="Ohungarumlaut" unicode="&#x150;" horiz-adv-x="765" 
d="M345 761l98 131h89l-114 -131h-73zM472 761l119 131h89l-135 -131h-73zM54 316q0 166 112 283t265 117q138 0 222 -88t84 -236q0 -166 -112 -283t-265 -117q-137 0 -221.5 88.5t-84.5 235.5zM646 393q0 111 -60 176.5t-160 65.5q-114 0 -197.5 -93t-83.5 -226
q0 -112 59 -177.5t160 -65.5q114 0 198 93.5t84 226.5z" />
    <glyph glyph-name="ohungarumlaut" unicode="&#x151;" horiz-adv-x="602" 
d="M229 574l98 131h89l-114 -131h-73zM356 574l119 131h89l-135 -131h-73zM47 226q0 122 78.5 206t196.5 84q98 0 165 -63t67 -176q0 -121 -77.5 -204t-194.5 -83q-100 0 -167.5 62.5t-67.5 173.5zM280 61q81 0 136 62t55 154q0 80 -42 124.5t-108 44.5q-81 0 -135.5 -62.5
t-54.5 -155.5q0 -80 41.5 -123.5t107.5 -43.5z" />
    <glyph glyph-name="OE" unicode="&#x152;" horiz-adv-x="1145" 
d="M1143 627h-366l-33 -233h286l-11 -77h-285l-34 -238h386l-11 -79h-472l15 100q-41 -50 -109 -79.5t-141 -29.5q-82 0 -150.5 35t-113.5 111.5t-45 182.5q0 165 103 280.5t265 115.5q85 0 151.5 -37.5t105.5 -104.5l18 132h452zM378 72q114 0 192.5 87t78.5 222
q0 118 -61.5 186t-162.5 68q-120 0 -197.5 -92t-77.5 -221q0 -116 64.5 -183t163.5 -67z" />
    <glyph glyph-name="oe" unicode="&#x153;" horiz-adv-x="1015" 
d="M753 516q111 0 170 -70.5t45 -180.5l-4 -35h-408q-10 -81 31 -125.5t112 -44.5q57 0 101 26.5t65 72.5h82q-29 -78 -95 -122.5t-154 -44.5q-70 0 -123.5 32.5t-73.5 88.5q-31 -56 -90.5 -89.5t-131.5 -33.5q-99 0 -165 63.5t-66 175.5q0 122 81 204.5t198 82.5
q67 0 121.5 -34t81.5 -92q32 59 91.5 92.5t131.5 33.5zM887 290q7 76 -31.5 117.5t-106.5 41.5t-119.5 -42t-66.5 -117h324zM287 60q78 0 134.5 60t56.5 147q0 82 -43.5 130t-113.5 48q-82 0 -135 -62t-53 -155q0 -81 42 -124.5t112 -43.5z" />
    <glyph glyph-name="Racute" unicode="&#x154;" horiz-adv-x="653" 
d="M316 759l98 131h91l-114 -131h-75zM43 0l95 706h274q113 0 171.5 -56t58.5 -150q0 -89 -53 -150t-146 -82l109 -268h-95l-103 257h-191l-35 -257h-85zM173 334h181q94 0 145.5 43t51.5 123q0 63 -35.5 95.5t-103.5 32.5h-200z" />
    <glyph glyph-name="racute" unicode="&#x155;" horiz-adv-x="372" 
d="M415 706l-114 -131h-75l98 131h91zM180 444q36 62 129 62h72l-10 -76h-72q-120 0 -140 -139l-40 -291h-82l69 506h72z" />
    <glyph glyph-name="Rcommaaccent" unicode="&#x156;" horiz-adv-x="653" 
d="M642 500q0 -89 -53 -150t-146 -82l109 -268h-95l-103 257h-191l-35 -257h-85l95 706h274q113 0 171.5 -56t58.5 -150zM354 334q94 0 145.5 43t51.5 123q0 63 -35.5 95.5t-103.5 32.5h-200l-39 -294h181zM219 -134l12 89h92l-12 -89l-47 -85h-52l48 85h-41z" />
    <glyph glyph-name="rcommaaccent" unicode="&#x157;" horiz-adv-x="372" 
d="M309 506h72l-10 -76h-72q-120 0 -140 -139l-40 -291h-82l69 506h72l2 -62q36 62 129 62zM19 -134l12 89h92l-12 -89l-47 -85h-52l48 85h-41z" />
    <glyph glyph-name="Rcaron" unicode="&#x158;" horiz-adv-x="653" 
d="M513 890l-119 -131h-80l-79 131h79l47 -75l68 75h84zM43 0l95 706h274q113 0 171.5 -56t58.5 -150q0 -89 -53 -150t-146 -82l109 -268h-95l-103 257h-191l-35 -257h-85zM173 334h181q94 0 145.5 43t51.5 123q0 63 -35.5 95.5t-103.5 32.5h-200z" />
    <glyph glyph-name="rcaron" unicode="&#x159;" horiz-adv-x="372" 
d="M303 575h-80l-79 131h79l47 -75l68 75h84zM180 444q36 62 129 62h72l-10 -76h-72q-120 0 -140 -139l-40 -291h-82l69 506h72z" />
    <glyph glyph-name="Sacute" unicode="&#x15a;" horiz-adv-x="607" 
d="M349 761l98 131h91l-114 -131h-75zM276 -10q-118 0 -188.5 55.5t-62.5 148.5h87q-4 -58 38.5 -93.5t128.5 -35.5q80 0 132 35.5t52 94.5q0 87 -110 110l-98 22q-172 36 -172 179q0 96 73 153t188 57q113 0 182 -53t63 -151h-87q5 60 -36 95t-123 35q-74 0 -121.5 -35
t-47.5 -93q0 -86 112 -109l99 -21q169 -36 169 -182q0 -100 -81 -156t-197 -56z" />
    <glyph glyph-name="sacute" unicode="&#x15b;" horiz-adv-x="502" 
d="M240 575l98 131h91l-114 -131h-75zM24 149h81q5 -95 122 -95q58 0 92.5 23t34.5 63q0 32 -20.5 48.5t-64.5 27.5l-73 18q-133 31 -133 128q0 70 57.5 112t149.5 42q90 0 141.5 -43t49.5 -115h-79q1 45 -30 69.5t-86 24.5t-87 -22.5t-32 -58.5q0 -32 19.5 -45.5
t64.5 -24.5l73 -18q73 -18 104 -50.5t31 -84.5q0 -74 -61 -116t-156 -42q-90 0 -144 42t-54 117z" />
    <glyph glyph-name="Scircumflex" unicode="&#x15c;" horiz-adv-x="607" 
d="M205 761l116 131h80l80 -131h-80l-47 75l-67 -75h-82zM276 -10q-118 0 -188.5 55.5t-62.5 148.5h87q-4 -58 38.5 -93.5t128.5 -35.5q80 0 132 35.5t52 94.5q0 87 -110 110l-98 22q-172 36 -172 179q0 96 73 153t188 57q113 0 182 -53t63 -151h-87q5 60 -36 95t-123 35
q-74 0 -121.5 -35t-47.5 -93q0 -86 112 -109l99 -21q169 -36 169 -182q0 -100 -81 -156t-197 -56z" />
    <glyph glyph-name="scircumflex" unicode="&#x15d;" horiz-adv-x="502" 
d="M138 575l116 131h80l80 -131h-80l-47 75l-67 -75h-82zM24 149h81q5 -95 122 -95q58 0 92.5 23t34.5 63q0 32 -20.5 48.5t-64.5 27.5l-73 18q-133 31 -133 128q0 70 57.5 112t149.5 42q90 0 141.5 -43t49.5 -115h-79q1 45 -30 69.5t-86 24.5t-87 -22.5t-32 -58.5
q0 -32 19.5 -45.5t64.5 -24.5l73 -18q73 -18 104 -50.5t31 -84.5q0 -74 -61 -116t-156 -42q-90 0 -144 42t-54 117z" />
    <glyph glyph-name="Scedilla" unicode="&#x15e;" horiz-adv-x="607" 
d="M589 512h-87q5 60 -36 95t-123 35q-74 0 -121.5 -35t-47.5 -93q0 -86 112 -109l99 -21q169 -36 169 -182q0 -100 -81 -156t-197 -56h-10l-17 -32q33 2 53 -15t20 -46q0 -33 -25.5 -52t-67.5 -19q-36 0 -57.5 19t-20.5 48h52q-1 -11 7.5 -17.5t21.5 -6.5q32 0 32 26
q0 17 -14 23.5t-35 1.5l-21 11l32 62q-97 11 -152.5 65t-48.5 136h87q-4 -58 38.5 -93.5t128.5 -35.5q80 0 132 35.5t52 94.5q0 87 -110 110l-98 22q-172 36 -172 179q0 96 73 153t188 57q113 0 182 -53t63 -151z" />
    <glyph glyph-name="scedilla" unicode="&#x15f;" horiz-adv-x="502" 
d="M461 358h-79q1 45 -30 69.5t-86 24.5t-87 -22.5t-32 -58.5q0 -32 19.5 -45.5t64.5 -24.5l73 -18q73 -18 104 -50.5t31 -84.5q0 -71 -55 -112t-143 -46l-16 -30q33 2 53 -15t20 -46q0 -33 -25.5 -52t-67.5 -19q-36 0 -57.5 19t-20.5 48h52q-1 -11 7.5 -17.5t21.5 -6.5
q32 0 32 26q0 17 -14 23.5t-35 1.5l-21 11l30 58q-81 5 -128.5 46t-47.5 112h81q5 -95 122 -95q58 0 92.5 23t34.5 63q0 32 -20.5 48.5t-64.5 27.5l-73 18q-133 31 -133 128q0 70 57.5 112t149.5 42q90 0 141.5 -43t49.5 -115z" />
    <glyph glyph-name="Scaron" unicode="&#x160;" horiz-adv-x="607" 
d="M545 892l-119 -131h-80l-79 131h79l47 -75l68 75h84zM276 -10q-118 0 -188.5 55.5t-62.5 148.5h87q-4 -58 38.5 -93.5t128.5 -35.5q80 0 132 35.5t52 94.5q0 87 -110 110l-98 22q-172 36 -172 179q0 96 73 153t188 57q113 0 182 -53t63 -151h-87q5 60 -36 95t-123 35
q-74 0 -121.5 -35t-47.5 -93q0 -86 112 -109l99 -21q169 -36 169 -182q0 -100 -81 -156t-197 -56z" />
    <glyph glyph-name="scaron" unicode="&#x161;" horiz-adv-x="502" 
d="M436 706l-119 -131h-80l-79 131h79l47 -75l68 75h84zM24 149h81q5 -95 122 -95q58 0 92.5 23t34.5 63q0 32 -20.5 48.5t-64.5 27.5l-73 18q-133 31 -133 128q0 70 57.5 112t149.5 42q90 0 141.5 -43t49.5 -115h-79q1 45 -30 69.5t-86 24.5t-87 -22.5t-32 -58.5
q0 -32 19.5 -45.5t64.5 -24.5l73 -18q73 -18 104 -50.5t31 -84.5q0 -74 -61 -116t-156 -42q-90 0 -144 42t-54 117z" />
    <glyph glyph-name="uni0162" unicode="&#x162;" horiz-adv-x="620" 
d="M83 706h574l-10 -79h-246l-88 -627h-85l89 627h-245zM214 -137l12 89h92l-12 -89l-47 -85h-52l48 85h-41z" />
    <glyph glyph-name="uni0163" unicode="&#x163;" horiz-adv-x="339" 
d="M207 433l-41 -301q-4 -32 6 -45t43 -13h61l-10 -74h-79q-121 0 -104 130l42 303h-92l10 73h46q25 0 36.5 8t14.5 30l12 94h82l-17 -132h118l-10 -73h-118zM109 -134l12 89h92l-12 -89l-47 -85h-52l48 85h-41z" />
    <glyph glyph-name="Tcaron" unicode="&#x164;" horiz-adv-x="620" 
d="M536 890l-119 -131h-80l-79 131h79l47 -75l68 75h84zM401 627l-88 -627h-85l89 627h-245l11 79h574l-10 -79h-246z" />
    <glyph glyph-name="tcaron" unicode="&#x165;" horiz-adv-x="341" 
d="M379 736l-49 -176h-56l23 176h82zM33 433l10 73h46q25 0 36.5 8t14.5 30l12 94h82l-17 -132h118l-10 -73h-118l-41 -301q-4 -32 6 -45t43 -13h61l-10 -74h-79q-121 0 -104 130l42 303h-92z" />
    <glyph glyph-name="Tbar" unicode="&#x166;" horiz-adv-x="619" 
d="M647 627h-246l-33 -234h108l-10 -71h-108l-45 -322h-85l46 322h-109l10 71h109l33 234h-245l11 79h574z" />
    <glyph glyph-name="tbar" unicode="&#x167;" horiz-adv-x="355" 
d="M332 433h-118l-16 -120h121l-9 -68h-122l-15 -113q-4 -32 6 -45t43 -13h61l-10 -74h-79q-121 0 -104 130l16 115h-85l9 68h85l17 120h-92l10 73h46q25 0 36.5 8t14.5 30l12 94h82l-17 -132h118z" />
    <glyph glyph-name="Utilde" unicode="&#x168;" horiz-adv-x="694" 
d="M364 880q28 0 64 -19.5t51 -19.5q33 0 41 37h53q-3 -49 -29 -76.5t-66 -27.5q-28 0 -64 19.5t-51 19.5q-35 0 -41 -38h-53q3 49 29 77t66 28zM216 706l-57 -424q-13 -98 33 -156t137 -58q183 0 211 202l57 436h86l-60 -446q-17 -129 -93 -199.5t-203 -70.5
q-128 0 -200 79.5t-53 218.5l56 418h86z" />
    <glyph glyph-name="utilde" unicode="&#x169;" 
d="M275 629q-35 0 -41 -38h-53q3 49 29 77t66 28q28 0 64 -19.5t51 -19.5q33 0 41 37h53q-3 -49 -29 -76.5t-66 -27.5q-28 0 -64 19.5t-51 19.5zM453 506h79l-69 -506h-71l2 77q-27 -42 -72 -64.5t-98 -22.5q-84 0 -132.5 58t-34.5 160l41 298h81l-40 -297q-10 -71 20 -109
t90 -38q68 0 112.5 46t54.5 121z" />
    <glyph glyph-name="Umacron" unicode="&#x16a;" horiz-adv-x="694" 
d="M287 846h279l-9 -63h-279zM216 706l-57 -424q-13 -98 33 -156t137 -58q183 0 211 202l57 436h86l-60 -446q-17 -129 -93 -199.5t-203 -70.5q-128 0 -200 79.5t-53 218.5l56 418h86z" />
    <glyph glyph-name="umacron" unicode="&#x16b;" 
d="M478 662l-9 -63h-279l9 63h279zM453 506h79l-69 -506h-71l2 77q-27 -42 -72 -64.5t-98 -22.5q-84 0 -132.5 58t-34.5 160l41 298h81l-40 -297q-10 -71 20 -109t90 -38q68 0 112.5 46t54.5 121z" />
    <glyph glyph-name="Ubreve" unicode="&#x16c;" horiz-adv-x="694" 
d="M492 888h66q-5 -60 -44 -95.5t-99 -35.5t-94 36t-28 95h64q-3 -31 12.5 -49.5t44.5 -18.5q33 0 54 18t24 50zM216 706l-57 -424q-13 -98 33 -156t137 -58q183 0 211 202l57 436h86l-60 -446q-17 -129 -93 -199.5t-203 -70.5q-128 0 -200 79.5t-53 218.5l56 418h86z" />
    <glyph glyph-name="ubreve" unicode="&#x16d;" 
d="M327 573q-60 0 -94 36t-28 95h64q-3 -31 12.5 -49.5t44.5 -18.5q33 0 54 18t24 50h66q-5 -60 -44 -95.5t-99 -35.5zM453 506h79l-69 -506h-71l2 77q-27 -42 -72 -64.5t-98 -22.5q-84 0 -132.5 58t-34.5 160l41 298h81l-40 -297q-10 -71 20 -109t90 -38q68 0 112.5 46
t54.5 121z" />
    <glyph glyph-name="Uring" unicode="&#x16e;" horiz-adv-x="694" 
d="M410 725q-46 0 -76.5 29.5t-30.5 76.5q0 49 33.5 82.5t82.5 33.5q47 0 77 -29.5t30 -76.5q0 -50 -34 -83t-82 -33zM412 778q26 0 42 18t16 44q0 24 -14 39.5t-38 15.5q-27 0 -43 -18t-16 -46q0 -25 15.5 -39t37.5 -14zM216 706l-57 -424q-13 -98 33 -156t137 -58
q183 0 211 202l57 436h86l-60 -446q-17 -129 -93 -199.5t-203 -70.5q-128 0 -200 79.5t-53 218.5l56 418h86z" />
    <glyph glyph-name="uring" unicode="&#x16f;" 
d="M322 541q-46 0 -76.5 29.5t-30.5 76.5q0 49 33.5 82.5t82.5 33.5q47 0 77 -29.5t30 -76.5q0 -50 -34 -83t-82 -33zM330 711q-27 0 -43 -18t-16 -46q0 -25 15.5 -39t37.5 -14q26 0 42 18t16 44q0 24 -14 39.5t-38 15.5zM453 506h79l-69 -506h-71l2 77q-27 -42 -72 -64.5
t-98 -22.5q-84 0 -132.5 58t-34.5 160l41 298h81l-40 -297q-10 -71 20 -109t90 -38q68 0 112.5 46t54.5 121z" />
    <glyph glyph-name="Uhungarumlaut" unicode="&#x170;" horiz-adv-x="694" 
d="M314 759l98 131h89l-114 -131h-73zM441 759l119 131h89l-135 -131h-73zM216 706l-57 -424q-13 -98 33 -156t137 -58q183 0 211 202l57 436h86l-60 -446q-17 -129 -93 -199.5t-203 -70.5q-128 0 -200 79.5t-53 218.5l56 418h86z" />
    <glyph glyph-name="uhungarumlaut" unicode="&#x171;" 
d="M413 706l-114 -131h-73l98 131h89zM426 575h-73l119 131h89zM416 229l37 277h79l-69 -506h-71l2 77q-27 -42 -72 -64.5t-98 -22.5q-84 0 -132.5 58t-34.5 160l41 298h81l-40 -297q-10 -71 20 -109t90 -38q68 0 112.5 46t54.5 121z" />
    <glyph glyph-name="Uogonek" unicode="&#x172;" horiz-adv-x="694" 
d="M597 706h86l-60 -446q-15 -117 -79 -185.5t-170 -81.5q-77 -36 -77 -71q0 -24 29 -24q22 0 36 8l-7 -54q-24 -13 -55 -13t-51 16t-20 44q0 56 69 92q-116 9 -178.5 88t-45.5 209l56 418h86l-57 -424q-13 -98 33 -156t137 -58q183 0 211 202z" />
    <glyph glyph-name="uogonek" unicode="&#x173;" 
d="M463 0q-82 -38 -82 -73q0 -24 29 -24q22 0 36 8l-7 -54q-24 -13 -55 -13t-51 16t-20 44q0 59 79 97l2 76q-27 -42 -72 -64.5t-98 -22.5q-84 0 -132.5 58t-34.5 160l41 298h81l-40 -297q-10 -71 20 -109t90 -38q68 0 112.5 46t54.5 121l37 277h79z" />
    <glyph glyph-name="Wcircumflex" unicode="&#x174;" horiz-adv-x="978" 
d="M419 759l116 131h80l80 -131h-80l-47 75l-67 -75h-82zM166 0l-90 706h90l69 -590l266 590h99l68 -590l262 590h92l-318 -706h-100l-73 585l-265 -585h-100z" />
    <glyph glyph-name="wcircumflex" unicode="&#x175;" horiz-adv-x="775" 
d="M291 575l116 131h80l80 -131h-80l-47 75l-67 -75h-82zM138 506l53 -411l186 411h87l75 -411l164 411h86l-213 -506h-94l-72 412l-188 -412h-94l-75 506h85z" />
    <glyph glyph-name="Ycircumflex" unicode="&#x176;" horiz-adv-x="630" 
d="M242 759l116 131h80l80 -131h-80l-47 75l-67 -75h-82zM267 241l-196 465h94l154 -373l258 373h102l-327 -465l-34 -241h-84z" />
    <glyph glyph-name="ycircumflex" unicode="&#x177;" horiz-adv-x="518" 
d="M160 575l116 131h80l80 -131h-80l-47 75l-67 -75h-82zM131 506l101 -451l220 452l90 -1l-303 -605q-30 -62 -72.5 -81.5t-108.5 -19.5h-92l10 74h90q52 0 78 26t26 69q0 14 -4 34l-119 503h84z" />
    <glyph glyph-name="Ydieresis" unicode="&#x178;" horiz-adv-x="630" 
d="M243 773l13 91h98l-12 -91h-99zM424 773l12 91h99l-12 -91h-99zM267 241l-196 465h94l154 -373l258 373h102l-327 -465l-34 -241h-84z" />
    <glyph glyph-name="Zacute" unicode="&#x179;" horiz-adv-x="589" 
d="M326 759l98 131h91l-114 -131h-75zM119 79h408l-11 -79h-515l11 72l475 555h-390l12 79h495l-10 -72z" />
    <glyph glyph-name="zacute" unicode="&#x17a;" horiz-adv-x="496" 
d="M253 567l98 131h91l-114 -131h-75zM128 73h297l-10 -73h-402l10 72l346 360h-298l10 74h402l-10 -72z" />
    <glyph glyph-name="Zdotaccent" unicode="&#x17b;" horiz-adv-x="589" 
d="M313 788l12 95h102l-12 -95h-102zM119 79h408l-11 -79h-515l11 72l475 555h-390l12 79h495l-10 -72z" />
    <glyph glyph-name="zdotaccent" unicode="&#x17c;" horiz-adv-x="496" 
d="M240 596l12 95h102l-12 -95h-102zM128 73h297l-10 -73h-402l10 72l346 360h-298l10 74h402l-10 -72z" />
    <glyph glyph-name="Zcaron" unicode="&#x17d;" horiz-adv-x="589" 
d="M522 890l-119 -131h-80l-79 131h79l47 -75l68 75h84zM119 79h408l-11 -79h-515l11 72l475 555h-390l12 79h495l-10 -72z" />
    <glyph glyph-name="zcaron" unicode="&#x17e;" horiz-adv-x="496" 
d="M450 698l-119 -131h-80l-79 131h79l47 -75l68 75h84zM128 73h297l-10 -73h-402l10 72l346 360h-298l10 74h402l-10 -72z" />
    <glyph glyph-name="florin" unicode="&#x192;" horiz-adv-x="553" 
d="M489 706h71l-10 -73h-55q-45 0 -63.5 -16t-30.5 -49l-63 -192h143l-10 -72h-157l-101 -307q-24 -72 -60.5 -96t-103.5 -24h-58l11 73h44q40 0 59 12t31 47l97 295h-124l10 72h138l71 214q21 63 59 89.5t102 26.5z" />
    <glyph glyph-name="Aringacute" unicode="&#x1fa;" horiz-adv-x="657" 
d="M562 1050l-114 -131h-75l98 131h91zM523 0l-41 175h-321l-91 -175h-93l357 680q-46 30 -46 89q0 49 33.5 82.5t82.5 33.5q47 0 77 -29.5t30 -76.5q0 -35 -17.5 -62.5t-46.5 -41.5l165 -675h-89zM403 833q-27 0 -43 -18t-16 -46q0 -25 15.5 -39t37.5 -14q26 0 42 18t16 44
q0 24 -14 39.5t-38 15.5zM199 248h265l-83 351z" />
    <glyph glyph-name="aringacute" unicode="&#x1fb;" horiz-adv-x="562" 
d="M480 846l-114 -131h-75l98 131h91zM483 64h26l-9 -64h-56q-33 0 -49 16.5t-15 56.5q-28 -38 -76 -60.5t-105 -22.5q-79 0 -125.5 37.5t-46.5 105.5q0 66 49 112t150 46h176l4 28q18 129 -111 129q-57 0 -94 -26t-46 -71h-77q12 61 51.5 101.5t100.5 55.5q-23 30 -23 68
q0 49 33.5 82.5t82.5 33.5q47 0 77 -29.5t30 -76.5q0 -54 -37 -86q114 -47 95 -188l-29 -209q-4 -23 2 -31t22 -8zM322 640q-27 0 -43 -18t-16 -46q0 -25 15.5 -39t37.5 -14q26 0 42 18t16 44q0 24 -14 39.5t-38 15.5zM390 198l4 32h-164q-63 0 -90 -25.5t-27 -65.5
q0 -81 109 -81q61 0 110 35.5t58 104.5z" />
    <glyph glyph-name="AEacute" unicode="&#x1fc;" horiz-adv-x="984" 
d="M687 775l98 131h91l-114 -131h-75zM-33 0l544 706h482l-11 -79h-358l-33 -233h270l-11 -77h-269l-34 -238h378l-11 -79h-462l25 177h-273l-136 -177h-101zM260 252h228l51 361z" />
    <glyph glyph-name="aeacute" unicode="&#x1fd;" horiz-adv-x="938" 
d="M629 704l-114 -131h-75l98 131h91zM671 516q112 0 173 -71.5t46 -184.5l-4 -33h-411q-9 -81 32 -124t111 -43q55 0 101 27t65 72h84q-27 -78 -95 -123t-156 -45q-71 0 -122.5 31t-75.5 90q-24 -54 -82 -88t-133 -34q-79 0 -128.5 37t-49.5 102q0 63 47.5 109.5
t147.5 46.5h179l4 29q9 68 -23.5 101.5t-92.5 33.5q-58 0 -95 -29t-46 -73h-75q16 80 77 124.5t142 44.5q61 0 106.5 -25t65.5 -73q77 98 208 98zM813 288q7 76 -33.5 118.5t-109.5 42.5q-68 0 -120 -42.5t-67 -118.5h330zM389 207l2 17h-166q-60 0 -86 -25t-26 -62
q0 -43 30.5 -61.5t74.5 -18.5q65 0 114 37.5t57 112.5z" />
    <glyph glyph-name="Oslashacute" unicode="&#x1fe;" horiz-adv-x="774" 
d="M554 892l-114 -131h-75l98 131h91zM644 641q98 -89 98 -249q0 -166 -112 -283t-265 -117q-86 0 -154 37l-25 -36h-80l52 73q-99 90 -99 250q0 166 111.5 283t264.5 117q87 0 156 -37l23 33h80zM149 316q0 -114 59 -179l334 473q-49 26 -111 26q-115 0 -198.5 -93.5
t-83.5 -226.5zM369 72q115 0 198.5 93.5t83.5 227.5q0 110 -58 176l-333 -472q48 -25 109 -25z" />
    <glyph glyph-name="Scommaaccent" unicode="&#x218;" horiz-adv-x="607" 
d="M589 512h-87q5 60 -36 95t-123 35q-74 0 -121.5 -35t-47.5 -93q0 -86 112 -109l99 -21q169 -36 169 -182q0 -100 -81 -156t-197 -56q-118 0 -188.5 55.5t-62.5 148.5h87q-4 -58 38.5 -93.5t128.5 -35.5q80 0 132 35.5t52 94.5q0 87 -110 110l-98 22q-172 36 -172 179
q0 96 73 153t188 57q113 0 182 -53t63 -151zM190 -140l12 89h92l-12 -89l-47 -85h-52l48 85h-41z" />
    <glyph glyph-name="scommaaccent" unicode="&#x219;" horiz-adv-x="502" 
d="M461 358h-79q1 45 -30 69.5t-86 24.5t-87 -22.5t-32 -58.5q0 -32 19.5 -45.5t64.5 -24.5l73 -18q73 -18 104 -50.5t31 -84.5q0 -74 -61 -116t-156 -42q-90 0 -144 42t-54 117h81q5 -95 122 -95q58 0 92.5 23t34.5 63q0 32 -20.5 48.5t-64.5 27.5l-73 18q-133 31 -133 128
q0 70 57.5 112t149.5 42q90 0 141.5 -43t49.5 -115zM158 -138l12 89h92l-12 -89l-47 -85h-52l48 85h-41z" />
    <glyph glyph-name="uni021A" unicode="&#x21a;" horiz-adv-x="620" 
d="M83 706h574l-10 -79h-246l-88 -627h-85l89 627h-245zM214 -137l12 89h92l-12 -89l-47 -85h-52l48 85h-41z" />
    <glyph glyph-name="uni021B" unicode="&#x21b;" horiz-adv-x="339" 
d="M207 433l-41 -301q-4 -32 6 -45t43 -13h61l-10 -74h-79q-121 0 -104 130l42 303h-92l10 73h46q25 0 36.5 8t14.5 30l12 94h82l-17 -132h118l-10 -73h-118zM109 -134l12 89h92l-12 -89l-47 -85h-52l48 85h-41z" />
    <glyph glyph-name="uni0237" unicode="&#x237;" horiz-adv-x="238" 
d="M118 -86q-8 -61 -41.5 -87.5t-99.5 -26.5h-68l10 74h56q32 0 45 11t17 40l79 581h82z" />
    <glyph glyph-name="uni02BB" unicode="&#x2bb;" horiz-adv-x="148" 
d="M187 779l-51 -85h44l-13 -89h-92l13 89l46 85h53z" />
    <glyph glyph-name="uni02BC" unicode="&#x2bc;" horiz-adv-x="267" 
d="M258 736l-49 -176h-56l23 176h82z" />
    <glyph glyph-name="circumflex" unicode="&#x2c6;" horiz-adv-x="343" 
d="M78 600l116 131h80l80 -131h-80l-47 75l-67 -75h-82z" />
    <glyph glyph-name="caron" unicode="&#x2c7;" horiz-adv-x="345" 
d="M375 731l-119 -131h-80l-79 131h79l47 -75l68 75h84z" />
    <glyph glyph-name="breve" unicode="&#x2d8;" horiz-adv-x="304" 
d="M282 731h66q-5 -60 -44 -95.5t-99 -35.5t-94 36t-28 95h64q-3 -31 12.5 -49.5t44.5 -18.5q33 0 54 18t24 50z" />
    <glyph glyph-name="dotaccent" unicode="&#x2d9;" horiz-adv-x="196" 
d="M99 630l12 95h102l-12 -95h-102z" />
    <glyph glyph-name="ring" unicode="&#x2da;" horiz-adv-x="266" 
d="M181 542q-46 0 -76.5 29.5t-30.5 76.5q0 49 33.5 82.5t82.5 33.5q47 0 77 -29.5t30 -76.5q0 -50 -34 -83t-82 -33zM183 595q26 0 42 18t16 44q0 24 -14 39.5t-38 15.5q-27 0 -43 -18t-16 -46q0 -25 15.5 -39t37.5 -14z" />
    <glyph glyph-name="ogonek" unicode="&#x2db;" horiz-adv-x="224" 
d="M124 -143q-24 -13 -55 -13t-51 16t-20 44q0 65 96 105l54 -9q-82 -38 -82 -73q0 -24 29 -24q22 0 36 8z" />
    <glyph glyph-name="tilde" unicode="&#x2dc;" horiz-adv-x="333" 
d="M178 721q28 0 64 -19.5t51 -19.5q33 0 41 37h53q-3 -49 -29 -76.5t-66 -27.5q-28 0 -64 19.5t-51 19.5q-35 0 -41 -38h-53q3 49 29 77t66 28z" />
    <glyph glyph-name="hungarumlaut" unicode="&#x2dd;" horiz-adv-x="354" 
d="M81 600l98 131h89l-114 -131h-73zM208 600l119 131h89l-135 -131h-73z" />
    <glyph glyph-name="uni0326" unicode="&#x326;" horiz-adv-x="0" 
d="M-180 -14h92l-12 -89l-47 -85h-52l48 85h-41z" />
    <glyph glyph-name="uni0335" unicode="&#x335;" horiz-adv-x="0" 
d="M-294 318h301l-10 -71h-301z" />
    <glyph glyph-name="uni0336" unicode="&#x336;" horiz-adv-x="0" 
d="M-583 316h507l-6 -69h-507z" />
    <glyph glyph-name="uni0337" unicode="&#x337;" horiz-adv-x="0" 
d="M-500 -26l488 556h75l-487 -556h-76z" />
    <glyph glyph-name="uni0338" unicode="&#x338;" horiz-adv-x="0" 
d="M-591 -7l557 719h80l-557 -719h-80z" />
    <glyph glyph-name="pi" unicode="&#x3c0;" horiz-adv-x="672" 
d="M633 438h-107v-312q0 -44 46 -44h61v-82h-68q-58 0 -89.5 31t-31.5 88l-1 319h-198v-438h-83v438h-99v78h570v-78z" />
    <glyph glyph-name="Wgrave" unicode="&#x1e80;" horiz-adv-x="978" 
d="M593 759h-74l-115 131h91zM166 0l-90 706h90l69 -590l266 590h99l68 -590l262 590h92l-318 -706h-100l-73 585l-265 -585h-100z" />
    <glyph glyph-name="wgrave" unicode="&#x1e81;" horiz-adv-x="775" 
d="M466 575h-74l-115 131h91zM138 506l53 -411l186 411h87l75 -411l164 411h86l-213 -506h-94l-72 412l-188 -412h-94l-75 506h85z" />
    <glyph glyph-name="Wacute" unicode="&#x1e82;" horiz-adv-x="978" 
d="M520 759l98 131h91l-114 -131h-75zM166 0l-90 706h90l69 -590l266 590h99l68 -590l262 590h92l-318 -706h-100l-73 585l-265 -585h-100z" />
    <glyph glyph-name="wacute" unicode="&#x1e83;" horiz-adv-x="775" 
d="M393 575l98 131h91l-114 -131h-75zM138 506l53 -411l186 411h87l75 -411l164 411h86l-213 -506h-94l-72 412l-188 -412h-94l-75 506h85z" />
    <glyph glyph-name="Wdieresis" unicode="&#x1e84;" horiz-adv-x="978" 
d="M420 773l13 91h98l-12 -91h-99zM601 773l12 91h99l-12 -91h-99zM166 0l-90 706h90l69 -590l266 590h99l68 -590l262 590h92l-318 -706h-100l-73 585l-265 -585h-100z" />
    <glyph glyph-name="wdieresis" unicode="&#x1e85;" horiz-adv-x="775" 
d="M293 589l13 91h98l-12 -91h-99zM474 589l12 91h99l-12 -91h-99zM138 506l53 -411l186 411h87l75 -411l164 411h86l-213 -506h-94l-72 412l-188 -412h-94l-75 506h85z" />
    <glyph glyph-name="Ygrave" unicode="&#x1ef2;" horiz-adv-x="630" 
d="M416 759h-74l-115 131h91zM267 241l-196 465h94l154 -373l258 373h102l-327 -465l-34 -241h-84z" />
    <glyph glyph-name="ygrave" unicode="&#x1ef3;" horiz-adv-x="518" 
d="M335 575h-74l-115 131h91zM131 506l101 -451l220 452l90 -1l-303 -605q-30 -62 -72.5 -81.5t-108.5 -19.5h-92l10 74h90q52 0 78 26t26 69q0 14 -4 34l-119 503h84z" />
    <glyph glyph-name="endash" unicode="&#x2013;" horiz-adv-x="627" 
d="M63 326h521l-10 -79h-522z" />
    <glyph glyph-name="emdash" unicode="&#x2014;" horiz-adv-x="998" 
d="M63 326h892l-11 -79h-892z" />
    <glyph glyph-name="quoteleft" unicode="&#x2018;" horiz-adv-x="230" 
d="M218 598l-17 -114h-115l16 114l75 115h53l-72 -115h60z" />
    <glyph glyph-name="quoteright" unicode="&#x2019;" horiz-adv-x="230" 
d="M91 484l74 114h-61l16 115h116l-16 -115l-75 -114h-54z" />
    <glyph glyph-name="quotesinglbase" unicode="&#x201a;" horiz-adv-x="230" 
d="M24 0l16 115h116l-16 -115l-75 -114h-53l73 114h-61z" />
    <glyph glyph-name="quotedblleft" unicode="&#x201c;" horiz-adv-x="399" 
d="M218 598l-17 -114h-115l16 114l75 115h53l-72 -115h60zM387 598l-17 -114h-115l16 114l75 115h53l-72 -115h60z" />
    <glyph glyph-name="quotedblright" unicode="&#x201d;" horiz-adv-x="403" 
d="M90 484l74 114h-61l16 115h116l-16 -115l-75 -114h-54zM265 484l74 114h-61l16 115h116l-16 -115l-75 -114h-54z" />
    <glyph glyph-name="quotedblbase" unicode="&#x201e;" horiz-adv-x="399" 
d="M24 0l16 115h116l-16 -115l-75 -114h-53l73 114h-61zM193 0l16 115h116l-16 -115l-75 -114h-53l73 114h-61z" />
    <glyph glyph-name="dagger" unicode="&#x2020;" horiz-adv-x="460" 
d="M455 540v-76h-154v-363h-75v363h-154v76h154v166h75v-166h154z" />
    <glyph glyph-name="daggerdbl" unicode="&#x2021;" horiz-adv-x="434" 
d="M428 465h-153v-124h153v-76h-153v-164h-76v164h-153v76h153v124h-153v76h153v165h76v-165h153v-76z" />
    <glyph glyph-name="bullet" unicode="&#x2022;" horiz-adv-x="389" 
d="M188 141q-62 0 -103 40.5t-41 101.5q0 69 49.5 118.5t119.5 49.5q63 0 103.5 -40t40.5 -102q0 -70 -49.5 -119t-119.5 -49z" />
    <glyph glyph-name="ellipsis" unicode="&#x2026;" horiz-adv-x="649" 
d="M23 0l16 116h116l-16 -116h-116zM233 0l16 116h116l-16 -116h-116zM442 0l17 116h115l-16 -116h-116z" />
    <glyph glyph-name="perthousand" unicode="&#x2030;" horiz-adv-x="1272" 
d="M218 342q-63 0 -104 44.5t-41 121.5q0 87 47 147t123 60q66 0 106.5 -44t40.5 -124q0 -87 -47 -146t-125 -59zM155 0l538 706h86l-539 -706h-85zM221 409q49 0 71.5 42t22.5 96q0 101 -74 101q-47 0 -70 -40.5t-23 -97.5q0 -101 73 -101zM692 -10q-63 0 -104 44.5
t-41 121.5q0 87 47 147t123 60q66 0 106.5 -44t40.5 -123q0 -87 -47 -146.5t-125 -59.5zM1054 -10q-63 0 -104 44.5t-41 121.5q0 87 46.5 147t122.5 60q66 0 106.5 -44t40.5 -123q0 -88 -46.5 -147t-124.5 -59zM695 57q49 0 72 42t23 96q0 48 -19.5 74.5t-55.5 26.5
q-46 0 -69.5 -41t-23.5 -97q0 -101 73 -101zM1057 57q48 0 71 42t23 96q0 48 -19 74.5t-55 26.5q-47 0 -70.5 -41t-23.5 -97q0 -101 74 -101z" />
    <glyph glyph-name="guilsinglleft" unicode="&#x2039;" horiz-adv-x="355" 
d="M169 59l-128 221l224 226h90l-227 -231l125 -216h-84z" />
    <glyph glyph-name="guilsinglright" unicode="&#x203a;" horiz-adv-x="356" 
d="M195 506l127 -219l-223 -228h-92l228 232l-125 215h85z" />
    <glyph glyph-name="uni2042" unicode="&#x2042;" horiz-adv-x="658" 
d="M206 596l15 44l52 -17q32 -10 47 -24q-8 17 -8 51v56h48v-56q0 -36 -7 -51q16 14 46 24l52 17l17 -45l-53 -18q-37 -11 -54 -9q20 -12 40 -38l33 -45l-38 -28l-32 44q-22 27 -28 51q-3 -21 -25 -51l-33 -44l-41 28l35 45q20 27 40 38q-21 -3 -55 10zM38 312l15 44l52 -17
q29 -9 47 -24q-8 17 -8 51v56h48v-56q0 -36 -8 -51q19 15 46 24l52 17l18 -45l-54 -18q-32 -12 -53 -10q21 -13 40 -37l33 -45l-39 -28l-32 44q-20 25 -27 51q-5 -24 -26 -51l-32 -44l-41 28l34 45q23 27 40 37q-20 -1 -54 10zM375 312l15 44l52 -17q27 -9 47 -24
q-9 17 -9 51v56h48v-56q0 -36 -7 -51q19 15 46 24l52 17l17 -45l-53 -18q-32 -12 -53 -10q19 -12 39 -37l34 -45l-39 -28l-32 44q-20 25 -27 51q-5 -24 -26 -51l-32 -44l-41 28l34 45q20 25 40 37q-21 -1 -55 10z" />
    <glyph glyph-name="fraction" unicode="&#x2044;" horiz-adv-x="192" 
d="M-155 0l452 706h68l-452 -706h-68z" />
    <glyph glyph-name="Euro" unicode="&#x20ac;" horiz-adv-x="632" 
d="M446 635q-83 0 -149 -44t-102 -120h283l-18 -68h-289q-11 -47 -11 -94v-4h276l-16 -68h-253q17 -79 70.5 -123t139.5 -44q94 0 163 45l36 -67q-83 -58 -201 -58q-120 0 -200.5 66.5t-100.5 180.5h-66l9 68h51v5q0 50 10 93h-47l10 68h57q44 110 138.5 177.5t213.5 67.5
q120 0 207 -62l-56 -69q-61 50 -155 50z" />
    <glyph glyph-name="uni2116" unicode="&#x2116;" horiz-adv-x="1136" 
d="M760 515q0 84 55 143t140 59q76 0 125.5 -48t49.5 -127q0 -84 -55.5 -143t-140.5 -59q-75 0 -124.5 47.5t-49.5 127.5zM43 0l99 706h86l322 -568l79 568h84l-99 -706h-86l-321 568l-80 -568h-84zM1058 541q0 51 -30 80t-75 29q-52 0 -87 -38.5t-35 -95.5q0 -52 30 -80.5
t75 -28.5q53 0 87.5 39t34.5 95zM783 205l10 68h247l-10 -68h-247z" />
    <glyph glyph-name="uni2117" unicode="&#x2117;" horiz-adv-x="475" 
d="M473 515q0 -83 -58.5 -141.5t-141.5 -58.5q-82 0 -141 59t-59 141q0 83 59 142t141 59q83 0 141.5 -58.5t58.5 -142.5zM273 673q-66 0 -111.5 -46t-45.5 -112q0 -65 45.5 -110.5t111.5 -45.5t111 44.5t45 111.5q0 66 -45 112t-111 46zM247 477h47q31 0 52 18t21 51
q0 31 -20 50.5t-52 19.5h-88v-205h40v66zM290 581q15 0 25.5 -9.5t10.5 -24.5t-10.5 -25t-25.5 -10h-43v69h43z" />
    <glyph glyph-name="trademark" unicode="&#x2122;" horiz-adv-x="593" 
d="M75 654l8 52h241l-7 -52h-95l-33 -236h-54l33 236h-93zM456 482l121 224h53l-40 -288h-52l18 124q6 44 15 61l-100 -185h-44l-47 185q1 -5 -3 -60l-19 -125h-51l40 288h51z" />
    <glyph glyph-name="estimated" unicode="&#x212e;" horiz-adv-x="744" 
d="M54 356q1 160 94 260t239 100q149 0 240 -89t91 -243q2 -27 0 -53h-563v-182q85 -118 244 -118q77 0 142.5 37t97.5 97l39 -14q-38 -75 -112.5 -117.5t-168.5 -42.5q-154 0 -249.5 101t-93.5 264zM155 551v-184h463v202q-38 52 -98.5 80t-132.5 27q-74 -1 -133.5 -34.5
t-98.5 -90.5z" />
    <glyph glyph-name="oneeighth" unicode="&#x215b;" horiz-adv-x="790" 
d="M73 345l8 57h69l33 242l-86 -40l8 60l86 42h60l-41 -304h68l-8 -57h-197zM584 706h68l-452 -706h-68zM704 192q47 -24 47 -82q0 -51 -39.5 -83t-101.5 -32q-59 0 -95 28.5t-36 77.5q0 31 18 57t48 38q-36 23 -36 69q0 45 36.5 73t90.5 28q52 0 84.5 -26.5t32.5 -69.5
q0 -55 -49 -78zM634 319q-29 0 -48 -15.5t-19 -40.5q0 -22 16 -35t44 -13q29 0 48.5 15t19.5 39q0 23 -17 36.5t-44 13.5zM612 46q35 0 56.5 18t21.5 46q0 25 -19 41.5t-51 16.5q-35 0 -57.5 -18t-22.5 -46q0 -27 19.5 -42.5t52.5 -15.5z" />
    <glyph glyph-name="threeeighths" unicode="&#x215c;" horiz-adv-x="808" 
d="M309 453q0 -52 -39 -82.5t-99 -30.5q-59 0 -93 33t-27 85h60q-4 -31 12.5 -48.5t48.5 -17.5t52.5 17t20.5 45q0 23 -15.5 37t-44.5 14h-29l7 48h30q33 0 50.5 16t17.5 43q0 22 -15 34.5t-42 12.5q-32 0 -52 -18t-22 -48h-60q6 54 42.5 86t96.5 32q51 0 83.5 -25.5
t32.5 -68.5q0 -30 -17 -54t-47 -34q48 -17 48 -76zM601 706h68l-452 -706h-68zM722 192q47 -24 47 -82q0 -51 -39.5 -83t-101.5 -32q-59 0 -95 28.5t-36 77.5q0 31 18 57t48 38q-36 23 -36 69q0 45 36.5 73t90.5 28q52 0 84.5 -26.5t32.5 -69.5q0 -55 -49 -78zM652 319
q-29 0 -48 -15.5t-19 -40.5q0 -22 16 -35t44 -13q29 0 48.5 15t19.5 39q0 23 -17 36.5t-44 13.5zM630 46q35 0 56.5 18t21.5 46q0 25 -19 41.5t-51 16.5q-35 0 -57.5 -18t-22.5 -46q0 -27 19.5 -42.5t52.5 -15.5z" />
    <glyph glyph-name="fiveeighths" unicode="&#x215d;" horiz-adv-x="816" 
d="M317 477q0 -61 -40.5 -99t-101.5 -38q-52 0 -88 29.5t-35 82.5h59q-1 -27 18 -43.5t46 -16.5q33 0 55.5 23.5t22.5 60.5q0 30 -17 48t-45 18q-47 0 -69 -40h-58l65 204h202l-7 -53h-156l-25 -78q24 17 63 17q49 0 80 -31t31 -84zM609 706h68l-452 -706h-68zM730 192
q47 -24 47 -82q0 -51 -39.5 -83t-101.5 -32q-59 0 -95 28.5t-36 77.5q0 31 18 57t48 38q-36 23 -36 69q0 45 36.5 73t90.5 28q52 0 84.5 -26.5t32.5 -69.5q0 -55 -49 -78zM660 319q-29 0 -48 -15.5t-19 -40.5q0 -22 16 -35t44 -13q29 0 48.5 15t19.5 39q0 23 -17 36.5
t-44 13.5zM638 46q35 0 56.5 18t21.5 46q0 25 -19 41.5t-51 16.5q-35 0 -57.5 -18t-22.5 -46q0 -27 19.5 -42.5t52.5 -15.5z" />
    <glyph glyph-name="seveneighths" unicode="&#x215e;" horiz-adv-x="753" 
d="M130 349h-61q45 159 169 307h-175l6 54h248l-6 -50q-65 -70 -112.5 -152t-68.5 -159zM547 706h68l-452 -706h-68zM667 192q47 -24 47 -82q0 -51 -39.5 -83t-101.5 -32q-59 0 -95 28.5t-36 77.5q0 31 18 57t48 38q-36 23 -36 69q0 45 36.5 73t90.5 28q52 0 84.5 -26.5
t32.5 -69.5q0 -55 -49 -78zM597 319q-29 0 -48 -15.5t-19 -40.5q0 -22 16 -35t44 -13q29 0 48.5 15t19.5 39q0 23 -17 36.5t-44 13.5zM575 46q35 0 56.5 18t21.5 46q0 25 -19 41.5t-51 16.5q-35 0 -57.5 -18t-22.5 -46q0 -27 19.5 -42.5t52.5 -15.5z" />
    <glyph glyph-name="uni2160" unicode="&#x2160;" horiz-adv-x="514" 
d="M454 643h-156v-580h156v-63h-394v63h157v580h-157v63h394v-63z" />
    <glyph glyph-name="uni2161" unicode="&#x2161;" horiz-adv-x="815" 
d="M755 0h-695v63h146v580h-146v63h695v-63h-143v-580h143v-63zM530 643h-243v-580h243v580z" />
    <glyph glyph-name="uni2162" unicode="&#x2162;" horiz-adv-x="1136" 
d="M1076 0h-1016v64h145v578h-145v64h1016v-64h-146v-578h146v-64zM287 64h240v578h-240v-578zM848 642h-240v-578h240v578z" />
    <glyph glyph-name="uni2163" unicode="&#x2163;" horiz-adv-x="1125" 
d="M1065 0h-1005v63h150v579h-150v64h1003v-64h-120l-190 -579h312v-63zM291 63h306l-193 579h-113v-579zM856 642h-363l182 -565z" />
    <glyph glyph-name="uni2164" unicode="&#x2164;" horiz-adv-x="868" 
d="M808 642h-100l-195 -580h292v-62h-738v62h292l-194 580h-105v64h748v-64zM620 642h-367l183 -566z" />
    <glyph glyph-name="uni2165" unicode="&#x2165;" horiz-adv-x="1125" 
d="M1065 0h-1005v64h312l-193 578h-119v64h1005v-64h-146v-578h146v-64zM633 642h-366l182 -565zM526 64h312v578h-118z" />
    <glyph glyph-name="uni2166" unicode="&#x2166;" horiz-adv-x="1449" 
d="M1389 0h-1329v64h309l-191 578h-118v64h1328v-64h-157v-578h157zM632 642h-366l180 -565zM523 64h312v578h-116zM1150 642h-234v-578h234v578z" />
    <glyph glyph-name="uni2167" unicode="&#x2167;" horiz-adv-x="1742" 
d="M1682 0h-1622v64h304l-187 578h-117v64h1621v-64h-150v-578h151v-64zM618 642h-353l176 -567zM518 64h311v578h-124zM910 64h230v578h-230v-578zM1221 64h230v578h-230v-578z" />
    <glyph glyph-name="uni2168" unicode="&#x2168;" horiz-adv-x="1082" 
d="M1022 0h-962v62h146v580h-146v64h961v-64h-98l-209 -297l200 -283h108v-62zM400 642h-114v-580h120l204 283zM661 398l170 244h-338zM498 62h320l-158 231z" />
    <glyph glyph-name="uni2169" unicode="&#x2169;" horiz-adv-x="849" 
d="M788 642h-103l-208 -296l199 -284h113v-62h-729v62h109l204 284l-211 296h-102v64h728v-64zM424 397l168 245h-336zM259 62h322l-158 231z" />
    <glyph glyph-name="arrowleft" unicode="&#x2190;" horiz-adv-x="815" 
d="M373 570l45 -45l-238 -237h575v-63h-575l237 -237l-44 -44l-313 313z" />
    <glyph glyph-name="arrowup" unicode="&#x2191;" horiz-adv-x="750" 
d="M60 385l315 310l315 -310l-44 -44l-240 234v-575h-63v576l-239 -235z" />
    <glyph glyph-name="arrowright" unicode="&#x2192;" horiz-adv-x="815" 
d="M442 569l313 -312l-313 -313l-44 45l237 237h-575v63h575l-236 237z" />
    <glyph glyph-name="arrowdown" unicode="&#x2193;" horiz-adv-x="746" 
d="M686 283l-313 -312l-313 312l45 45l237 -237v575h63v-575l237 237z" />
    <glyph glyph-name="arrowboth" unicode="&#x2194;" horiz-adv-x="957" 
d="M677 33v92l99 101l-366 -1v1l-228 -1l101 -102v-91l-223 224l221 224v-92l-98 -100l225 1v1l366 -1l-98 100v91l221 -223z" />
    <glyph glyph-name="arrowupdn" unicode="&#x2195;" horiz-adv-x="567" 
d="M314 -42l102 100h91l-224 -222l-223 222h90l101 -99l-1 226v141l1 225l-101 -99h-90l223 221l224 -221h-91l-102 100v-594z" />
    <glyph glyph-name="uni2196" unicode="&#x2196;" horiz-adv-x="633" 
d="M502 514v-64h-335l406 -406l-44 -45l-407 407v-335h-62v443h442z" />
    <glyph glyph-name="uni2197" unicode="&#x2197;" horiz-adv-x="634" 
d="M132 514h442v-443h-63v336l-407 -407l-44 45l406 406h-334v63z" />
    <glyph glyph-name="uni2198" unicode="&#x2198;" horiz-adv-x="634" 
d="M574 442v-442h-443v63h336l-407 407l45 44l406 -406v334h63z" />
    <glyph glyph-name="uni2199" unicode="&#x2199;" horiz-adv-x="634" 
d="M502 0h-442v443h63v-336l407 407l44 -45l-406 -406h334v-63z" />
    <glyph glyph-name="partialdiff" unicode="&#x2202;" horiz-adv-x="602" 
d="M386 706q83 -55 130.5 -160t47.5 -221q0 -146 -75.5 -240.5t-206.5 -94.5q-106 0 -174 62.5t-68 171.5q0 112 70.5 191t186.5 80q59 1 105 -20.5t70 -58.5q-19 103 -73.5 169.5t-136.5 120.5h124zM279 63q81 0 132 54.5t51 137.5q0 73 -41.5 120.5t-114.5 47.5
q-80 0 -132 -56.5t-52 -139.5q0 -74 42 -119t115 -45z" />
    <glyph glyph-name="emptyset" unicode="&#x2205;" horiz-adv-x="639" 
d="M621 493l-86 -79q38 -62 38 -141q0 -117 -77 -199.5t-191 -82.5q-97 0 -164 62l-82 -76l-37 36l87 80q-39 59 -39 140q0 116 77 199t192 83q99 0 163 -61l82 75zM150 231q0 -45 18 -84l276 254q-42 39 -105 39q-79 0 -134 -61.5t-55 -147.5zM494 274q0 47 -19 85
l-276 -253q42 -40 105 -40q79 0 134.5 61.5t55.5 146.5z" />
    <glyph glyph-name="product" unicode="&#x220f;" horiz-adv-x="669" 
d="M675 706l-11 -81h-115l-88 -628h-84l88 628h-163l-88 -628h-83l88 628h-114l10 81h560z" />
    <glyph glyph-name="summation" unicode="&#x2211;" horiz-adv-x="596" 
d="M288 303l-177 328l10 75h480l-11 -79h-381l175 -330l-265 -323l379 -1l-11 -79h-480l10 83z" />
    <glyph glyph-name="minus" unicode="&#x2212;" horiz-adv-x="600" 
d="M83 370h463l-11 -80h-463z" />
    <glyph glyph-name="radical" unicode="&#x221a;" horiz-adv-x="787" 
d="M799 784v-77h-214l-305 -808h-81l-143 380h82l102 -272l292 777h267z" />
    <glyph glyph-name="infinity" unicode="&#x221e;" horiz-adv-x="944" 
d="M244 63q-87 0 -146 59t-59 144q0 86 60 145.5t146 59.5q73 0 125 -38t104 -105q25 32 44 52.5t48 44t63 35t73 11.5q86 0 145.5 -60t59.5 -145q0 -84 -59 -143.5t-146 -59.5q-51 0 -96.5 23t-72 50t-59.5 70q-25 -32 -44.5 -53t-48.5 -44t-63.5 -34.5t-73.5 -11.5z
M247 141q44 0 84 28t95 98q-55 70 -94 98t-85 28q-53 0 -88.5 -37t-35.5 -89q0 -51 36 -88.5t88 -37.5zM699 141q53 0 89 37t36 89t-36 89t-89 37q-45 0 -83 -28t-95 -98q55 -70 93.5 -98t84.5 -28z" />
    <glyph glyph-name="integral" unicode="&#x222b;" horiz-adv-x="355" 
d="M287 782h68l-5 -76h-63q-26 0 -41 -16t-16 -41l-22 -680q-2 -65 -38 -99t-97 -34h-58l5 76h53q57 0 58 57l21 682q3 62 40.5 96.5t94.5 34.5z" />
    <glyph glyph-name="approxequal" unicode="&#x2248;" horiz-adv-x="576" 
d="M342 470q32 -27 46 -35.5t32 -8.5q28 0 43.5 19t17.5 53h70q-2 -66 -36 -106.5t-94 -40.5q-27 0 -52.5 11t-34.5 18t-35 29q-30 26 -45 35t-33 9q-52 0 -57 -72h-70q0 66 35.5 106.5t92.5 40.5q25 0 49 -10.5t36 -19.5t35 -28zM293 246q32 -27 46 -35.5t32 -8.5
q28 0 43.5 19t17.5 53h70q-2 -66 -36 -106.5t-94 -40.5q-27 0 -52.5 11t-34.5 18t-35 29q-30 26 -45 35t-33 9q-52 0 -57 -72h-70q0 66 35.5 106.5t92.5 40.5q25 0 49 -10.5t36 -19.5t35 -28z" />
    <glyph glyph-name="notequal" unicode="&#x2260;" horiz-adv-x="601" 
d="M518 400h-132l-79 -138h189l-11 -76h-222l-58 -102h-70l59 102h-102l11 76h134l79 138h-191l10 76h225l57 99h69l-57 -99h99z" />
    <glyph glyph-name="lessequal" unicode="&#x2264;" horiz-adv-x="600" 
d="M553 593l-12 -87l-344 -141l305 -140l-12 -87l-382 182l14 91zM76 79h406l-10 -79h-407z" />
    <glyph glyph-name="greaterequal" unicode="&#x2265;" horiz-adv-x="600" 
d="M78 138l12 88l345 141l-306 140l13 86l381 -182l-13 -91zM476 79l-11 -79h-407l11 79h407z" />
    <glyph glyph-name="filledbox" unicode="&#x25a0;" horiz-adv-x="786" 
d="M40 706h705v-705h-705v705z" />
    <glyph glyph-name="uni25A1" unicode="&#x25a1;" horiz-adv-x="787" 
d="M40 706h706v-706h-706v706zM100 647v-588h587v588h-587z" />
    <glyph glyph-name="triagup" unicode="&#x25b2;" horiz-adv-x="939" 
d="M40 0h859l-430 709z" />
    <glyph glyph-name="uni25B3" unicode="&#x25b3;" horiz-adv-x="935" 
d="M40 0l427 706l428 -706h-855zM143 58h648l-324 536z" />
    <glyph glyph-name="lozenge" unicode="&#x25ca;" horiz-adv-x="593" 
d="M257 0l-217 352l217 354h79l216 -354l-216 -352h-79zM483 352l-187 306l-186 -306l186 -303z" />
    <glyph glyph-name="circle" unicode="&#x25cb;" horiz-adv-x="810" 
d="M404 -10q-151 0 -257.5 107t-106.5 258t107 257.5t257 106.5q151 0 258.5 -106.5t107.5 -257.5t-107.5 -258t-258.5 -107zM405 49q126 0 216 89.5t90 216.5t-90 216.5t-216 89.5q-127 0 -216.5 -89.5t-89.5 -216.5t89.5 -216.5t216.5 -89.5z" />
    <glyph glyph-name="uni25CF" unicode="&#x25cf;" horiz-adv-x="816" 
d="M409 -19q-153 0 -261 107.5t-108 260.5q0 152 108 259.5t261 107.5q152 0 259.5 -107.5t107.5 -259.5q0 -153 -107.5 -260.5t-259.5 -107.5z" />
    <glyph glyph-name="uni262E" unicode="&#x262e;" horiz-adv-x="810" 
d="M404 -11q-151 0 -258 107t-107 259q0 151 107 258t258 107q152 0 259.5 -107t107.5 -258t-108 -258.5t-259 -107.5zM125 226l249 153v282q-117 -11 -197 -99t-80 -207q0 -67 28 -129zM685 227q28 61 28 128q0 119 -79.5 206.5t-196.5 98.5v-281zM374 48v258l-217 -135
q38 -51 94.5 -83.5t122.5 -39.5zM437 48q66 7 122 40t94 84l-216 133v-257z" />
    <glyph glyph-name="uni2713" unicode="&#x2713;" horiz-adv-x="767" 
d="M662 524l42 -42l-419 -410l-205 227l45 43l161 -180z" />
    <glyph glyph-name="uniA7B6" unicode="&#xa7b6;" horiz-adv-x="747" 
d="M534 77h168v-77h-272v74q161 131 161 314q0 112 -62.5 178.5t-171.5 66.5t-171.5 -66t-62.5 -179q0 -184 160 -314v-74h-273v77h169q-146 132 -146 317q0 145 88 233.5t236 88.5t235.5 -88.5t87.5 -233.5q0 -185 -146 -317z" />
    <glyph glyph-name="i.loclTRK" horiz-adv-x="225" 
d="M106 604l12 95h102l-12 -95h-102zM36 0l71 506h82l-71 -506h-82z" />
    <glyph glyph-name="f_f_t" horiz-adv-x="986" 
d="M853 433l-40 -301q-5 -31 5 -44.5t43 -13.5h61l-10 -74h-76q-57 0 -86 31.5t-20 98.5l41 303h-235l-59 -433h-83l58 433h-238l-60 -433h-83l59 433h-87l10 73h87l14 101q9 67 44 98t101 31h80l-11 -71h-57q-36 0 -52.5 -15t-21.5 -47l-13 -97h238l14 101q9 67 44 98
t102 31h79l-10 -71h-58q-36 0 -52.5 -15t-21.5 -47l-13 -97h190q24 0 35.5 8t14.5 30l13 94h82l-18 -132h118l-10 -73h-118z" />
    <glyph glyph-name="f_t" horiz-adv-x="663" 
d="M531 433l-41 -301q-4 -32 6 -45t43 -13h61l-10 -74h-76q-58 0 -87 31.5t-20 98.5l42 303h-235l-60 -433h-83l59 433h-87l10 73h87l14 101q9 67 44 98t101 31h80l-11 -71h-57q-36 0 -52.5 -15t-21.5 -47l-13 -97h189q25 0 36.5 8t14.5 30l12 94h82l-17 -132h118l-10 -73
h-118z" />
    <glyph glyph-name="t_t" horiz-adv-x="662" 
d="M529 433l-40 -301q-5 -31 5 -44.5t43 -13.5h61l-10 -74h-76q-57 0 -86 31.5t-20 98.5l41 303h-240l-41 -301q-4 -32 6 -45t43 -13h61l-10 -74h-76q-58 0 -87 31.5t-20 98.5l42 303h-92l10 73h46q25 0 36.5 8t14.5 30l12 94h82l-17 -132h195q24 0 35.5 8t14.5 30l13 94h82
l-18 -132h118l-10 -73h-118z" />
    <glyph glyph-name="zero.tf" horiz-adv-x="650" 
d="M307 -10q-113 0 -176.5 81t-63.5 232q0 114 35.5 207t105 149.5t161.5 56.5q108 0 172 -83t64 -233q0 -174 -84 -292t-214 -118zM176 159l296 433q-37 51 -104 51q-101 0 -158 -98.5t-57 -241.5q0 -84 23 -144zM303 62q99 0 157.5 98.5t58.5 242.5q0 79 -21 133
l-294 -430q38 -44 99 -44z" />
    <glyph glyph-name="one.tf" horiz-adv-x="650" 
d="M361 81h175l-11 -81h-434l11 81h176l72 537l-212 -84l11 86l213 86h83z" />
    <glyph glyph-name="two.tf" horiz-adv-x="650" 
d="M419 281l-238 -200h339l-11 -81h-459l11 77l303 252q73 61 103 103t30 89q0 55 -36.5 87t-98.5 32q-64 0 -107 -38t-55 -98h-85q18 102 88 157t168 55q94 0 153.5 -52t59.5 -137q0 -66 -39 -120.5t-126 -125.5z" />
    <glyph glyph-name="three.tf" horiz-adv-x="650" 
d="M447 362q50 -17 79 -58t29 -94q0 -100 -73 -160t-188 -60q-110 0 -174 59t-54 155h85q-3 -67 33.5 -103.5t113.5 -36.5q75 0 122 39t47 106q0 53 -38 85t-105 32h-54l10 74h55q77 0 118.5 36.5t41.5 98.5q0 50 -36.5 79t-101.5 29q-72 0 -115 -38t-51 -103h-84
q12 99 79.5 156.5t180.5 57.5q93 0 154.5 -47.5t61.5 -131.5q0 -62 -35 -109t-101 -66z" />
    <glyph glyph-name="four.tf" horiz-adv-x="650" 
d="M376 0l20 146h-344l11 75l398 485h94l-63 -483h104l-11 -77h-104l-20 -146h-85zM157 223h250l48 362z" />
    <glyph glyph-name="five.tf" horiz-adv-x="650" 
d="M588 629h-311l-66 -202q58 49 142 49q95 0 153.5 -59t58.5 -161q0 -118 -76 -192t-190 -74q-95 0 -161.5 54t-68.5 145h85q0 -57 43 -91t102 -34q75 0 126.5 54.5t51.5 136.5q0 69 -37.5 109t-101.5 40q-96 0 -152 -81h-86l121 383h378z" />
    <glyph glyph-name="six.tf" horiz-adv-x="650" 
d="M357 487q92 0 156 -62.5t63 -166.5q-2 -114 -77.5 -191t-191.5 -77q-49 0 -89.5 15.5t-74.5 48.5t-52.5 91t-18.5 136q0 64 12.5 126t39 118t64 98.5t91.5 67.5t118 25q85 0 145 -45.5t69 -126.5h-84q-27 99 -132 99q-90 0 -147 -64t-79 -183q28 42 79.5 66.5t108.5 24.5
zM491 261q1 69 -38 111.5t-108 42.5q-79 0 -133 -54.5t-55 -139.5q0 -76 43 -116.5t108 -40.5q80 0 131.5 58.5t51.5 138.5z" />
    <glyph glyph-name="seven.tf" horiz-adv-x="650" 
d="M496 628h-376l11 78h477l-9 -73q-129 -137 -228 -306.5t-145 -326.5h-86q48 161 144.5 327.5t211.5 300.5z" />
    <glyph glyph-name="eight.tf" horiz-adv-x="650" 
d="M475 374q46 -19 75 -62.5t29 -100.5q0 -100 -77 -160.5t-197 -60.5q-112 0 -181.5 52.5t-69.5 143.5q0 68 42 122.5t113 75.5q-36 18 -57 55t-21 84q0 87 72 140t175 53q97 0 157.5 -49.5t60.5 -128.5q0 -59 -33 -102t-88 -62zM373 648q-69 0 -115 -36.5t-46 -92.5
q0 -50 37.5 -79.5t102.5 -29.5q70 0 115.5 35t45.5 92q0 51 -39 81t-101 30zM307 64q82 0 134 39.5t52 104.5q0 58 -43 95.5t-120 37.5q-82 0 -136 -42.5t-54 -107.5q0 -60 46 -93.5t121 -33.5z" />
    <glyph glyph-name="nine.tf" horiz-adv-x="650" 
d="M348 716q110 0 175.5 -79t65.5 -229q0 -79 -19.5 -152t-56.5 -133.5t-99 -96.5t-140 -36q-95 0 -153.5 47t-66.5 125h85q10 -49 46 -74t90 -25q89 0 148.5 69t70.5 177q-26 -39 -75.5 -64.5t-108.5 -25.5q-40 0 -77.5 12.5t-71 37.5t-53.5 70.5t-20 104.5q0 118 73 195
t187 77zM323 291q74 0 126 50t52 131q0 72 -41 122t-112 50q-72 0 -124 -53t-52 -141q0 -80 44.5 -119.5t106.5 -39.5z" />
    <glyph glyph-name="zero.dnom" horiz-adv-x="349" 
d="M153 -5q-67 0 -104.5 43.5t-37.5 118.5q0 88 46 148.5t123 60.5q63 0 101 -44t38 -121q0 -89 -46.5 -147.5t-119.5 -58.5zM152 48q47 0 76.5 43t29.5 110q0 52 -20.5 81.5t-60.5 29.5q-49 0 -77 -43.5t-28 -108.5q0 -54 21 -83t59 -29z" />
    <glyph glyph-name="one.dnom" horiz-adv-x="263" 
d="M162 57h70l-9 -57h-197l8 57h68l33 241l-86 -39l8 60l86 42h60z" />
    <glyph glyph-name="two.dnom" horiz-adv-x="302" 
d="M196 136l-98 -79h152l-8 -57h-242l7 55l152 120q32 26 46 43.5t14 38.5q0 24 -15.5 39t-42.5 15q-29 0 -48 -17.5t-24 -46.5h-59q6 58 43.5 88.5t90.5 30.5q52 0 84 -28.5t32 -75.5q0 -36 -20.5 -64t-63.5 -62z" />
    <glyph glyph-name="three.dnom" horiz-adv-x="304" 
d="M214 184q49 -17 49 -76q0 -52 -39.5 -82.5t-98.5 -30.5t-93.5 32.5t-27.5 85.5h60q-4 -31 12.5 -48.5t48.5 -17.5t52.5 16.5t20.5 45.5q0 23 -15.5 36.5t-44.5 13.5h-29l8 49h29q32 0 50 15.5t18 42.5q0 22 -15 35t-41 13q-33 0 -52.5 -18t-22.5 -48h-59q6 54 42 86
t96 32q51 0 83.5 -25.5t32.5 -69.5q0 -30 -17 -53.5t-47 -33.5z" />
    <glyph glyph-name="four.dnom" horiz-adv-x="318" 
d="M155 0l9 69h-170l8 53l198 239h65l-31 -238h49l-8 -54h-49l-10 -69h-61zM64 123h108l20 152z" />
    <glyph glyph-name="five.dnom" horiz-adv-x="312" 
d="M278 308h-156l-27 -79q25 17 64 17q49 0 80 -30.5t31 -83.5q0 -61 -40.5 -99t-101.5 -38q-51 0 -87 29.5t-35 81.5h58q0 -27 18.5 -43t45.5 -16q33 0 55.5 23.5t22.5 60.5q0 30 -16.5 48t-45.5 18q-45 0 -69 -40h-58l65 204h203z" />
    <glyph glyph-name="six.dnom" horiz-adv-x="320" 
d="M165 249q48 0 82 -32t34 -86q0 -59 -40 -97.5t-98 -38.5q-59 0 -93.5 37t-34.5 117q0 88 43.5 152.5t122.5 64.5q48 0 80 -25t39 -70h-60q-9 43 -62 43q-38 0 -63 -26.5t-33 -72.5q31 34 83 34zM142 47q34 0 56.5 25t22.5 59q0 31 -17.5 49.5t-48.5 18.5q-33 0 -56.5 -23
t-23.5 -60q0 -32 19 -50.5t48 -18.5z" />
    <glyph glyph-name="seven.dnom" horiz-adv-x="265" 
d="M192 307h-175l7 54h247l-6 -51q-134 -144 -181 -310h-60q44 158 168 307z" />
    <glyph glyph-name="eight.dnom" horiz-adv-x="312" 
d="M226 192q47 -24 47 -82q0 -51 -39.5 -83t-101.5 -32q-59 0 -95 28.5t-36 77.5q0 31 18 57t48 38q-36 23 -36 69q0 45 36.5 73t90.5 28q52 0 84.5 -26.5t32.5 -69.5q0 -55 -49 -78zM156 319q-29 0 -48 -15.5t-19 -40.5q0 -22 16 -35t44 -13q29 0 48.5 15t19.5 39
q0 23 -17 36.5t-44 13.5zM134 46q35 0 56.5 18t21.5 46q0 25 -19 41.5t-51 16.5q-35 0 -57.5 -18t-22.5 -46q0 -27 19.5 -42.5t52.5 -15.5z" />
    <glyph glyph-name="nine.dnom" horiz-adv-x="324" 
d="M157 366q56 0 94 -40.5t38 -119.5q0 -88 -41.5 -149.5t-121.5 -61.5q-48 0 -81.5 26.5t-35.5 68.5h58q9 -43 61 -43q37 0 62.5 28t29.5 73q-30 -37 -84 -37q-43 0 -78 29t-35 86q0 61 37.5 100.5t96.5 39.5zM149 161q33 0 55 22.5t22 57.5q0 31 -18.5 52t-48.5 21
q-32 0 -54.5 -23t-22.5 -58q0 -37 20 -54.5t47 -17.5z" />
    <glyph glyph-name="zero.numr" horiz-adv-x="348" 
d="M198 340q-67 0 -104.5 43.5t-37.5 118.5q0 88 46 148.5t123 60.5q63 0 101 -44t38 -121q0 -89 -46.5 -147.5t-119.5 -58.5zM197 394q47 0 76.5 43t29.5 109q0 52 -20.5 82t-60.5 30q-49 0 -77 -44t-28 -109q0 -54 21 -82.5t59 -28.5z" />
    <glyph glyph-name="one.numr" horiz-adv-x="263" 
d="M210 402h68l-8 -57h-197l8 57h69l33 242l-86 -40l8 60l86 42h60z" />
    <glyph glyph-name="two.numr" horiz-adv-x="302" 
d="M241 481l-99 -79h154l-8 -57h-242l7 55l152 120q32 26 46 43.5t14 38.5q0 24 -15.5 39t-42.5 15q-29 0 -48 -17.5t-24 -45.5h-59q7 57 44 87.5t90 30.5q52 0 84 -28.5t32 -75.5q0 -36 -21 -63.5t-64 -62.5z" />
    <glyph glyph-name="three.numr" horiz-adv-x="304" 
d="M261 529q48 -17 48 -76q0 -52 -39 -82.5t-99 -30.5q-59 0 -93 33t-27 85h60q-4 -31 12.5 -48.5t48.5 -17.5t52.5 17t20.5 45q0 23 -15.5 37t-44.5 14h-29l7 48h30q33 0 50.5 16t17.5 43q0 22 -15 34.5t-42 12.5q-32 0 -52 -18t-22 -48h-60q6 54 42.5 86t96.5 32
q51 0 83.5 -25.5t32.5 -68.5q0 -30 -17 -54t-47 -34z" />
    <glyph glyph-name="four.numr" horiz-adv-x="318" 
d="M202 349l8 69h-169l8 53l196 239h66l-31 -238h49l-8 -54h-49l-9 -69h-61zM116 472h102l20 148z" />
    <glyph glyph-name="five.numr" horiz-adv-x="312" 
d="M324 653h-156l-25 -78q24 17 63 17q49 0 80 -31t31 -84q0 -61 -40.5 -99t-101.5 -38q-52 0 -88 29.5t-35 82.5h59q-1 -27 18 -43.5t46 -16.5q33 0 55.5 23.5t22.5 60.5q0 30 -17 48t-45 18q-47 0 -69 -40h-58l65 204h202z" />
    <glyph glyph-name="six.numr" horiz-adv-x="320" 
d="M211 595q48 0 81.5 -32t33.5 -86q0 -60 -39.5 -98.5t-97.5 -38.5q-59 0 -94 37.5t-35 116.5q0 88 44 152.5t122 64.5q48 0 80.5 -25t39.5 -70h-60q-9 43 -62 43q-38 0 -63 -26.5t-33 -72.5q30 35 83 35zM188 392q34 0 56.5 25t22.5 59q0 31 -18 50t-48 19
q-33 0 -56.5 -23.5t-23.5 -60.5q0 -32 19 -50.5t48 -18.5z" />
    <glyph glyph-name="seven.numr" horiz-adv-x="265" 
d="M238 656h-175l6 54h248l-6 -50q-65 -70 -112.5 -152t-68.5 -159h-61q45 159 169 307z" />
    <glyph glyph-name="eight.numr" horiz-adv-x="320" 
d="M273 536q46 -22 46 -81q0 -52 -40 -83.5t-103 -31.5q-58 0 -94 27.5t-36 75.5q0 34 20 60.5t52 37.5q-34 21 -34 67q0 47 37 75t91 28q51 0 84 -26t33 -69q0 -29 -15.5 -50t-40.5 -30zM210 664q-30 0 -49.5 -15.5t-19.5 -40.5q0 -22 16.5 -35t43.5 -13q29 0 49 15.5
t20 39.5q0 22 -16.5 35.5t-43.5 13.5zM179 391q35 0 57.5 18t22.5 46q0 25 -19 41.5t-51 16.5q-35 0 -58 -18.5t-23 -47.5q0 -26 19.5 -41t51.5 -15z" />
    <glyph glyph-name="nine.numr" horiz-adv-x="324" 
d="M204 711q56 0 94 -40.5t38 -119.5q0 -88 -41.5 -149.5t-121.5 -61.5q-48 0 -81.5 26.5t-35.5 68.5h58q7 -43 61 -43q37 0 62.5 28t29.5 73q-29 -36 -84 -36q-43 0 -78 28.5t-35 86.5q0 61 37.5 100t96.5 39zM196 506q33 0 54.5 22.5t21.5 57.5q0 31 -18 52t-48 21
q-33 0 -55 -23t-22 -58q0 -36 20.5 -54t46.5 -18z" />
    </font>
</defs>
</svg>
