<?xml version="1.0" standalone="no"?>
<!DOCTYPE svg PUBLIC "-//W3C//DTD SVG 1.1//EN" "http://www.w3.org/Graphics/SVG/1.1/DTD/svg11.dtd" >
<svg xmlns="http://www.w3.org/2000/svg" xmlns:xlink="http://www.w3.org/1999/xlink" version="1.1">
<metadata>
Created by FontForge 20170731 at Mon Jun 12 18:19:57 2017
 By Aleksey,,,
Copyright 2017 Fontstore Pte Ltd. All rights reserved.
</metadata>
<defs>
<font id="NeurialGrotesk-ExtraboldItalic" horiz-adv-x="600" >
  <font-face 
    font-family="Neurial Grotesk Exbold Italic"
    font-weight="800"
    font-style="italic"
    font-stretch="normal"
    units-per-em="1000"
    panose-1="0 0 9 0 0 0 0 0 0 0"
    ascent="800"
    descent="-200"
    x-height="528"
    cap-height="728"
    bbox="-740 -263 1778 1101"
    underline-thickness="80"
    underline-position="-275"
    slope="-8"
    unicode-range="U+0020-FB03"
  />
<missing-glyph horiz-adv-x="589" 
d="M103 707h507l-100 -707h-507z" />
    <glyph glyph-name="f_f" unicode="ff" horiz-adv-x="752" 
d="M729 619q-33 0 -49.5 -14.5t-21.5 -46.5l-4 -30h115l-21 -152h-115l-53 -376h-176l53 376h-174l-53 -376h-176l53 376h-76l21 152h76l6 42q14 97 57.5 143.5t142.5 46.5h109l-20 -141h-44q-33 0 -49.5 -14.5t-21.5 -46.5l-4 -30h174l6 42q14 97 57.5 143.5t142.5 46.5
h118l-20 -141h-53z" />
    <glyph glyph-name="fi" unicode="fi" horiz-adv-x="667" 
d="M654 528l-74 -528h-176l53 376h-174l-53 -376h-176l53 376h-76l21 152h76l6 42q14 97 57.5 143.5t142.5 46.5h108l-20 -141h-43q-33 0 -49.5 -14.5t-21.5 -46.5l-4 -30h350zM512 750h167l-22 -159h-167z" />
    <glyph glyph-name="fl" unicode="fl" horiz-adv-x="661" 
d="M419 528l-21 -152h-115l-53 -376h-176l53 376h-76l21 152h76l6 42q14 97 57.5 143.5t142.5 46.5h118l-20 -141h-53q-33 0 -49.5 -14.5t-21.5 -46.5l-4 -30h115zM506 760h176l-107 -760h-176z" />
    <glyph glyph-name="f_f_i" unicode="ffi" horiz-adv-x="1017" 
d="M1004 528l-74 -528h-176l53 376h-174l-53 -376h-176l53 376h-174l-53 -376h-176l53 376h-76l21 152h76l6 42q14 97 57.5 143.5t142.5 46.5h108l-20 -141h-43q-33 0 -49.5 -14.5t-21.5 -46.5l-4 -30h174l6 42q14 97 57.5 143.5t142.5 46.5h111l-20 -141h-46
q-33 0 -49.5 -14.5t-21.5 -46.5l-4 -30h350zM863 760h167l-22 -159h-167z" />
    <glyph glyph-name=".notdef" horiz-adv-x="589" 
d="M103 707h507l-100 -707h-507z" />
    <glyph glyph-name=".null" horiz-adv-x="0" 
 />
    <glyph glyph-name="nonmarkingreturn" horiz-adv-x="333" 
 />
    <glyph glyph-name="space" unicode=" " horiz-adv-x="180" 
 />
    <glyph glyph-name="exclam" unicode="!" horiz-adv-x="298" 
d="M107 534l27 194h160l-27 -194q-23 -163 -62 -296h-120q-1 131 22 296zM13 0l28 198h198l-28 -198h-198z" />
    <glyph glyph-name="quotedbl" unicode="&#x22;" horiz-adv-x="466" 
d="M114 670l8 58h150l-8 -58q-25 -176 -52 -248h-108q-10 100 10 248zM314 670l8 58h150l-8 -58q-25 -178 -52 -248h-108q-10 100 10 248z" />
    <glyph glyph-name="numbersign" unicode="#" horiz-adv-x="668" 
d="M646 410h-92l-32 -93h91l-48 -139h-91l-62 -178h-150l62 178h-80l-62 -178h-150l62 178h-91l48 139h91l32 93h-91l47 139h92l62 179h150l-62 -179h80l62 179h150l-62 -179h91zM292 317h80l32 93h-80z" />
    <glyph glyph-name="dollar" unicode="$" horiz-adv-x="649" 
d="M622 508h-159q7 46 -19 66t-73 20q-56 0 -79 -23t-23 -50q0 -26 23.5 -40.5t72.5 -29.5l68 -21q167 -52 167 -191q0 -101 -69.5 -165.5t-179.5 -78.5l-10 -76h-131l11 79q-95 18 -146 78.5t-38 145.5h161q-5 -36 21 -60t92 -24q47 0 78.5 17t31.5 49q0 26 -16 40.5
t-60 28.5l-81 26q-37 12 -64 25t-55 35t-43 55.5t-15 77.5q0 90 62 159t175 83l11 77h131l-11 -80q90 -17 135 -75.5t32 -147.5z" />
    <glyph glyph-name="percent" unicode="%" horiz-adv-x="1002" 
d="M253 315q-75 0 -127 52t-52 145q0 94 54 160t143 66q79 0 129 -54.5t50 -145.5q0 -99 -57.5 -161t-139.5 -62zM169 0l557 728h145l-556 -728h-146zM256 437q27 0 42 30.5t15 72.5q0 75 -44 75q-28 0 -43 -30.5t-15 -72.5q0 -75 45 -75zM759 -10q-75 0 -127 52t-52 145
q0 94 54 160t143 66q79 0 129 -54.5t50 -145.5q0 -99 -57.5 -161t-139.5 -62zM762 112q27 0 42 30.5t15 72.5q0 75 -44 75q-28 0 -43 -30.5t-15 -72.5q0 -75 45 -75z" />
    <glyph glyph-name="ampersand" unicode="&#x26;" horiz-adv-x="741" 
d="M592 154q16 -10 50 -10h56l-20 -144h-88q-85 0 -126 41q-80 -51 -193 -51q-110 0 -176 50t-66 142q0 130 154 208l13 7q-52 75 -52 140q0 89 63 145t165 56q96 0 154 -49.5t58 -125.5q0 -109 -137 -180l-26 -13l84 -109q18 25 27 40t18 41.5t14 60.5h141
q-22 -144 -113 -249zM371 615q-29 0 -47.5 -18.5t-18.5 -46.5q0 -29 28 -66l18 -23l13 9q67 44 67 88q0 26 -17 41.5t-43 15.5zM207 209q0 -41 24.5 -62t65.5 -21q39 0 84 21l-114 154l-1 -1q-59 -35 -59 -91z" />
    <glyph glyph-name="quotesingle" unicode="'" horiz-adv-x="270" 
d="M115 656l10 72h150l-10 -72q-21 -159 -50 -233h-108q-11 94 8 233z" />
    <glyph glyph-name="parenleft" unicode="(" horiz-adv-x="338" 
d="M139 -134q-44 79 -69 183.5t-25 205.5q0 166 64 330.5t169 267.5h143q-89 -119 -143 -280.5t-54 -306.5q0 -98 15.5 -208t40.5 -192h-141z" />
    <glyph glyph-name="parenright" unicode=")" horiz-adv-x="339" 
d="M141 464q0 264 -58 389h143q62 -110 83.5 -254.5t0.5 -281.5q-41 -268 -223 -451h-141q88 108 141.5 272.5t53.5 325.5z" />
    <glyph glyph-name="asterisk" unicode="*" horiz-adv-x="454" 
d="M68 582l30 83l83 -29q41 -15 52 -23q0 3 -2 23t-2 34v90h87v-90q0 -36 -5 -57q22 14 53 25l84 28l28 -84l-84 -29q-43 -12 -58 -13q18 -12 41 -43l54 -73l-72 -53l-52 73q-22 24 -32 52q-9 -21 -32 -52l-53 -73l-73 53l57 73q26 34 40 43q-15 1 -58 13z" />
    <glyph glyph-name="plus" unicode="+" 
d="M557 401l-22 -154h-160l-23 -163h-154l23 163h-160l22 154h160l23 163h154l-23 -163h160z" />
    <glyph glyph-name="comma" unicode="," horiz-adv-x="278" 
d="M3 0l27 193h198l-27 -193l-91 -123h-96l80 123h-91z" />
    <glyph glyph-name="hyphen" unicode="-" horiz-adv-x="439" 
d="M56 380h360l-21 -155h-360z" />
    <glyph glyph-name="period" unicode="." horiz-adv-x="278" 
d="M3 0l27 193h198l-27 -193h-198z" />
    <glyph glyph-name="slash" unicode="/" horiz-adv-x="413" 
d="M-37 0l362 728h153l-362 -728h-153z" />
    <glyph glyph-name="zero" unicode="0" horiz-adv-x="724" 
d="M349 -10q-144 0 -223 89t-79 234q0 179 99.5 302t260.5 123q133 0 215 -89t82 -242q0 -184 -99 -300.5t-256 -116.5zM354 142q72 0 122 69t50 186q0 88 -34 138.5t-98 50.5q-78 0 -124.5 -72t-46.5 -185q0 -94 35 -140.5t96 -46.5z" />
    <glyph glyph-name="one" unicode="1" horiz-adv-x="412" 
d="M304 0h-173l78 553l-163 -72l23 169l164 78h173z" />
    <glyph glyph-name="two" unicode="2" horiz-adv-x="595" 
d="M411 253l-130 -91h260l-23 -162h-512l22 157l296 216q34 25 48 36t30 35t16 49q0 37 -23.5 62t-66.5 25q-47 0 -74.5 -30t-32.5 -80h-166q7 132 85.5 200t197.5 68q116 0 186.5 -62t70.5 -166q0 -44 -15 -82t-45 -70.5t-56.5 -54t-67.5 -50.5z" />
    <glyph glyph-name="three" unicode="3" horiz-adv-x="610" 
d="M483 365q40 -19 63.5 -57.5t23.5 -92.5q0 -72 -41.5 -124.5t-105.5 -76.5t-140 -24q-128 0 -202 73t-58 190h168q-8 -56 20 -85.5t73 -29.5q41 0 70 23.5t29 63.5q0 32 -21.5 53.5t-65.5 21.5h-65l19 132h68q100 0 100 83q0 35 -24 56t-63 21q-48 0 -77 -31.5t-32 -83.5
l-165 1q11 118 88 189t204 71q113 0 182.5 -56.5t69.5 -148.5q0 -62 -32.5 -106.5t-85.5 -61.5z" />
    <glyph glyph-name="four" unicode="4" horiz-adv-x="634" 
d="M309 0l17 123h-326l22 153l383 452h184l-63 -453h90l-22 -152h-90l-17 -123h-178zM193 275h155l29 208z" />
    <glyph glyph-name="five" unicode="5" horiz-adv-x="625" 
d="M595 580h-306l-33 -92q43 20 109 20q98 0 163 -63.5t65 -174.5q0 -124 -86 -202t-218 -78q-112 0 -190.5 65t-72.5 189h163q-3 -48 26.5 -77t73.5 -29q49 0 84 34.5t35 91.5q0 49 -26 77.5t-71 28.5q-47 0 -76.5 -24t-38.5 -52h-160l140 434h439z" />
    <glyph glyph-name="six" unicode="6" horiz-adv-x="635" 
d="M360 505q105 0 175 -66.5t66 -183.5q-4 -121 -83.5 -192.5t-193.5 -71.5q-124 0 -203 84t-76 240q3 115 42 209.5t117 154t182 59.5t172.5 -57t83.5 -152h-164q-7 34 -35.5 50t-64.5 16q-53 0 -89.5 -33t-49.5 -91q47 34 121 34zM433 259q1 50 -27 79.5t-73 29.5
q-49 0 -85 -34t-37 -86q-2 -48 25 -79.5t75 -31.5q51 0 86 35t36 87z" />
    <glyph glyph-name="seven" unicode="7" horiz-adv-x="541" 
d="M366 580h-316l20 148h521l-19 -137q-133 -139 -221.5 -293t-124.5 -298h-172q31 132 113 283t199 297z" />
    <glyph glyph-name="eight" unicode="8" horiz-adv-x="635" 
d="M519 382q33 -19 54 -57.5t21 -92.5q0 -108 -83 -175t-212 -67q-120 0 -195.5 58t-75.5 159q0 69 35 119t88 68q-54 46 -54 128q0 98 77 157t194 59q104 0 175 -54.5t71 -147.5q0 -56 -28 -95.5t-67 -58.5zM348 450q40 0 68.5 24t28.5 61q0 33 -23 53.5t-62 20.5
q-43 0 -70 -25t-27 -60q0 -33 24 -53.5t61 -20.5zM307 133q49 0 80.5 27t31.5 69q0 39 -28 64.5t-74 25.5q-49 0 -81 -28.5t-32 -70.5q0 -39 28.5 -63t74.5 -24z" />
    <glyph glyph-name="nine" unicode="9" horiz-adv-x="637" 
d="M348 738q40 0 76 -9t72.5 -32.5t63 -59t43 -93t16.5 -130.5q0 -116 -37.5 -210t-117 -153.5t-188.5 -59.5q-111 0 -179.5 58t-74.5 151h164q4 -34 31 -49t63 -15q49 0 87 28.5t50 92.5q-50 -33 -119 -33q-39 0 -78 12t-76 37.5t-59.5 73t-22.5 110.5q0 127 84 204t202 77
zM230 470q0 -49 31 -79t75 -30q48 0 82.5 33.5t34.5 87.5q0 50 -30.5 80t-75.5 30q-50 0 -83.5 -35.5t-33.5 -86.5z" />
    <glyph glyph-name="colon" unicode=":" horiz-adv-x="278" 
d="M50 335l27 193h198l-27 -193h-198zM3 0l27 193h198l-27 -193h-198z" />
    <glyph glyph-name="semicolon" unicode=";" horiz-adv-x="267" 
d="M39 335l27 193h198l-27 -193h-198zM3 0l27 193h198l-27 -193l-91 -123h-96l80 123h-91z" />
    <glyph glyph-name="less" unicode="&#x3c;" 
d="M564 591l-24 -173l-317 -100l290 -91l-24 -171l-415 164l29 207z" />
    <glyph glyph-name="equal" unicode="=" 
d="M118 517h434l-19 -140h-434zM85 283h434l-19 -140h-434z" />
    <glyph glyph-name="greater" unicode="&#x3e;" 
d="M53 56l24 174l317 100l-289 96l23 165l415 -163l-29 -207z" />
    <glyph glyph-name="question" unicode="?" horiz-adv-x="554" 
d="M57 494q0 108 70.5 176t198.5 68q114 0 178.5 -54t64.5 -138q0 -37 -14 -68t-36.5 -52t-49.5 -39t-53.5 -34t-49 -32.5t-36.5 -39t-14 -49.5h-149q0 51 21.5 90.5t52.5 64t62 45t52.5 44t21.5 50.5q0 30 -18.5 46.5t-48.5 16.5q-41 0 -61.5 -25.5t-20.5 -69.5h-171z
M110 0l27 193h198l-27 -193h-198z" />
    <glyph glyph-name="at" unicode="@" horiz-adv-x="932" 
d="M498 738q180 0 299.5 -100t119.5 -262q0 -132 -66.5 -213t-161.5 -81q-58 0 -93.5 25.5t-35.5 72.5q-17 -27 -52.5 -48.5t-83.5 -21.5q-76 0 -127.5 53.5t-51.5 141.5q0 98 61.5 171t159.5 73q106 0 140 -79l14 51h85l-60 -289q-15 -71 54 -71q45 0 82 56.5t37 158.5
q0 129 -86 205.5t-230 76.5q-166 0 -267 -101.5t-101 -264.5q0 -145 80.5 -223t225.5 -78q106 0 179 34l27 -71q-84 -44 -210 -44q-184 0 -293 102.5t-109 275.5q0 191 129 320.5t335 129.5zM434 198q94 -9 125 119q18 72 -7 111.5t-71 39.5q-54 0 -88 -51t-34 -112
q0 -49 20.5 -76.5t54.5 -30.5z" />
    <glyph glyph-name="A" unicode="A" horiz-adv-x="730" 
d="M499 0l-28 136h-241l-68 -136h-191l375 728h169l170 -728h-186zM296 267h148l-43 209z" />
    <glyph glyph-name="B" unicode="B" horiz-adv-x="678" 
d="M560 375q42 -19 63.5 -57.5t21.5 -86.5q0 -106 -73 -168.5t-189 -62.5h-360l102 728h309q111 0 172 -50.5t61 -133.5q0 -32 -8.5 -62t-33.5 -61.5t-65 -45.5zM385 431q49 0 72.5 22t23.5 58q0 28 -19 47t-57 19h-123l-21 -146h124zM363 151q43 0 69.5 20t26.5 59
q0 30 -20.5 47t-55.5 17h-141l-20 -143h141z" />
    <glyph glyph-name="C" unicode="C" horiz-adv-x="749" 
d="M379 153q113 0 160 102h195q-33 -125 -131 -194.5t-232 -69.5q-150 0 -241.5 86.5t-91.5 243.5q0 84 28.5 160t80 133t129 90.5t170.5 33.5q133 0 219 -72.5t93 -190.5h-188q-9 49 -48 75t-94 26q-91 0 -147 -69t-56 -173q0 -87 41 -134t113 -47z" />
    <glyph glyph-name="D" unicode="D" horiz-adv-x="740" 
d="M23 0h275q196 0 313.5 106t117.5 283q0 156 -96.5 247.5t-250.5 91.5h-257zM223 154l58 420h64q196 0 196 -188q0 -107 -64 -169.5t-187 -62.5h-67z" />
    <glyph glyph-name="E" unicode="E" horiz-adv-x="595" 
d="M595 574h-314l-18 -134h223l-21 -150h-223l-19 -136h329l-22 -154h-507l102 728h491z" />
    <glyph glyph-name="F" unicode="F" horiz-adv-x="583" 
d="M602 574h-321l-19 -139h257l-21 -150h-257l-40 -285h-178l102 728h498z" />
    <glyph glyph-name="G" unicode="G" horiz-adv-x="793" 
d="M339 -10q-130 0 -216 82.5t-86 236.5q0 180 113.5 304.5t288.5 124.5q134 0 223 -69t101 -182h-190q-13 46 -51 67.5t-87 21.5q-89 0 -149.5 -64.5t-60.5 -177.5q0 -87 42 -135.5t114 -48.5q26 0 51.5 5.5t52 18t46.5 37t29 58.5l4 18h-202l20 142h380l-60 -429h-150
l-1 63q-86 -73 -212 -73z" />
    <glyph glyph-name="H" unicode="H" horiz-adv-x="739" 
d="M505 292h-263l-41 -292h-178l102 728h178l-38 -276h263l38 276h178l-102 -728h-178z" />
    <glyph glyph-name="I" unicode="I" horiz-adv-x="298" 
d="M303 728l-102 -728h-178l102 728h178z" />
    <glyph glyph-name="J" unicode="J" horiz-adv-x="606" 
d="M195 251q-13 -100 77 -100q85 0 98 92l68 485h178l-67 -480q-17 -126 -95.5 -192t-194.5 -66q-118 0 -186 67t-51 194h173z" />
    <glyph glyph-name="K" unicode="K" horiz-adv-x="732" 
d="M23 0l102 728h178l-40 -288l295 288h229l-324 -317l210 -411h-213l-133 279l-100 -98l-26 -181h-178z" />
    <glyph glyph-name="L" unicode="L" horiz-adv-x="581" 
d="M224 162h323l-23 -162h-501l102 728h178z" />
    <glyph glyph-name="M" unicode="M" horiz-adv-x="918" 
d="M450 194l252 534h221l-102 -728h-175l28 198q23 163 47 255l-216 -453h-162l-87 480q-1 -105 -30 -282l-28 -198h-175l102 728h223z" />
    <glyph glyph-name="N" unicode="N" horiz-adv-x="729" 
d="M23 0l102 728h178l193 -436l61 436h177l-102 -728h-177l-195 421l-59 -421h-178z" />
    <glyph glyph-name="O" unicode="O" horiz-adv-x="779" 
d="M39 345q0 175 113.5 284t272.5 109q145 0 243.5 -93.5t98.5 -253.5q0 -173 -113.5 -281.5t-273.5 -108.5q-145 0 -243 92t-98 252zM576 395q0 90 -47 134t-111 44q-79 0 -133.5 -64.5t-54.5 -164.5q0 -89 44 -133.5t108 -44.5q80 0 137 65.5t57 163.5z" />
    <glyph glyph-name="P" unicode="P" horiz-adv-x="665" 
d="M23 0l102 728h297q107 0 176 -62.5t69 -169.5q0 -120 -85 -190.5t-209 -70.5h-135l-33 -235h-182zM259 386h92q60 0 93 28t33 77q0 83 -103 83h-88z" />
    <glyph glyph-name="Q" unicode="Q" horiz-adv-x="811" 
d="M741 144h33l-20 -144h-97q-60 0 -93 45q-85 -44 -184 -44q-145 0 -243 92t-98 252q0 175 113.5 284t272.5 109q145 0 243.5 -93.5t98.5 -253.5q0 -135 -73 -235q15 -12 47 -12zM230 344q0 -89 44 -133.5t108 -44.5q42 0 76 18q-12 14 -23.5 18.5t-34.5 4.5h-51l20 141h90
q35 0 58 -7t46 -32q13 42 13 86q0 90 -47 134t-111 44q-79 0 -133.5 -64.5t-54.5 -164.5z" />
    <glyph glyph-name="R" unicode="R" horiz-adv-x="694" 
d="M23 0l102 728h317q115 0 182.5 -62t67.5 -169q0 -92 -47 -152.5t-123 -87.5l88 -257h-200l-73 233h-103l-33 -233h-178zM254 380h126q56 0 89.5 30t33.5 77q0 87 -93 87h-128z" />
    <glyph glyph-name="S" unicode="S" horiz-adv-x="660" 
d="M302 -10q-133 0 -212 64.5t-66 167.5h172q-5 -40 27.5 -62t91.5 -22q60 0 92 21.5t32 57.5q0 24 -17 38t-58 25l-99 26q-98 26 -145.5 73.5t-47.5 123.5q0 101 77.5 168t229.5 67q54 0 100 -10.5t87.5 -34.5t64 -71t19.5 -112h-169q6 46 -24.5 66t-81.5 20
q-56 0 -85.5 -20t-29.5 -52q0 -23 19 -38.5t68 -27.5l102 -25q179 -44 179 -199q0 -117 -95 -180.5t-231 -63.5z" />
    <glyph glyph-name="T" unicode="T" horiz-adv-x="644" 
d="M455 574l-81 -574h-178l81 574h-213l21 154h604l-21 -154h-213z" />
    <glyph glyph-name="U" unicode="U" horiz-adv-x="720" 
d="M295 728l-63 -447q-9 -68 23 -103t89 -35q56 0 96 33t49 94l64 458h181l-64 -458q-19 -132 -102 -206t-228 -74t-225.5 84.5t-59.5 237.5l58 416h182z" />
    <glyph glyph-name="V" unicode="V" horiz-adv-x="750" 
d="M365 216l231 512h214l-363 -728h-214l-163 728h199z" />
    <glyph glyph-name="W" unicode="W" horiz-adv-x="1096" 
d="M164 0l-86 728h197l33 -486l198 486h217l42 -486l183 486h200l-298 -728h-210l-60 500l-206 -500h-210z" />
    <glyph glyph-name="X" unicode="X" horiz-adv-x="755" 
d="M795 728l-270 -358l178 -370h-215l-116 244l-178 -244h-216l273 370l-168 358h215l103 -245l178 245h216z" />
    <glyph glyph-name="Y" unicode="Y" horiz-adv-x="730" 
d="M269 264l-204 464h204l108 -278l199 278h219l-348 -464l-37 -264h-178z" />
    <glyph glyph-name="Z" unicode="Z" horiz-adv-x="621" 
d="M253 154h321l-22 -154h-549l19 133l388 441h-326l23 154h549l-20 -133z" />
    <glyph glyph-name="bracketleft" unicode="[" horiz-adv-x="351" 
d="M145 870h261l-20 -142h-119l-102 -728h119l-20 -142h-261z" />
    <glyph glyph-name="backslash" unicode="\" horiz-adv-x="639" 
d="M602 0h-174l-358 762h174z" />
    <glyph glyph-name="bracketright" unicode="]" horiz-adv-x="351" 
d="M110 0l102 728h-117l20 142h261l-142 -1012h-261l20 142h117z" />
    <glyph glyph-name="asciicircum" unicode="^" 
d="M132 473l177 255h114l103 -255h-152l-31 84l-58 -84h-153z" />
    <glyph glyph-name="underscore" unicode="_" horiz-adv-x="567" 
d="M-38 -10h567l-22 -155h-567z" />
    <glyph glyph-name="grave" unicode="`" horiz-adv-x="277" 
d="M326 646h-125l-130 164h138z" />
    <glyph glyph-name="a" unicode="a" horiz-adv-x="596" 
d="M535 126h22l-18 -126h-92q-82 0 -93 55q-51 -65 -164 -65q-82 0 -129.5 39t-47.5 112q0 78 55 126t158 48h133l3 20q5 30 -13 48t-56 18t-60 -17.5t-27 -46.5h-156q11 93 80 147t179 54q33 0 64 -5t65 -19.5t57 -37.5t35 -63.5t5 -93.5l-23 -169q-3 -24 23 -24zM341 189
l2 17h-90q-57 0 -57 -43q0 -38 60 -38q77 0 85 64z" />
    <glyph glyph-name="b" unicode="b" horiz-adv-x="664" 
d="M403 539q102 0 166 -68.5t64 -187.5q0 -138 -83.5 -215.5t-193.5 -77.5t-163 64l-15 -54h-165l106 760h176l-38 -271q57 50 146 50zM329 147q52 0 87 36.5t35 92.5q0 48 -27.5 77t-72.5 29q-52 0 -88 -37t-36 -92q0 -49 28.5 -77.5t73.5 -28.5z" />
    <glyph glyph-name="c" unicode="c" horiz-adv-x="591" 
d="M392 307q1 39 -21 60.5t-54 21.5q-48 0 -78 -41t-30 -106q0 -100 80 -100q67 0 89 80h186q-17 -106 -94.5 -169t-193.5 -63q-113 0 -179.5 66.5t-66.5 181.5q0 133 85.5 217t210.5 84q113 0 182.5 -61.5t68.5 -170.5h-185z" />
    <glyph glyph-name="d" unicode="d" horiz-adv-x="663" 
d="M508 760h175l-106 -760h-166l1 44q-62 -54 -159 -54q-41 0 -78.5 13t-71 40t-53.5 76.5t-20 115.5q0 141 78.5 222.5t197.5 81.5q110 0 161 -66zM315 147q50 0 86 36.5t36 91.5q0 50 -29.5 78.5t-72.5 28.5q-50 0 -86 -36.5t-36 -92.5q0 -50 28.5 -78t73.5 -28z" />
    <glyph glyph-name="e" unicode="e" horiz-adv-x="601" 
d="M573 311q2 -51 -11 -94h-368q9 -89 96 -89q64 0 88 49h176q-28 -88 -98 -138.5t-176 -50.5q-101 0 -174.5 64.5t-74.5 188.5q-1 133 84 215.5t208 82.5q112 0 180 -63t70 -165zM313 404q-81 0 -107 -77h200q-7 77 -93 77z" />
    <glyph glyph-name="f" unicode="f" horiz-adv-x="402" 
d="M379 619q-33 0 -49.5 -14.5t-21.5 -46.5l-4 -30h115l-21 -152h-115l-53 -376h-176l53 376h-76l21 152h76l6 42q14 97 57.5 143.5t142.5 46.5h118l-20 -141h-53z" />
    <glyph glyph-name="g" unicode="g" horiz-adv-x="639" 
d="M466 528h161l-70 -498q-34 -240 -291 -240q-114 0 -187 55t-73 144h167q5 -27 31 -42t67 -15q100 0 113 87l4 31q-48 -37 -125 -37q-109 0 -170 66t-61 177q0 125 75 203.5t187 78.5q104 0 154 -62zM309 166q48 0 80.5 34t32.5 85q0 45 -26 71t-68 26q-48 0 -81 -33
t-33 -85q0 -46 27 -72t68 -26z" />
    <glyph glyph-name="h" unicode="h" horiz-adv-x="636" 
d="M405 539q105 0 156 -70.5t34 -187.5l-40 -281h-176l34 266q8 63 -16 89t-62 26q-91 0 -106 -106l-40 -275h-176l106 760h177l-39 -274q51 53 148 53z" />
    <glyph glyph-name="i" unicode="i" horiz-adv-x="276" 
d="M99 591l22 159h167l-22 -159h-167zM13 0l74 528h176l-74 -528h-176z" />
    <glyph glyph-name="j" unicode="j" horiz-adv-x="286" 
d="M110 591l22 159h167l-22 -159h-167zM197 -28q-13 -92 -61.5 -132t-150.5 -40h-76l22 153h35q28 0 41 10.5t17 36.5l73 528h176z" />
    <glyph glyph-name="k" unicode="k" horiz-adv-x="618" 
d="M13 0l106 760h177l-58 -416l197 185h215l-262 -243l172 -286h-198l-100 177l-53 -47l-19 -130h-177z" />
    <glyph glyph-name="l" unicode="l" horiz-adv-x="276" 
d="M13 0l107 760h176l-107 -760h-176z" />
    <glyph glyph-name="m" unicode="m" horiz-adv-x="934" 
d="M722 538q98 0 143.5 -66.5t30.5 -179.5l-40 -293h-176l40 285q13 99 -66 99q-77 0 -95 -95l-40 -288h-169l39 277q15 106 -65 106q-81 0 -95 -99l-40 -284h-176l74 528h166l8 -56q52 66 145 66q108 0 146 -84q59 84 170 84z" />
    <glyph glyph-name="n" unicode="n" horiz-adv-x="630" 
d="M413 538q95 0 145 -66.5t33 -183.5l-40 -288h-176l39 276q15 114 -76 114q-46 0 -74.5 -29.5t-35.5 -84.5l-39 -276h-176l74 528h166l1 -53q58 63 159 63z" />
    <glyph glyph-name="o" unicode="o" horiz-adv-x="622" 
d="M30 243q0 130 88 213.5t216 83.5q105 0 180.5 -71.5t75.5 -193.5q0 -126 -86 -205.5t-213 -79.5q-112 0 -186.5 69.5t-74.5 183.5zM297 138q51 0 85.5 39t34.5 102q0 57 -28.5 85t-68.5 28q-49 0 -82.5 -40.5t-33.5 -104.5q0 -56 26 -82.5t67 -26.5z" />
    <glyph glyph-name="p" unicode="p" horiz-adv-x="666" 
d="M393 540q102 0 172 -65t70 -193q0 -136 -79.5 -214.5t-192.5 -78.5q-52 0 -97 17.5t-70 47.5l-35 -254h-176l102 728h166v-35q53 47 140 47zM327 146q52 0 88.5 37.5t36.5 92.5q0 47 -28 76t-73 29q-51 0 -87.5 -37t-36.5 -93q0 -47 28 -76t72 -29z" />
    <glyph glyph-name="q" unicode="q" horiz-adv-x="665" 
d="M486 529h166l-102 -728h-176l33 237q-57 -48 -152 -48q-101 0 -162.5 67t-61.5 176q0 138 76.5 222t201.5 84q106 0 163 -65zM312 147q51 0 88.5 35.5t37.5 92.5q0 49 -28.5 78t-72.5 29q-52 0 -87.5 -37.5t-35.5 -94.5q0 -49 27.5 -76t70.5 -27z" />
    <glyph glyph-name="r" unicode="r" horiz-adv-x="430" 
d="M364 528h88l-21 -154h-86q-58 0 -82 -22.5t-31 -73.5l-40 -278h-176l74 528h166l9 -44q31 44 99 44z" />
    <glyph glyph-name="s" unicode="s" horiz-adv-x="531" 
d="M3 171h170q-3 -29 16 -44t56 -15q69 0 69 41q0 16 -13.5 26.5t-48.5 17.5l-61 13q-149 31 -149 142q0 84 71.5 135t178.5 51q114 0 175.5 -49t50.5 -126h-171q4 24 -14.5 38.5t-51.5 14.5q-29 0 -45 -10.5t-16 -28.5q0 -15 13 -22.5t48 -15.5l71 -16q145 -33 145 -151
q0 -88 -75 -135t-184 -47q-107 0 -171 46.5t-64 134.5z" />
    <glyph glyph-name="t" unicode="t" horiz-adv-x="405" 
d="M22 376l21 152h25q27 0 40 9t17 38l14 101h176l-21 -148h119l-21 -152h-119l-23 -163q-5 -37 4.5 -48.5t43.5 -11.5h63l-22 -153h-124q-86 0 -122.5 44.5t-22.5 140.5l27 191h-75z" />
    <glyph glyph-name="u" unicode="u" horiz-adv-x="602" 
d="M425 529h164l-74 -529h-162v54q-53 -64 -151 -64q-83 0 -131.5 53t-34.5 154l46 332h165l-39 -284q-7 -56 10 -81t61 -25t71 26t34 74z" />
    <glyph glyph-name="v" unicode="v" horiz-adv-x="608" 
d="M221 528l62 -355l166 355h191l-277 -528h-202l-119 528h179z" />
    <glyph glyph-name="w" unicode="w" horiz-adv-x="852" 
d="M229 528l19 -337l123 337h189l24 -339l113 339h182l-214 -528h-193l-28 347l-136 -347h-194l-67 528h182z" />
    <glyph glyph-name="x" unicode="x" horiz-adv-x="617" 
d="M-15 0l204 277l-140 251h202l71 -150l113 150h206l-216 -264l141 -264h-198l-77 154l-105 -154h-201z" />
    <glyph glyph-name="y" unicode="y" 
d="M214 528l68 -359l163 359h187l-306 -611q-17 -34 -38 -57t-39 -35t-46.5 -17.5t-45 -6.5t-49.5 -1h-142l22 154h140q38 0 38 33q0 9 -5 29l-126 512h179z" />
    <glyph glyph-name="z" unicode="z" horiz-adv-x="522" 
d="M248 154h222l-22 -154h-450l22 154l256 220h-223l21 154h450l-21 -154z" />
    <glyph glyph-name="braceleft" unicode="{" horiz-adv-x="339" 
d="M271 687l-32 -225q-5 -32 -21.5 -59t-39.5 -38q44 -31 34 -98l-32 -224q-1 -15 0 -23.5t7 -13t12 -5.5t15 -1h58l-20 -142h-65q-78 0 -119 42.5t-30 121.5l29 207q5 38 -9.5 54t-37.5 16l19 132q23 0 42 16t24 54l32 227q9 68 51.5 106t115.5 38h91l-20 -142h-58
q-13 0 -21 -2.5t-15.5 -12.5t-9.5 -28z" />
    <glyph glyph-name="bar" unicode="|" horiz-adv-x="281" 
d="M33 -83l124 884h117l-124 -884h-117z" />
    <glyph glyph-name="braceright" unicode="}" horiz-adv-x="339" 
d="M195 872q76 0 111 -41.5t24 -122.5l-30 -207q-5 -37 9.5 -53.5t38.5 -16.5l-19 -132q-23 0 -42.5 -16t-24.5 -54l-29 -207q-11 -81 -58 -122.5t-123 -41.5h-79l20 142h58q19 0 30.5 8t15.5 35l31 224q10 67 61 98q-20 11 -29 37.5t-4 59.5l32 225q3 27 -6 35t-28 8h-58
l20 142h79z" />
    <glyph glyph-name="asciitilde" unicode="~" 
d="M320 342q3 -2 9 -7q50 -39 69 -39t31 17.5t12 50.5h124q0 -88 -42 -143t-117 -55q-28 0 -53.5 9.5t-40 19.5t-41.5 32q-6 5 -14.5 12t-12 9.5t-9 7t-9 6t-8 2.5t-9.5 1q-45 0 -45 -68h-124q0 88 41 143t117 55q33 0 59.5 -12.5t62.5 -40.5z" />
    <glyph glyph-name="exclamdown" unicode="&#xa1;" horiz-adv-x="298" 
d="M118 748h198l-28 -198h-198zM62 214q23 163 62 296h120q1 -131 -22 -296l-30 -214h-160z" />
    <glyph glyph-name="cent" unicode="&#xa2;" horiz-adv-x="592" 
d="M281 237q61 0 87 61h179q-20 -92 -80.5 -146t-152.5 -65l-12 -87h-111l13 92q-80 19 -125 81t-45 151q0 121 65.5 207t180.5 102l13 95h111l-14 -98q79 -17 126.5 -73t48.5 -137h-178q-10 65 -71 65q-50 0 -79.5 -41.5t-29.5 -109.5q0 -46 19 -71.5t55 -25.5z" />
    <glyph glyph-name="sterling" unicode="&#xa3;" horiz-adv-x="672" 
d="M475 217h150q0 -98 -48.5 -157.5t-150.5 -59.5h-391l20 141q44 4 78 35t34 78q0 19 -6 40h-97l16 114h45q-13 52 -13 89q0 99 68 170t195 71q112 0 177.5 -58.5t65.5 -156.5h-171q0 29 -19 50t-59 22q-38 0 -61 -23t-23 -66q0 -38 22 -98h171l-16 -114h-124q1 -6 1 -19
q0 -79 -63 -125h132q67 0 67 67z" />
    <glyph glyph-name="currency" unicode="&#xa4;" horiz-adv-x="790" 
d="M656 520q43 -65 43 -147q0 -114 -79 -203l73 -85l-90 -79l-78 91q-65 -34 -140 -34q-85 0 -154 44l-114 -101l-68 79l109 95q-43 67 -43 153q0 119 78 204l-69 80l90 79l74 -87q66 32 139 32q90 0 157 -47l116 102l68 -79zM283 341q0 -51 33 -83.5t81 -32.5
q55 0 94.5 37.5t39.5 97.5q0 54 -34 86.5t-81 32.5q-62 0 -97.5 -40.5t-35.5 -97.5z" />
    <glyph glyph-name="yen" unicode="&#xa5;" horiz-adv-x="761" 
d="M85 728h205l107 -288l200 288h209l-257 -355h88l-16 -114h-154l-6 -46h154l-16 -114h-154l-14 -99h-178l14 99h-150l16 114h150l6 46h-150l16 114h84z" />
    <glyph glyph-name="brokenbar" unicode="&#xa6;" horiz-adv-x="281" 
d="M106 437l51 364h117l-51 -364h-117zM33 -83l51 364h117l-51 -364h-117z" />
    <glyph glyph-name="section" unicode="&#xa7;" horiz-adv-x="502" 
d="M387 270q66 -41 66 -120q0 -78 -58 -119t-152 -41q-103 0 -165 48t-62 127h154q0 -27 17.5 -42t47.5 -15q52 0 52 35q0 11 -7 19t-14.5 11.5t-22.5 8.5l-94 31q-120 40 -120 139q0 77 66 109q-61 42 -61 115t56.5 117.5t149.5 44.5q95 0 153 -46.5t58 -122.5h-152
q0 24 -15.5 37.5t-40.5 13.5q-21 0 -34 -10t-13 -25q0 -16 11.5 -23t41.5 -16l70 -22q140 -44 140 -151q0 -70 -72 -103zM176 369q0 -14 9.5 -23t19.5 -13t30 -9q23 -6 40 4t17 29q0 13 -6.5 22t-14.5 13t-22 9q-39 10 -56 0.5t-17 -32.5z" />
    <glyph glyph-name="dieresis" unicode="&#xa8;" horiz-adv-x="469" 
d="M102 647l20 145h152l-20 -145h-152zM327 647l20 145h152l-20 -145h-152z" />
    <glyph glyph-name="copyright" unicode="&#xa9;" horiz-adv-x="824" 
d="M799 362q0 -154 -109 -263t-263 -109t-264.5 110t-110.5 262q0 155 110 265t265 110q156 0 264 -109.5t108 -265.5zM425 639q-113 0 -193.5 -82t-80.5 -197q0 -112 80 -191.5t194 -79.5q116 0 196 78.5t80 192.5q0 116 -80.5 197.5t-195.5 81.5zM428 153q77 0 130 41
t67 108h-110q-9 -28 -32.5 -42.5t-53.5 -14.5q-46 0 -72 32t-26 87t26 87.5t72 32.5q30 0 53.5 -15t32.5 -42h110q-13 69 -65 108.5t-127 39.5q-95 0 -150.5 -60t-55.5 -155q0 -94 55 -150.5t146 -56.5z" />
    <glyph glyph-name="ordfeminine" unicode="&#xaa;" horiz-adv-x="256" 
d="M179 740q49 0 77 -28.5t28 -80.5v-143h-57l-7 22q-18 -28 -66 -28q-37 0 -62.5 21.5t-25.5 59.5q0 34 22.5 55t65.5 21h68v7q0 41 -48 41q-21 0 -34.5 -9t-13.5 -24h-55q0 44 33 65t75 21zM168 536q23 0 38.5 11.5t15.5 31.5v17h-54q-40 0 -40 -30t40 -30z" />
    <glyph glyph-name="guillemotleft" unicode="&#xab;" horiz-adv-x="691" 
d="M193 56l-157 239l223 233h181l-222 -233l156 -239h-181zM454 56l-157 239l223 233h181l-222 -233l156 -239h-181z" />
    <glyph glyph-name="logicalnot" unicode="&#xac;" 
d="M531 367l-21 -154l-19 -135h-148l19 135h-306l21 154h454z" />
    <glyph glyph-name="registered" unicode="&#xae;" horiz-adv-x="538" 
d="M535 506q0 -97 -66 -164.5t-166 -67.5q-97 0 -164 68t-67 164q0 95 67 163.5t164 68.5q100 0 166 -68t66 -164zM303 671q-73 0 -118 -47.5t-45 -117.5q0 -69 45 -116.5t118 -47.5q77 0 121 47t44 117t-45 117.5t-120 47.5zM283 478h15l36 -75h67l-44 83q39 19 39 63
q0 32 -22 51t-53 19h-98v-216h60v75zM308 568q28 0 28 -23q0 -24 -28 -24h-25v47h25z" />
    <glyph glyph-name="macron" unicode="&#xaf;" horiz-adv-x="395" 
d="M106 782h329l-16 -111h-329z" />
    <glyph glyph-name="degree" unicode="&#xb0;" horiz-adv-x="373" 
d="M231 423q-65 0 -110 45t-45 110q0 64 45 109.5t110 45.5t110 -45t45 -110t-45 -110t-110 -45zM231 519q25 0 42.5 17.5t17.5 42.5q0 24 -17.5 41.5t-42.5 17.5q-24 0 -41.5 -17.5t-17.5 -41.5q0 -25 17.5 -42.5t41.5 -17.5z" />
    <glyph glyph-name="plusminus" unicode="&#xb1;" 
d="M409 483h161l-21 -154h-161l-16 -111h-154l16 111h-163l21 154h163l16 110h154zM24 0l22 154h478l-22 -154h-478z" />
    <glyph glyph-name="acute" unicode="&#xb4;" horiz-adv-x="234" 
d="M93 646l117 164h138l-130 -164h-125z" />
    <glyph glyph-name="uni00B5" unicode="&#xb5;" horiz-adv-x="690" 
d="M614 150l30 -1l-21 -149h-67q-93 0 -113 55q-20 -29 -59 -47t-84 -18q-35 0 -63.5 10t-38.5 26l-32 -226h-165l102 728h165l-41 -292q-7 -45 16.5 -71t65.5 -26q44 0 69 26.5t30 62.5l42 300h166l-45 -318q-5 -32 3.5 -45.5t39.5 -14.5z" />
    <glyph glyph-name="paragraph" unicode="&#xb6;" horiz-adv-x="757" 
d="M535 -190v748h-97v-748h-168v539h-7q-74 0 -130 50t-57 134q-1 88 52 141.5t135 53.5h514v-170h-74v-748h-168z" />
    <glyph glyph-name="periodcentered" unicode="&#xb7;" horiz-adv-x="310" 
d="M151 204q-40 0 -68 27t-28 68q0 45 32.5 77.5t79.5 32.5q40 0 68 -26.5t28 -67.5q0 -46 -32 -78.5t-80 -32.5z" />
    <glyph glyph-name="cedilla" unicode="&#xb8;" horiz-adv-x="290" 
d="M89 6l53 -13l-17 -40q38 1 61 -18t23 -55q0 -42 -31 -66t-81 -24t-80 25.5t-24 63.5h75q0 -21 26 -21q27 0 27 25q0 15 -11.5 21t-29.5 2l-29 18z" />
    <glyph glyph-name="ordmasculine" unicode="&#xba;" horiz-adv-x="300" 
d="M68 581q0 57 35.5 93.5t91.5 36.5q55 0 90.5 -36.5t35.5 -93.5q0 -56 -35.5 -92.5t-90.5 -36.5q-56 0 -91.5 36.5t-35.5 92.5zM130 581q0 -33 17 -54t48 -21t47.5 21t16.5 54q0 34 -16.5 55t-47.5 21t-48 -21t-17 -55z" />
    <glyph glyph-name="guillemotright" unicode="&#xbb;" horiz-adv-x="695" 
d="M246 529l157 -233l-223 -239h-182l224 239l-158 233h182zM511 529l157 -233l-223 -239h-182l224 239l-158 233h182z" />
    <glyph glyph-name="onequarter" unicode="&#xbc;" horiz-adv-x="811" 
d="M294 350h-232l12 82h75l29 207l-85 -38l12 86l85 41h88l-42 -296h70zM603 728h103l-460 -728h-103zM729 142h48l-12 -77h-47l-9 -65h-90l9 65h-170l11 77l200 236h93zM639 142l16 112l-99 -112h83z" />
    <glyph glyph-name="onehalf" unicode="&#xbd;" horiz-adv-x="836" 
d="M294 350h-232l12 82h75l29 207l-85 -38l12 86l85 41h88l-42 -296h70zM603 728h103l-460 -728h-103zM730 132l-69 -50h133l-12 -82h-265l11 80l154 113q18 13 26 19.5t16 19t8 25.5q0 20 -12 33t-36 13q-50 0 -57 -58h-84q4 68 44.5 103t101.5 35q60 0 96.5 -31.5
t36.5 -85.5q0 -29 -15 -56t-32 -42t-45 -36z" />
    <glyph glyph-name="threequarters" unicode="&#xbe;" horiz-adv-x="830" 
d="M333 462q0 -56 -43.5 -86.5t-105.5 -30.5q-65 0 -103.5 37.5t-30.5 97.5h85q-4 -29 11 -44.5t39 -15.5q22 0 37.5 12.5t15.5 34.5q0 17 -11.5 28.5t-34.5 11.5h-34l10 67h35q53 0 53 44q0 19 -12.5 30t-33.5 11q-26 0 -41 -16.5t-17 -43.5h-84q5 61 45 97.5t106 36.5
q59 0 94.5 -29t35.5 -77q0 -32 -17 -55t-45 -32q46 -21 46 -78zM622 728h103l-460 -728h-103zM748 142h48l-12 -77h-47l-9 -65h-90l9 65h-170l11 77l200 236h93zM658 142l16 112l-99 -112h83z" />
    <glyph glyph-name="questiondown" unicode="&#xbf;" horiz-adv-x="544" 
d="M468 728l-27 -193h-198l27 193h198zM521 234q0 -108 -70.5 -176t-198.5 -68q-114 0 -178.5 54t-64.5 138q0 37 14 68t36.5 52t49 39t53.5 34t49.5 32.5t36.5 39t14 49.5h149q0 -51 -21.5 -90.5t-52.5 -64t-62 -45t-52.5 -44t-21.5 -50.5q0 -30 18.5 -46.5t48.5 -16.5
q41 0 61.5 25.5t20.5 69.5h171z" />
    <glyph glyph-name="Agrave" unicode="&#xc0;" horiz-adv-x="730" 
d="M492 778h-125l-130 164h138zM499 0l-28 136h-241l-68 -136h-191l375 728h169l170 -728h-186zM296 267h148l-43 209z" />
    <glyph glyph-name="Aacute" unicode="&#xc1;" horiz-adv-x="730" 
d="M630 942l-130 -164h-125l117 164h138zM499 0l-28 136h-241l-68 -136h-191l375 728h169l170 -728h-186zM296 267h148l-43 209z" />
    <glyph glyph-name="Acircumflex" unicode="&#xc2;" horiz-adv-x="730" 
d="M448 844l-52 -66h-139l138 164h134l90 -164h-139zM499 0l-28 136h-241l-68 -136h-191l375 728h169l170 -728h-186zM296 267h148l-43 209z" />
    <glyph glyph-name="Atilde" unicode="&#xc3;" horiz-adv-x="730" 
d="M367 834q-43 0 -49 -44h-85q2 69 40 110t96 41q40 0 82.5 -26.5t62.5 -26.5q42 0 48 44h85q-2 -69 -39.5 -110t-95.5 -41q-40 0 -82 26.5t-63 26.5zM499 0l-28 136h-241l-68 -136h-191l375 728h169l170 -728h-186zM296 267h148l-43 209z" />
    <glyph glyph-name="Adieresis" unicode="&#xc4;" horiz-adv-x="730" 
d="M422 924l-20 -145h-152l20 145h152zM647 924l-20 -145h-152l20 145h152zM499 0l-28 136h-241l-68 -136h-191l375 728h169l170 -728h-186zM296 267h148l-43 209z" />
    <glyph glyph-name="Aring" unicode="&#xc5;" horiz-adv-x="730" 
d="M499 0l-28 136h-241l-68 -136h-191l375 728h32q-35 14 -56 44.5t-21 72.5q0 62 42 99t100 37q55 0 93 -35t38 -92q0 -46 -23.5 -79t-62.5 -47h27l170 -728h-186zM440 900q-23 0 -38 -15t-15 -39q0 -20 14 -33.5t35 -13.5q23 0 38 15t15 39q0 20 -14 33.5t-35 13.5z
M296 267h148l-43 209z" />
    <glyph glyph-name="AE" unicode="&#xc6;" horiz-adv-x="1034" 
d="M-42 0l524 728h573l-21 -154h-313l-19 -134h223l-21 -150h-223l-19 -136h329l-22 -154h-497l21 146h-221l-101 -146h-213zM369 287h143l36 259z" />
    <glyph glyph-name="Ccedilla" unicode="&#xc7;" horiz-adv-x="749" 
d="M379 153q113 0 160 102h195q-32 -119 -123 -188t-217 -75l-13 -32q38 1 61 -18t23 -55q0 -42 -31 -66t-81 -24t-80 25.5t-24 63.5h75q0 -21 26 -21q27 0 27 25q0 15 -11.5 21t-29.5 2l-29 18l28 61q-135 11 -216 96.5t-81 232.5q0 84 28.5 160t80 133t129 90.5
t170.5 33.5q133 0 219 -72.5t93 -190.5h-188q-9 49 -48 75t-94 26q-91 0 -147 -69t-56 -173q0 -87 41 -134t113 -47z" />
    <glyph glyph-name="Egrave" unicode="&#xc8;" horiz-adv-x="595" 
d="M432 778h-125l-130 164h138zM595 574h-314l-18 -134h223l-21 -150h-223l-19 -136h329l-22 -154h-507l102 728h491z" />
    <glyph glyph-name="Eacute" unicode="&#xc9;" horiz-adv-x="595" 
d="M570 942l-130 -164h-125l117 164h138zM595 574h-314l-18 -134h223l-21 -150h-223l-19 -136h329l-22 -154h-507l102 728h491z" />
    <glyph glyph-name="Ecircumflex" unicode="&#xca;" horiz-adv-x="595" 
d="M388 844l-52 -66h-139l138 164h134l90 -164h-139zM595 574h-314l-18 -134h223l-21 -150h-223l-19 -136h329l-22 -154h-507l102 728h491z" />
    <glyph glyph-name="Edieresis" unicode="&#xcb;" horiz-adv-x="595" 
d="M362 924l-20 -145h-152l20 145h152zM587 924l-20 -145h-152l20 145h152zM595 574h-314l-18 -134h223l-21 -150h-223l-19 -136h329l-22 -154h-507l102 728h491z" />
    <glyph glyph-name="Igrave" unicode="&#xcc;" horiz-adv-x="298" 
d="M275 778h-125l-130 164h138zM303 728l-102 -728h-178l102 728h178z" />
    <glyph glyph-name="Iacute" unicode="&#xcd;" horiz-adv-x="298" 
d="M158 778l117 164h138l-130 -164h-125zM303 728l-102 -728h-178l102 728h178z" />
    <glyph glyph-name="Icircumflex" unicode="&#xce;" horiz-adv-x="298" 
d="M40 778l138 164h134l90 -164h-139l-32 66l-52 -66h-139zM303 728l-102 -728h-178l102 728h178z" />
    <glyph glyph-name="Idieresis" unicode="&#xcf;" horiz-adv-x="298" 
d="M33 779l20 145h152l-20 -145h-152zM258 779l20 145h152l-20 -145h-152zM303 728l-102 -728h-178l102 728h178z" />
    <glyph glyph-name="Eth" unicode="&#xd0;" horiz-adv-x="758" 
d="M400 728q154 0 250.5 -91.5t96.5 -247.5q0 -177 -117.5 -283t-313.5 -106h-275l41 292h-67l20 145h67l41 291h257zM308 154q123 0 187 62.5t64 169.5q0 188 -196 188h-64l-19 -137h90l-20 -145h-90l-19 -138h67z" />
    <glyph glyph-name="Ntilde" unicode="&#xd1;" horiz-adv-x="729" 
d="M368 941q40 0 82.5 -26.5t62.5 -26.5q42 0 48 44h85q-2 -69 -39.5 -110t-95.5 -41q-39 0 -81.5 26.5t-63.5 26.5q-43 0 -49 -44h-85q2 69 40 110t96 41zM23 0l102 728h178l193 -436l61 436h177l-102 -728h-177l-195 421l-59 -421h-178z" />
    <glyph glyph-name="Ograve" unicode="&#xd2;" horiz-adv-x="779" 
d="M486 788h-125l-130 164h138zM39 345q0 175 113.5 284t272.5 109q145 0 243.5 -93.5t98.5 -253.5q0 -173 -113.5 -281.5t-273.5 -108.5q-145 0 -243 92t-98 252zM576 395q0 90 -47 134t-111 44q-79 0 -133.5 -64.5t-54.5 -164.5q0 -89 44 -133.5t108 -44.5q80 0 137 65.5
t57 163.5z" />
    <glyph glyph-name="Oacute" unicode="&#xd3;" horiz-adv-x="779" 
d="M369 788l117 164h138l-130 -164h-125zM39 345q0 175 113.5 284t272.5 109q145 0 243.5 -93.5t98.5 -253.5q0 -173 -113.5 -281.5t-273.5 -108.5q-145 0 -243 92t-98 252zM576 395q0 90 -47 134t-111 44q-79 0 -133.5 -64.5t-54.5 -164.5q0 -89 44 -133.5t108 -44.5
q80 0 137 65.5t57 163.5z" />
    <glyph glyph-name="Ocircumflex" unicode="&#xd4;" horiz-adv-x="779" 
d="M251 788l138 164h134l90 -164h-139l-32 66l-52 -66h-139zM39 345q0 175 113.5 284t272.5 109q145 0 243.5 -93.5t98.5 -253.5q0 -173 -113.5 -281.5t-273.5 -108.5q-145 0 -243 92t-98 252zM576 395q0 90 -47 134t-111 44q-79 0 -133.5 -64.5t-54.5 -164.5
q0 -89 44 -133.5t108 -44.5q80 0 137 65.5t57 163.5z" />
    <glyph glyph-name="Otilde" unicode="&#xd5;" horiz-adv-x="779" 
d="M363 951q40 0 82.5 -26.5t62.5 -26.5q42 0 48 44h85q-2 -69 -39.5 -110t-95.5 -41q-39 0 -81.5 26.5t-63.5 26.5q-43 0 -49 -44h-85q2 69 40 110t96 41zM39 345q0 175 113.5 284t272.5 109q145 0 243.5 -93.5t98.5 -253.5q0 -173 -113.5 -281.5t-273.5 -108.5
q-145 0 -243 92t-98 252zM576 395q0 90 -47 134t-111 44q-79 0 -133.5 -64.5t-54.5 -164.5q0 -89 44 -133.5t108 -44.5q80 0 137 65.5t57 163.5z" />
    <glyph glyph-name="Odieresis" unicode="&#xd6;" horiz-adv-x="779" 
d="M244 789l20 145h152l-20 -145h-152zM469 789l20 145h152l-20 -145h-152zM39 345q0 175 113.5 284t272.5 109q145 0 243.5 -93.5t98.5 -253.5q0 -173 -113.5 -281.5t-273.5 -108.5q-145 0 -243 92t-98 252zM576 395q0 90 -47 134t-111 44q-79 0 -133.5 -64.5t-54.5 -164.5
q0 -89 44 -133.5t108 -44.5q80 0 137 65.5t57 163.5z" />
    <glyph glyph-name="multiply" unicode="&#xd7;" 
d="M50 169l152 133l-111 129l116 103l112 -130l150 130l91 -106l-150 -130l114 -132l-116 -103l-114 133l-153 -133z" />
    <glyph glyph-name="Oslash" unicode="&#xd8;" horiz-adv-x="779" 
d="M659 654q108 -97 108 -263q0 -173 -113.5 -281.5t-273.5 -108.5q-65 0 -123 20l-33 -52h-142l70 110q-113 95 -113 266q0 175 113.5 284t272.5 109q68 0 131 -23l27 43h142zM226 344q0 -66 25 -108l213 335q-22 6 -46 6q-80 0 -136 -65.5t-56 -167.5zM382 163
q82 0 140 66t58 166q0 59 -22 100l-209 -329q17 -3 33 -3z" />
    <glyph glyph-name="Ugrave" unicode="&#xd9;" horiz-adv-x="720" 
d="M485 778h-125l-130 164h138zM295 728l-63 -447q-9 -68 23 -103t89 -35q56 0 96 33t49 94l64 458h181l-64 -458q-19 -132 -102 -206t-228 -74t-225.5 84.5t-59.5 237.5l58 416h182z" />
    <glyph glyph-name="Uacute" unicode="&#xda;" horiz-adv-x="720" 
d="M368 778l117 164h138l-130 -164h-125zM295 728l-63 -447q-9 -68 23 -103t89 -35q56 0 96 33t49 94l64 458h181l-64 -458q-19 -132 -102 -206t-228 -74t-225.5 84.5t-59.5 237.5l58 416h182z" />
    <glyph glyph-name="Ucircumflex" unicode="&#xdb;" horiz-adv-x="720" 
d="M250 778l138 164h134l90 -164h-139l-32 66l-52 -66h-139zM295 728l-63 -447q-9 -68 23 -103t89 -35q56 0 96 33t49 94l64 458h181l-64 -458q-19 -132 -102 -206t-228 -74t-225.5 84.5t-59.5 237.5l58 416h182z" />
    <glyph glyph-name="Udieresis" unicode="&#xdc;" horiz-adv-x="720" 
d="M243 779l20 145h152l-20 -145h-152zM468 779l20 145h152l-20 -145h-152zM295 728l-63 -447q-9 -68 23 -103t89 -35q56 0 96 33t49 94l64 458h181l-64 -458q-19 -132 -102 -206t-228 -74t-225.5 84.5t-59.5 237.5l58 416h182z" />
    <glyph glyph-name="Yacute" unicode="&#xdd;" horiz-adv-x="730" 
d="M367 778l117 164h138l-130 -164h-125zM269 264l-204 464h204l108 -278l199 278h219l-348 -464l-37 -264h-178z" />
    <glyph glyph-name="Thorn" unicode="&#xde;" horiz-adv-x="654" 
d="M387 611q117 0 184.5 -65.5t67.5 -171.5q0 -114 -76.5 -185t-188.5 -71h-158l-17 -118h-181l102 728h181l-16 -117h102zM330 269q60 0 93 26t33 73q0 41 -25.5 65t-71.5 24h-96l-26 -188h93z" />
    <glyph glyph-name="germandbls" unicode="&#xdf;" horiz-adv-x="646" 
d="M494 400q55 -17 86.5 -64.5t31.5 -111.5q0 -102 -72 -168t-199 -66q-82 0 -120 22l19 137q30 -25 81 -25q45 0 77.5 24t32.5 73q0 58 -38.5 80.5t-96.5 15.5l18 128q115 0 115 93q0 31 -19.5 49.5t-53.5 18.5q-84 0 -97 -91l-71 -515h-176l65 479q35 259 279 259
q108 0 171 -49.5t63 -132.5q0 -58 -27.5 -97t-68.5 -59z" />
    <glyph glyph-name="agrave" unicode="&#xe0;" horiz-adv-x="596" 
d="M389 578h-125l-130 164h138zM535 126h22l-18 -126h-92q-82 0 -93 55q-51 -65 -164 -65q-82 0 -129.5 39t-47.5 112q0 78 55 126t158 48h133l3 20q5 30 -13 48t-56 18t-60 -17.5t-27 -46.5h-156q11 93 80 147t179 54q33 0 64 -5t65 -19.5t57 -37.5t35 -63.5t5 -93.5
l-23 -169q-3 -24 23 -24zM341 189l2 17h-90q-57 0 -57 -43q0 -38 60 -38q77 0 85 64z" />
    <glyph glyph-name="aacute" unicode="&#xe1;" horiz-adv-x="596" 
d="M527 742l-130 -164h-125l117 164h138zM535 126h22l-18 -126h-92q-82 0 -93 55q-51 -65 -164 -65q-82 0 -129.5 39t-47.5 112q0 78 55 126t158 48h133l3 20q5 30 -13 48t-56 18t-60 -17.5t-27 -46.5h-156q11 93 80 147t179 54q33 0 64 -5t65 -19.5t57 -37.5t35 -63.5
t5 -93.5l-23 -169q-3 -24 23 -24zM341 189l2 17h-90q-57 0 -57 -43q0 -38 60 -38q77 0 85 64z" />
    <glyph glyph-name="acircumflex" unicode="&#xe2;" horiz-adv-x="596" 
d="M345 644l-52 -66h-139l138 164h134l90 -164h-139zM535 126h22l-18 -126h-92q-82 0 -93 55q-51 -65 -164 -65q-82 0 -129.5 39t-47.5 112q0 78 55 126t158 48h133l3 20q5 30 -13 48t-56 18t-60 -17.5t-27 -46.5h-156q11 93 80 147t179 54q33 0 64 -5t65 -19.5t57 -37.5
t35 -63.5t5 -93.5l-23 -169q-3 -24 23 -24zM341 189l2 17h-90q-57 0 -57 -43q0 -38 60 -38q77 0 85 64z" />
    <glyph glyph-name="atilde" unicode="&#xe3;" horiz-adv-x="596" 
d="M264 634q-43 0 -49 -44h-85q2 69 40 110t96 41q40 0 82.5 -26.5t62.5 -26.5q42 0 48 44h85q-2 -69 -39.5 -110t-95.5 -41q-39 0 -81 26.5t-64 26.5zM535 126h22l-18 -126h-92q-82 0 -93 55q-51 -65 -164 -65q-82 0 -129.5 39t-47.5 112q0 78 55 126t158 48h133l3 20
q5 30 -13 48t-56 18t-60 -17.5t-27 -46.5h-156q11 93 80 147t179 54q33 0 64 -5t65 -19.5t57 -37.5t35 -63.5t5 -93.5l-23 -169q-3 -24 23 -24zM341 189l2 17h-90q-57 0 -57 -43q0 -38 60 -38q77 0 85 64z" />
    <glyph glyph-name="adieresis" unicode="&#xe4;" horiz-adv-x="596" 
d="M319 724l-20 -145h-152l20 145h152zM544 724l-20 -145h-152l20 145h152zM535 126h22l-18 -126h-92q-82 0 -93 55q-51 -65 -164 -65q-82 0 -129.5 39t-47.5 112q0 78 55 126t158 48h133l3 20q5 30 -13 48t-56 18t-60 -17.5t-27 -46.5h-156q11 93 80 147t179 54q33 0 64 -5
t65 -19.5t57 -37.5t35 -63.5t5 -93.5l-23 -169q-3 -24 23 -24zM341 189l2 17h-90q-57 0 -57 -43q0 -38 60 -38q77 0 85 64z" />
    <glyph glyph-name="aring" unicode="&#xe5;" horiz-adv-x="596" 
d="M535 126h22l-18 -126h-92q-82 0 -93 55q-51 -65 -164 -65q-82 0 -129.5 39t-47.5 112q0 78 55 126t158 48h133l3 20q5 30 -13 48t-56 18t-60 -17.5t-27 -46.5h-156q9 76 58.5 127t129.5 67q-40 35 -40 94q0 62 42 99t100 37q55 0 93 -35t38 -92q0 -72 -57 -111
q143 -44 121 -204l-23 -169q-3 -24 23 -24zM337 680q-23 0 -38 -15t-15 -39q0 -20 14 -33.5t35 -13.5q23 0 38 15t15 39q0 20 -14 33.5t-35 13.5zM341 189l2 17h-90q-57 0 -57 -43q0 -38 60 -38q77 0 85 64z" />
    <glyph glyph-name="ae" unicode="&#xe6;" horiz-adv-x="915" 
d="M640 539q125 0 191 -81.5t50 -201.5l-5 -38h-358q-3 -46 21.5 -68t65.5 -22q69 0 94 49h168q-31 -97 -102.5 -143t-164.5 -46q-135 0 -196 89q-61 -87 -200 -87q-90 0 -140.5 40.5t-50.5 109.5q0 83 58.5 129t154.5 46h133l4 25q4 28 -14 44.5t-54 16.5q-39 0 -61 -18
t-26 -46h-158q10 91 83 146t173 55q108 0 159 -59q71 60 175 60zM716 328q1 37 -21 56t-59 19t-66 -19t-37 -56h183zM341 189l2 17h-90q-57 0 -57 -43q0 -38 60 -38q77 0 85 64z" />
    <glyph glyph-name="ccedilla" unicode="&#xe7;" horiz-adv-x="591" 
d="M577 307h-185q1 39 -21 60.5t-54 21.5q-48 0 -78 -41t-30 -106q0 -100 80 -100q67 0 89 80h186q-16 -101 -88 -163.5t-181 -68.5l-9 -21q38 1 61 -18t23 -55q0 -42 -31 -66t-81 -24t-80 25.5t-24 63.5h75q0 -21 26 -21q27 0 27 25q0 15 -11.5 21t-29.5 2l-29 18l24 52
q-96 12 -151 77t-55 169q0 133 85.5 217t210.5 84q113 0 182.5 -61.5t68.5 -170.5z" />
    <glyph glyph-name="egrave" unicode="&#xe8;" horiz-adv-x="601" 
d="M384 579h-125l-130 164h138zM573 311q2 -51 -11 -94h-368q9 -89 96 -89q64 0 88 49h176q-28 -88 -98 -138.5t-176 -50.5q-101 0 -174.5 64.5t-74.5 188.5q-1 133 84 215.5t208 82.5q112 0 180 -63t70 -165zM313 404q-81 0 -107 -77h200q-7 77 -93 77z" />
    <glyph glyph-name="eacute" unicode="&#xe9;" horiz-adv-x="601" 
d="M522 743l-130 -164h-125l117 164h138zM573 311q2 -51 -11 -94h-368q9 -89 96 -89q64 0 88 49h176q-28 -88 -98 -138.5t-176 -50.5q-101 0 -174.5 64.5t-74.5 188.5q-1 133 84 215.5t208 82.5q112 0 180 -63t70 -165zM313 404q-81 0 -107 -77h200q-7 77 -93 77z" />
    <glyph glyph-name="ecircumflex" unicode="&#xea;" horiz-adv-x="601" 
d="M340 645l-52 -66h-139l138 164h134l90 -164h-139zM573 311q2 -51 -11 -94h-368q9 -89 96 -89q64 0 88 49h176q-28 -88 -98 -138.5t-176 -50.5q-101 0 -174.5 64.5t-74.5 188.5q-1 133 84 215.5t208 82.5q112 0 180 -63t70 -165zM313 404q-81 0 -107 -77h200q-7 77 -93 77
z" />
    <glyph glyph-name="edieresis" unicode="&#xeb;" horiz-adv-x="601" 
d="M314 725l-20 -145h-152l20 145h152zM539 725l-20 -145h-152l20 145h152zM573 311q2 -51 -11 -94h-368q9 -89 96 -89q64 0 88 49h176q-28 -88 -98 -138.5t-176 -50.5q-101 0 -174.5 64.5t-74.5 188.5q-1 133 84 215.5t208 82.5q112 0 180 -63t70 -165zM313 404
q-81 0 -107 -77h200q-7 77 -93 77z" />
    <glyph glyph-name="igrave" unicode="&#xec;" horiz-adv-x="276" 
d="M235 578h-125l-130 164h138zM13 0l74 528h176l-74 -528h-176z" />
    <glyph glyph-name="iacute" unicode="&#xed;" horiz-adv-x="276" 
d="M118 578l117 164h138l-130 -164h-125zM13 0l74 528h176l-74 -528h-176z" />
    <glyph glyph-name="icircumflex" unicode="&#xee;" horiz-adv-x="276" 
d="M0 578l138 164h134l90 -164h-139l-32 66l-52 -66h-139zM13 0l74 528h176l-74 -528h-176z" />
    <glyph glyph-name="idieresis" unicode="&#xef;" horiz-adv-x="276" 
d="M-7 579l20 145h152l-20 -145h-152zM218 579l20 145h152l-20 -145h-152zM13 0l74 528h176l-74 -528h-176z" />
    <glyph glyph-name="eth" unicode="&#xf0;" horiz-adv-x="653" 
d="M550 644q75 -128 75 -294q0 -91 -28.5 -162t-76 -112.5t-104 -63t-117.5 -21.5q-118 0 -190 70t-72 185q0 125 77 202t204 77q81 0 129 -43q-16 52 -49 104l-123 -48l16 114l42 16q-55 57 -132 110h233q27 -21 54 -50l131 51l-16 -114zM299 148q60 0 95.5 36.5t35.5 92.5
q0 43 -28.5 73.5t-76.5 30.5q-60 0 -94 -35.5t-34 -91.5q0 -43 27.5 -74.5t74.5 -31.5z" />
    <glyph glyph-name="ntilde" unicode="&#xf1;" horiz-adv-x="630" 
d="M309 634q-43 0 -49 -44h-85q2 69 40 110t96 41q40 0 82.5 -26.5t62.5 -26.5q42 0 48 44h85q-2 -69 -39.5 -110t-95.5 -41q-39 0 -81.5 26.5t-63.5 26.5zM413 538q95 0 145 -66.5t33 -183.5l-40 -288h-176l39 276q15 114 -76 114q-46 0 -74.5 -29.5t-35.5 -84.5l-39 -276
h-176l74 528h166l1 -53q58 63 159 63z" />
    <glyph glyph-name="ograve" unicode="&#xf2;" horiz-adv-x="622" 
d="M395 580h-125l-130 164h138zM30 243q0 130 88 213.5t216 83.5q105 0 180.5 -71.5t75.5 -193.5q0 -126 -86 -205.5t-213 -79.5q-112 0 -186.5 69.5t-74.5 183.5zM297 138q51 0 85.5 39t34.5 102q0 57 -28.5 85t-68.5 28q-49 0 -82.5 -40.5t-33.5 -104.5q0 -56 26 -82.5
t67 -26.5z" />
    <glyph glyph-name="oacute" unicode="&#xf3;" horiz-adv-x="622" 
d="M278 580l117 164h138l-130 -164h-125zM30 243q0 130 88 213.5t216 83.5q105 0 180.5 -71.5t75.5 -193.5q0 -126 -86 -205.5t-213 -79.5q-112 0 -186.5 69.5t-74.5 183.5zM297 138q51 0 85.5 39t34.5 102q0 57 -28.5 85t-68.5 28q-49 0 -82.5 -40.5t-33.5 -104.5
q0 -56 26 -82.5t67 -26.5z" />
    <glyph glyph-name="ocircumflex" unicode="&#xf4;" horiz-adv-x="622" 
d="M160 580l138 164h134l90 -164h-139l-32 66l-52 -66h-139zM30 243q0 130 88 213.5t216 83.5q105 0 180.5 -71.5t75.5 -193.5q0 -126 -86 -205.5t-213 -79.5q-112 0 -186.5 69.5t-74.5 183.5zM297 138q51 0 85.5 39t34.5 102q0 57 -28.5 85t-68.5 28q-49 0 -82.5 -40.5
t-33.5 -104.5q0 -56 26 -82.5t67 -26.5z" />
    <glyph glyph-name="otilde" unicode="&#xf5;" horiz-adv-x="622" 
d="M272 743q40 0 82.5 -26.5t62.5 -26.5q42 0 48 44h85q-2 -69 -39.5 -110t-95.5 -41q-39 0 -81 26.5t-64 26.5q-43 0 -49 -44h-85q2 69 40 110t96 41zM30 243q0 130 88 213.5t216 83.5q105 0 180.5 -71.5t75.5 -193.5q0 -126 -86 -205.5t-213 -79.5q-112 0 -186.5 69.5
t-74.5 183.5zM297 138q51 0 85.5 39t34.5 102q0 57 -28.5 85t-68.5 28q-49 0 -82.5 -40.5t-33.5 -104.5q0 -56 26 -82.5t67 -26.5z" />
    <glyph glyph-name="odieresis" unicode="&#xf6;" horiz-adv-x="622" 
d="M153 581l20 145h152l-20 -145h-152zM378 581l20 145h152l-20 -145h-152zM30 243q0 130 88 213.5t216 83.5q105 0 180.5 -71.5t75.5 -193.5q0 -126 -86 -205.5t-213 -79.5q-112 0 -186.5 69.5t-74.5 183.5zM297 138q51 0 85.5 39t34.5 102q0 57 -28.5 85t-68.5 28
q-49 0 -82.5 -40.5t-33.5 -104.5q0 -56 26 -82.5t67 -26.5z" />
    <glyph glyph-name="divide" unicode="&#xf7;" 
d="M328 422q-37 0 -60.5 23t-23.5 60q0 39 29.5 68t70.5 29q37 0 59.5 -23.5t22.5 -59.5q0 -40 -28.5 -68.5t-69.5 -28.5zM82 398h474l-22 -154h-474zM274 40q-37 0 -60.5 23t-23.5 60q0 39 29.5 68t70.5 29q37 0 59.5 -23.5t22.5 -59.5q0 -40 -28.5 -68.5t-69.5 -28.5z" />
    <glyph glyph-name="oslash" unicode="&#xf8;" horiz-adv-x="634" 
d="M642 558l-98 -113q54 -70 54 -170q0 -126 -86 -205.5t-213 -79.5q-68 0 -126 28l-36 -42h-143l95 109q-51 67 -51 158q0 130 88 213.5t216 83.5q64 0 119 -27l39 45h142zM212 247q0 -13 1 -19l140 161q-12 3 -25 3q-49 0 -82.5 -40.5t-33.5 -104.5zM425 279q0 9 -2 27
l-143 -165q12 -3 25 -3q51 0 85.5 39t34.5 102z" />
    <glyph glyph-name="ugrave" unicode="&#xf9;" horiz-adv-x="602" 
d="M397 578h-125l-130 164h138zM425 529h164l-74 -529h-162v54q-53 -64 -151 -64q-83 0 -131.5 53t-34.5 154l46 332h165l-39 -284q-7 -56 10 -81t61 -25t71 26t34 74z" />
    <glyph glyph-name="uacute" unicode="&#xfa;" horiz-adv-x="602" 
d="M535 742l-130 -164h-125l117 164h138zM425 529h164l-74 -529h-162v54q-53 -64 -151 -64q-83 0 -131.5 53t-34.5 154l46 332h165l-39 -284q-7 -56 10 -81t61 -25t71 26t34 74z" />
    <glyph glyph-name="ucircumflex" unicode="&#xfb;" horiz-adv-x="602" 
d="M353 644l-52 -66h-139l138 164h134l90 -164h-139zM425 529h164l-74 -529h-162v54q-53 -64 -151 -64q-83 0 -131.5 53t-34.5 154l46 332h165l-39 -284q-7 -56 10 -81t61 -25t71 26t34 74z" />
    <glyph glyph-name="udieresis" unicode="&#xfc;" horiz-adv-x="602" 
d="M327 724l-20 -145h-152l20 145h152zM552 724l-20 -145h-152l20 145h152zM425 529h164l-74 -529h-162v54q-53 -64 -151 -64q-83 0 -131.5 53t-34.5 154l46 332h165l-39 -284q-7 -56 10 -81t61 -25t71 26t34 74z" />
    <glyph glyph-name="yacute" unicode="&#xfd;" 
d="M265 578l117 164h138l-130 -164h-125zM214 528l68 -359l163 359h187l-306 -611q-17 -34 -38 -57t-39 -35t-46.5 -17.5t-45 -6.5t-49.5 -1h-142l22 154h140q38 0 38 33q0 9 -5 29l-126 512h179z" />
    <glyph glyph-name="thorn" unicode="&#xfe;" horiz-adv-x="666" 
d="M395 540q100 0 170 -65.5t70 -192.5q0 -136 -79 -214t-191 -78q-57 0 -101.5 18t-66.5 48l-36 -256h-176l135 960h176l-37 -267q51 47 136 47zM328 146q53 0 88.5 36.5t35.5 92.5q0 49 -28.5 77.5t-73.5 28.5q-52 0 -87.5 -36t-35.5 -93q0 -50 28 -78t73 -28z" />
    <glyph glyph-name="ydieresis" unicode="&#xff;" 
d="M140 579l20 145h152l-20 -145h-152zM365 579l20 145h152l-20 -145h-152zM214 528l68 -359l163 359h187l-306 -611q-17 -34 -38 -57t-39 -35t-46.5 -17.5t-45 -6.5t-49.5 -1h-142l22 154h140q38 0 38 33q0 9 -5 29l-126 512h179z" />
    <glyph glyph-name="Amacron" unicode="&#x100;" horiz-adv-x="730" 
d="M621 914l-16 -111h-329l16 111h329zM499 0l-28 136h-241l-68 -136h-191l375 728h169l170 -728h-186zM296 267h148l-43 209z" />
    <glyph glyph-name="amacron" unicode="&#x101;" horiz-adv-x="596" 
d="M518 714l-16 -111h-329l16 111h329zM535 126h22l-18 -126h-92q-82 0 -93 55q-51 -65 -164 -65q-82 0 -129.5 39t-47.5 112q0 78 55 126t158 48h133l3 20q5 30 -13 48t-56 18t-60 -17.5t-27 -46.5h-156q11 93 80 147t179 54q33 0 64 -5t65 -19.5t57 -37.5t35 -63.5
t5 -93.5l-23 -169q-3 -24 23 -24zM341 189l2 17h-90q-57 0 -57 -43q0 -38 60 -38q77 0 85 64z" />
    <glyph glyph-name="Abreve" unicode="&#x102;" horiz-adv-x="730" 
d="M444 766q-70 0 -111 46.5t-29 119.5h107q-6 -28 5 -45t35 -17q53 0 58 62h107q-6 -82 -50.5 -124t-121.5 -42zM499 0l-28 136h-241l-68 -136h-191l375 728h169l170 -728h-186zM296 267h148l-43 209z" />
    <glyph glyph-name="abreve" unicode="&#x103;" horiz-adv-x="596" 
d="M341 566q-70 0 -111 46.5t-29 119.5h107q-6 -28 5 -45t35 -17q53 0 58 62h107q-6 -82 -50.5 -124t-121.5 -42zM535 126h22l-18 -126h-92q-82 0 -93 55q-51 -65 -164 -65q-82 0 -129.5 39t-47.5 112q0 78 55 126t158 48h133l3 20q5 30 -13 48t-56 18t-60 -17.5t-27 -46.5
h-156q11 93 80 147t179 54q33 0 64 -5t65 -19.5t57 -37.5t35 -63.5t5 -93.5l-23 -169q-3 -24 23 -24zM341 189l2 17h-90q-57 0 -57 -43q0 -38 60 -38q77 0 85 64z" />
    <glyph glyph-name="Aogonek" unicode="&#x104;" horiz-adv-x="730" 
d="M600 -75q0 -21 27 -21q15 0 36 8l-14 -94q-31 -16 -69 -16q-43 0 -69 20.5t-26 57.5q0 78 96 120h-82l-28 136h-241l-68 -136h-191l375 728h169l170 -728q-85 -31 -85 -75zM296 267h148l-43 209z" />
    <glyph glyph-name="aogonek" unicode="&#x105;" horiz-adv-x="596" 
d="M539 0q-85 -31 -85 -75q0 -21 27 -21q15 0 36 8l-14 -94q-31 -16 -69 -16q-43 0 -69 20.5t-26 57.5q0 78 96 120h12q-82 0 -93 55q-51 -65 -164 -65q-82 0 -129.5 39t-47.5 112q0 78 55 126t158 48h133l3 20q5 30 -13 48t-56 18t-60 -17.5t-27 -46.5h-156q11 93 80 147
t179 54q33 0 64 -5t65 -19.5t57 -37.5t35 -63.5t5 -93.5l-23 -169q-3 -24 23 -24h22zM341 189l2 17h-90q-57 0 -57 -43q0 -38 60 -38q77 0 85 64z" />
    <glyph glyph-name="Cacute" unicode="&#x106;" horiz-adv-x="749" 
d="M390 788l117 164h138l-130 -164h-125zM379 153q113 0 160 102h195q-33 -125 -131 -194.5t-232 -69.5q-150 0 -241.5 86.5t-91.5 243.5q0 84 28.5 160t80 133t129 90.5t170.5 33.5q133 0 219 -72.5t93 -190.5h-188q-9 49 -48 75t-94 26q-91 0 -147 -69t-56 -173
q0 -87 41 -134t113 -47z" />
    <glyph glyph-name="cacute" unicode="&#x107;" horiz-adv-x="591" 
d="M270 579l117 164h138l-130 -164h-125zM392 307q1 39 -21 60.5t-54 21.5q-48 0 -78 -41t-30 -106q0 -100 80 -100q67 0 89 80h186q-17 -106 -94.5 -169t-193.5 -63q-113 0 -179.5 66.5t-66.5 181.5q0 133 85.5 217t210.5 84q113 0 182.5 -61.5t68.5 -170.5h-185z" />
    <glyph glyph-name="Ccircumflex" unicode="&#x108;" horiz-adv-x="749" 
d="M272 788l138 164h134l90 -164h-139l-32 66l-52 -66h-139zM379 153q113 0 160 102h195q-33 -125 -131 -194.5t-232 -69.5q-150 0 -241.5 86.5t-91.5 243.5q0 84 28.5 160t80 133t129 90.5t170.5 33.5q133 0 219 -72.5t93 -190.5h-188q-9 49 -48 75t-94 26q-91 0 -147 -69
t-56 -173q0 -87 41 -134t113 -47z" />
    <glyph glyph-name="ccircumflex" unicode="&#x109;" horiz-adv-x="591" 
d="M152 579l138 164h134l90 -164h-139l-32 66l-52 -66h-139zM392 307q1 39 -21 60.5t-54 21.5q-48 0 -78 -41t-30 -106q0 -100 80 -100q67 0 89 80h186q-17 -106 -94.5 -169t-193.5 -63q-113 0 -179.5 66.5t-66.5 181.5q0 133 85.5 217t210.5 84q113 0 182.5 -61.5
t68.5 -170.5h-185z" />
    <glyph glyph-name="Cdotaccent" unicode="&#x10a;" horiz-adv-x="749" 
d="M371 801l22 159h167l-22 -159h-167zM379 153q113 0 160 102h195q-33 -125 -131 -194.5t-232 -69.5q-150 0 -241.5 86.5t-91.5 243.5q0 84 28.5 160t80 133t129 90.5t170.5 33.5q133 0 219 -72.5t93 -190.5h-188q-9 49 -48 75t-94 26q-91 0 -147 -69t-56 -173
q0 -87 41 -134t113 -47z" />
    <glyph glyph-name="cdotaccent" unicode="&#x10b;" horiz-adv-x="591" 
d="M251 592l22 159h167l-22 -159h-167zM392 307q1 39 -21 60.5t-54 21.5q-48 0 -78 -41t-30 -106q0 -100 80 -100q67 0 89 80h186q-17 -106 -94.5 -169t-193.5 -63q-113 0 -179.5 66.5t-66.5 181.5q0 133 85.5 217t210.5 84q113 0 182.5 -61.5t68.5 -170.5h-185z" />
    <glyph glyph-name="Ccaron" unicode="&#x10c;" horiz-adv-x="749" 
d="M658 952l-138 -164h-134l-90 164h139l32 -66l52 66h139zM379 153q113 0 160 102h195q-33 -125 -131 -194.5t-232 -69.5q-150 0 -241.5 86.5t-91.5 243.5q0 84 28.5 160t80 133t129 90.5t170.5 33.5q133 0 219 -72.5t93 -190.5h-188q-9 49 -48 75t-94 26q-91 0 -147 -69
t-56 -173q0 -87 41 -134t113 -47z" />
    <glyph glyph-name="ccaron" unicode="&#x10d;" horiz-adv-x="591" 
d="M538 743l-138 -164h-134l-90 164h139l32 -66l52 66h139zM392 307q1 39 -21 60.5t-54 21.5q-48 0 -78 -41t-30 -106q0 -100 80 -100q67 0 89 80h186q-17 -106 -94.5 -169t-193.5 -63q-113 0 -179.5 66.5t-66.5 181.5q0 133 85.5 217t210.5 84q113 0 182.5 -61.5
t68.5 -170.5h-185z" />
    <glyph glyph-name="Dcaron" unicode="&#x10e;" horiz-adv-x="740" 
d="M577 942l-138 -164h-134l-90 164h139l32 -66l52 66h139zM23 0h275q196 0 313.5 106t117.5 283q0 156 -96.5 247.5t-250.5 91.5h-257zM223 154l58 420h64q196 0 196 -188q0 -107 -64 -169.5t-187 -62.5h-67z" />
    <glyph glyph-name="dcaron" unicode="&#x10f;" horiz-adv-x="714" 
d="M467 473l41 287h175l-106 -760h-166l1 44q-62 -54 -159 -54q-41 0 -78.5 13t-71 40t-53.5 76.5t-20 115.5q0 141 78.5 222.5t197.5 81.5q110 0 161 -66zM733 760h134l-56 -198h-106zM315 147q50 0 86 36.5t36 91.5q0 50 -29.5 78.5t-72.5 28.5q-50 0 -86 -36.5t-36 -92.5
q0 -50 28.5 -78t73.5 -28z" />
    <glyph glyph-name="Dcroat" unicode="&#x110;" horiz-adv-x="758" 
d="M400 728q154 0 250.5 -91.5t96.5 -247.5q0 -177 -117.5 -283t-313.5 -106h-275l41 292h-67l20 145h67l41 291h257zM308 154q123 0 187 62.5t64 169.5q0 188 -196 188h-64l-19 -137h90l-20 -145h-90l-19 -138h67z" />
    <glyph glyph-name="dcroat" unicode="&#x111;" horiz-adv-x="689" 
d="M745 697l-18 -131h-71l-79 -566h-166l1 44q-62 -54 -159 -54q-41 0 -78.5 13t-71 40t-53.5 76.5t-20 115.5q0 141 78.5 222.5t197.5 81.5q110 0 161 -66l14 93h-147l18 131h147l9 63h175l-9 -63h71zM315 147q50 0 86 36.5t36 91.5q0 50 -29.5 78.5t-72.5 28.5
q-50 0 -86 -36.5t-36 -92.5q0 -50 28.5 -78t73.5 -28z" />
    <glyph glyph-name="Emacron" unicode="&#x112;" horiz-adv-x="595" 
d="M561 914l-16 -111h-329l16 111h329zM595 574h-314l-18 -134h223l-21 -150h-223l-19 -136h329l-22 -154h-507l102 728h491z" />
    <glyph glyph-name="emacron" unicode="&#x113;" horiz-adv-x="601" 
d="M513 715l-16 -111h-329l16 111h329zM573 311q2 -51 -11 -94h-368q9 -89 96 -89q64 0 88 49h176q-28 -88 -98 -138.5t-176 -50.5q-101 0 -174.5 64.5t-74.5 188.5q-1 133 84 215.5t208 82.5q112 0 180 -63t70 -165zM313 404q-81 0 -107 -77h200q-7 77 -93 77z" />
    <glyph glyph-name="Ebreve" unicode="&#x114;" horiz-adv-x="595" 
d="M384 766q-70 0 -111 46.5t-29 119.5h107q-6 -28 5 -45t35 -17q53 0 58 62h107q-6 -82 -50.5 -124t-121.5 -42zM595 574h-314l-18 -134h223l-21 -150h-223l-19 -136h329l-22 -154h-507l102 728h491z" />
    <glyph glyph-name="ebreve" unicode="&#x115;" horiz-adv-x="601" 
d="M336 567q-70 0 -111 46.5t-29 119.5h107q-6 -28 5 -45t35 -17q53 0 58 62h107q-6 -82 -50.5 -124t-121.5 -42zM573 311q2 -51 -11 -94h-368q9 -89 96 -89q64 0 88 49h176q-28 -88 -98 -138.5t-176 -50.5q-101 0 -174.5 64.5t-74.5 188.5q-1 133 84 215.5t208 82.5
q112 0 180 -63t70 -165zM313 404q-81 0 -107 -77h200q-7 77 -93 77z" />
    <glyph glyph-name="Edotaccent" unicode="&#x116;" horiz-adv-x="595" 
d="M485 950l-22 -159h-167l22 159h167zM595 574h-314l-18 -134h223l-21 -150h-223l-19 -136h329l-22 -154h-507l102 728h491z" />
    <glyph glyph-name="edotaccent" unicode="&#x117;" horiz-adv-x="601" 
d="M437 751l-22 -159h-167l22 159h167zM573 311q2 -51 -11 -94h-368q9 -89 96 -89q64 0 88 49h176q-28 -88 -98 -138.5t-176 -50.5q-101 0 -174.5 64.5t-74.5 188.5q-1 133 84 215.5t208 82.5q112 0 180 -63t70 -165zM313 404q-81 0 -107 -77h200q-7 77 -93 77z" />
    <glyph glyph-name="Eogonek" unicode="&#x118;" horiz-adv-x="595" 
d="M595 574h-314l-18 -134h223l-21 -150h-223l-19 -136h329l-22 -154q-85 -31 -85 -75q0 -21 27 -21q15 0 36 8l-14 -94q-31 -16 -69 -16q-43 0 -69 20.5t-26 57.5q0 78 96 120h-403l102 728h491z" />
    <glyph glyph-name="eogonek" unicode="&#x119;" horiz-adv-x="601" 
d="M573 311q2 -51 -11 -94h-368q9 -89 96 -89q64 0 88 49h176q-45 -142 -186 -179q-62 -28 -62 -65q0 -21 27 -21q15 0 36 8l-14 -94q-31 -16 -69 -16q-43 0 -69 20.5t-26 57.5q0 60 61 101q-93 9 -156.5 73t-64.5 179q-1 133 84 215.5t208 82.5q112 0 180 -63t70 -165z
M313 404q-81 0 -107 -77h200q-7 77 -93 77z" />
    <glyph glyph-name="Ecaron" unicode="&#x11a;" horiz-adv-x="595" 
d="M445 778h-134l-90 164h139l32 -66l52 66h139zM595 574h-314l-18 -134h223l-21 -150h-223l-19 -136h329l-22 -154h-507l102 728h491z" />
    <glyph glyph-name="ecaron" unicode="&#x11b;" horiz-adv-x="601" 
d="M397 579h-134l-90 164h139l32 -66l52 66h139zM573 311q2 -51 -11 -94h-368q9 -89 96 -89q64 0 88 49h176q-28 -88 -98 -138.5t-176 -50.5q-101 0 -174.5 64.5t-74.5 188.5q-1 133 84 215.5t208 82.5q112 0 180 -63t70 -165zM313 404q-81 0 -107 -77h200q-7 77 -93 77z
" />
    <glyph glyph-name="Gcircumflex" unicode="&#x11c;" horiz-adv-x="793" 
d="M265 788l138 164h134l90 -164h-139l-32 66l-52 -66h-139zM339 -10q-130 0 -216 82.5t-86 236.5q0 180 113.5 304.5t288.5 124.5q134 0 223 -69t101 -182h-190q-13 46 -51 67.5t-87 21.5q-89 0 -149.5 -64.5t-60.5 -177.5q0 -87 42 -135.5t114 -48.5q26 0 51.5 5.5t52 18
t46.5 37t29 58.5l4 18h-202l20 142h380l-60 -429h-150l-1 63q-86 -73 -212 -73z" />
    <glyph glyph-name="gcircumflex" unicode="&#x11d;" horiz-adv-x="639" 
d="M376 644l-52 -66h-139l138 164h134l90 -164h-139zM466 528h161l-70 -498q-34 -240 -291 -240q-114 0 -187 55t-73 144h167q5 -27 31 -42t67 -15q100 0 113 87l4 31q-48 -37 -125 -37q-109 0 -170 66t-61 177q0 125 75 203.5t187 78.5q104 0 154 -62zM309 166
q48 0 80.5 34t32.5 85q0 45 -26 71t-68 26q-48 0 -81 -33t-33 -85q0 -46 27 -72t68 -26z" />
    <glyph glyph-name="Gbreve" unicode="&#x11e;" horiz-adv-x="793" 
d="M517 942h107q-6 -82 -50.5 -124t-121.5 -42q-70 0 -111 46.5t-29 119.5h107q-6 -28 5 -45t35 -17q53 0 58 62zM339 -10q-130 0 -216 82.5t-86 236.5q0 180 113.5 304.5t288.5 124.5q134 0 223 -69t101 -182h-190q-13 46 -51 67.5t-87 21.5q-89 0 -149.5 -64.5
t-60.5 -177.5q0 -87 42 -135.5t114 -48.5q26 0 51.5 5.5t52 18t46.5 37t29 58.5l4 18h-202l20 142h380l-60 -429h-150l-1 63q-86 -73 -212 -73z" />
    <glyph glyph-name="gbreve" unicode="&#x11f;" horiz-adv-x="639" 
d="M372 566q-70 0 -111 46.5t-29 119.5h107q-6 -28 5 -45t35 -17q53 0 58 62h107q-6 -82 -50.5 -124t-121.5 -42zM466 528h161l-70 -498q-34 -240 -291 -240q-114 0 -187 55t-73 144h167q5 -27 31 -42t67 -15q100 0 113 87l4 31q-48 -37 -125 -37q-109 0 -170 66t-61 177
q0 125 75 203.5t187 78.5q104 0 154 -62zM309 166q48 0 80.5 34t32.5 85q0 45 -26 71t-68 26q-48 0 -81 -33t-33 -85q0 -46 27 -72t68 -26z" />
    <glyph glyph-name="Gdotaccent" unicode="&#x120;" horiz-adv-x="793" 
d="M364 801l22 159h167l-22 -159h-167zM339 -10q-130 0 -216 82.5t-86 236.5q0 180 113.5 304.5t288.5 124.5q134 0 223 -69t101 -182h-190q-13 46 -51 67.5t-87 21.5q-89 0 -149.5 -64.5t-60.5 -177.5q0 -87 42 -135.5t114 -48.5q26 0 51.5 5.5t52 18t46.5 37t29 58.5l4 18
h-202l20 142h380l-60 -429h-150l-1 63q-86 -73 -212 -73z" />
    <glyph glyph-name="gdotaccent" unicode="&#x121;" horiz-adv-x="639" 
d="M473 750l-22 -159h-167l22 159h167zM466 528h161l-70 -498q-34 -240 -291 -240q-114 0 -187 55t-73 144h167q5 -27 31 -42t67 -15q100 0 113 87l4 31q-48 -37 -125 -37q-109 0 -170 66t-61 177q0 125 75 203.5t187 78.5q104 0 154 -62zM309 166q48 0 80.5 34t32.5 85
q0 45 -26 71t-68 26q-48 0 -81 -33t-33 -85q0 -46 27 -72t68 -26z" />
    <glyph glyph-name="Gcommaaccent" unicode="&#x122;" horiz-adv-x="793" 
d="M362 287l20 142h380l-60 -429h-150l-1 63q-86 -73 -212 -73q-130 0 -216 82.5t-86 236.5q0 180 113.5 304.5t288.5 124.5q134 0 223 -69t101 -182h-190q-13 46 -51 67.5t-87 21.5q-89 0 -149.5 -64.5t-60.5 -177.5q0 -87 42 -135.5t114 -48.5q26 0 51.5 5.5t52 18
t46.5 37t29 58.5l4 18h-202zM274 -172l18 131h145l-18 -131l-64 -87h-86l65 87h-60z" />
    <glyph glyph-name="gcommaaccent" unicode="&#x123;" horiz-adv-x="639" 
d="M452 709l-18 -131h-145l18 131l64 87h86l-65 -87h60zM466 528h161l-70 -498q-34 -240 -291 -240q-114 0 -187 55t-73 144h167q5 -27 31 -42t67 -15q100 0 113 87l4 31q-48 -37 -125 -37q-109 0 -170 66t-61 177q0 125 75 203.5t187 78.5q104 0 154 -62zM309 166
q48 0 80.5 34t32.5 85q0 45 -26 71t-68 26q-48 0 -81 -33t-33 -85q0 -46 27 -72t68 -26z" />
    <glyph glyph-name="Hcircumflex" unicode="&#x124;" horiz-adv-x="739" 
d="M260 778l138 164h134l90 -164h-139l-32 66l-52 -66h-139zM505 292h-263l-41 -292h-178l102 728h178l-38 -276h263l38 276h178l-102 -728h-178z" />
    <glyph glyph-name="hcircumflex" unicode="&#x125;" horiz-adv-x="636" 
d="M225 876l-52 -66h-139l138 164h134l90 -164h-139zM405 539q105 0 156 -70.5t34 -187.5l-40 -281h-176l34 266q8 63 -16 89t-62 26q-91 0 -106 -106l-40 -275h-176l106 760h177l-39 -274q51 53 148 53z" />
    <glyph glyph-name="Hbar" unicode="&#x126;" horiz-adv-x="755" 
d="M785 613l-15 -111h-50l-70 -502h-178l41 292h-263l-41 -292h-178l70 502h-52l15 111h53l16 115h178l-16 -115h263l16 115h178l-16 -115h49zM536 452l7 50h-263l-7 -50h263z" />
    <glyph glyph-name="hbar" unicode="&#x127;" horiz-adv-x="647" 
d="M416 539q105 0 156 -70.5t34 -187.5l-40 -281h-176l34 266q8 63 -16 89t-62 26q-91 0 -106 -106l-40 -275h-176l79 566h-66l18 131h66l9 63h177l-9 -63h156l-18 -131h-157l-11 -80q51 53 148 53z" />
    <glyph glyph-name="Itilde" unicode="&#x128;" horiz-adv-x="298" 
d="M152 941q40 0 82.5 -26.5t62.5 -26.5q42 0 48 44h85q-2 -69 -39.5 -110t-95.5 -41q-39 0 -81 26.5t-64 26.5q-43 0 -49 -44h-85q2 69 40 110t96 41zM303 728l-102 -728h-178l102 728h178z" />
    <glyph glyph-name="itilde" unicode="&#x129;" horiz-adv-x="276" 
d="M112 741q40 0 82.5 -26.5t62.5 -26.5q42 0 48 44h85q-2 -69 -39.5 -110t-95.5 -41q-40 0 -81.5 26.5t-63.5 26.5q-43 0 -49 -44h-85q2 69 40 110t96 41zM13 0l74 528h176l-74 -528h-176z" />
    <glyph glyph-name="Imacron" unicode="&#x12a;" horiz-adv-x="298" 
d="M75 914h329l-16 -111h-329zM303 728l-102 -728h-178l102 728h178z" />
    <glyph glyph-name="imacron" unicode="&#x12b;" horiz-adv-x="276" 
d="M35 714h329l-16 -111h-329zM13 0l74 528h176l-74 -528h-176z" />
    <glyph glyph-name="Ibreve" unicode="&#x12c;" horiz-adv-x="298" 
d="M292 932h107q-6 -82 -50.5 -124t-121.5 -42q-70 0 -111 46.5t-29 119.5h107q-6 -28 5 -45t35 -17q53 0 58 62zM303 728l-102 -728h-178l102 728h178z" />
    <glyph glyph-name="ibreve" unicode="&#x12d;" horiz-adv-x="276" 
d="M252 732h107q-6 -82 -50.5 -124t-121.5 -42q-70 0 -111 46.5t-29 119.5h107q-6 -28 5 -45t35 -17q53 0 58 62zM13 0l74 528h176l-74 -528h-176z" />
    <glyph glyph-name="Iogonek" unicode="&#x12e;" horiz-adv-x="298" 
d="M201 0q-85 -31 -85 -75q0 -21 27 -21q15 0 36 8l-14 -94q-31 -16 -69 -16q-43 0 -69 20.5t-26 57.5q0 78 96 120h-74l102 728h178z" />
    <glyph glyph-name="iogonek" unicode="&#x12f;" horiz-adv-x="276" 
d="M121 750h167l-22 -159h-167zM13 0l74 528h176l-74 -528q-85 -31 -85 -75q0 -21 27 -21q15 0 36 8l-14 -94q-31 -16 -69 -16q-43 0 -69 20.5t-26 57.5q0 78 96 120h-72z" />
    <glyph glyph-name="Idotaccent" unicode="&#x130;" horiz-adv-x="298" 
d="M139 791l22 159h167l-22 -159h-167zM303 728l-102 -728h-178l102 728h178z" />
    <glyph glyph-name="dotlessi" unicode="&#x131;" horiz-adv-x="276" 
d="M13 0l74 528h176l-74 -528h-176z" />
    <glyph glyph-name="IJ" unicode="&#x132;" horiz-adv-x="874" 
d="M303 728l-102 -728h-178l102 728h178zM463 251q-13 -100 77 -100q85 0 98 92l68 485h178l-67 -480q-17 -126 -95.5 -192t-194.5 -66q-118 0 -186 67t-51 194h173z" />
    <glyph glyph-name="ij" unicode="&#x133;" horiz-adv-x="554" 
d="M99 591l22 159h167l-22 -159h-167zM378 591l22 159h167l-22 -159h-167zM13 0l74 528h176l-74 -528h-176zM465 -28q-13 -92 -61.5 -132t-150.5 -40h-76l22 153h35q28 0 41 10.5t17 36.5l73 528h176z" />
    <glyph glyph-name="Jcircumflex" unicode="&#x134;" horiz-adv-x="606" 
d="M353 778l138 164h134l90 -164h-139l-32 66l-52 -66h-139zM195 251q-13 -100 77 -100q85 0 98 92l68 485h178l-67 -480q-17 -126 -95.5 -192t-194.5 -66q-118 0 -186 67t-51 194h173z" />
    <glyph glyph-name="jcircumflex" unicode="&#x135;" horiz-adv-x="286" 
d="M12 578l138 164h134l90 -164h-139l-32 66l-52 -66h-139zM197 -28q-13 -92 -61.5 -132t-150.5 -40h-76l22 153h35q28 0 41 10.5t17 36.5l73 528h176z" />
    <glyph glyph-name="Kcommaaccent" unicode="&#x136;" horiz-adv-x="732" 
d="M787 728l-324 -317l210 -411h-213l-133 279l-100 -98l-26 -181h-178l102 728h178l-40 -288l295 288h229zM215 -166l18 131h145l-18 -131l-64 -87h-86l65 87h-60z" />
    <glyph glyph-name="kcommaaccent" unicode="&#x137;" horiz-adv-x="618" 
d="M650 529l-262 -243l172 -286h-198l-100 177l-53 -47l-19 -130h-177l106 760h177l-58 -416l197 185h215zM187 -163l18 131h145l-18 -131l-64 -87h-86l65 87h-60z" />
    <glyph glyph-name="Lacute" unicode="&#x139;" horiz-adv-x="581" 
d="M158 778l117 164h138l-130 -164h-125zM224 162h323l-23 -162h-501l102 728h178z" />
    <glyph glyph-name="lacute" unicode="&#x13a;" horiz-adv-x="276" 
d="M149 810l117 164h138l-130 -164h-125zM13 0l107 760h176l-107 -760h-176z" />
    <glyph glyph-name="Lcommaaccent" unicode="&#x13b;" horiz-adv-x="581" 
d="M224 162h323l-23 -162h-501l102 728h178zM177 -176l18 131h145l-18 -131l-64 -87h-86l65 87h-60z" />
    <glyph glyph-name="lcommaaccent" unicode="&#x13c;" horiz-adv-x="276" 
d="M120 760h176l-107 -760h-176zM6 -163l18 131h145l-18 -131l-64 -87h-86l65 87h-60z" />
    <glyph glyph-name="Lcaron" unicode="&#x13d;" horiz-adv-x="581" 
d="M224 162h323l-23 -162h-501l102 728h178zM505 728l-56 -198h-106l28 198h134z" />
    <glyph glyph-name="lcaron" unicode="&#x13e;" horiz-adv-x="325" 
d="M13 0l107 760h176l-107 -760h-176zM478 760l-56 -198h-106l28 198h134z" />
    <glyph glyph-name="Ldot" unicode="&#x13f;" horiz-adv-x="581" 
d="M224 162h323l-23 -162h-501l102 728h178zM437 374q-32 0 -54.5 21.5t-22.5 54.5q0 36 26 62t64 26q31 0 53.5 -21.5t22.5 -53.5q0 -37 -25.5 -63t-63.5 -26z" />
    <glyph glyph-name="ldot" unicode="&#x140;" horiz-adv-x="416" 
d="M13 0l107 760h176l-107 -760h-176zM353 302q-32 0 -54.5 21.5t-22.5 54.5q0 36 26 62t64 26q31 0 53.5 -21.5t22.5 -53.5q0 -37 -25.5 -63t-63.5 -26z" />
    <glyph glyph-name="Lslash" unicode="&#x141;" horiz-adv-x="591" 
d="M234 162h323l-23 -162h-501l41 291l-74 -44l21 147l73 44l41 290h178l-24 -175l108 65l-21 -148l-108 -64z" />
    <glyph glyph-name="lslash" unicode="&#x142;" horiz-adv-x="317" 
d="M354 527l-21 -148l-73 -26l-50 -353h-176l40 286l-75 -27l21 148l75 27l46 328h176l-37 -261z" />
    <glyph glyph-name="Nacute" unicode="&#x143;" horiz-adv-x="729" 
d="M374 778l117 164h138l-130 -164h-125zM23 0l102 728h178l193 -436l61 436h177l-102 -728h-177l-195 421l-59 -421h-178z" />
    <glyph glyph-name="nacute" unicode="&#x144;" horiz-adv-x="630" 
d="M572 742l-130 -164h-125l117 164h138zM413 538q95 0 145 -66.5t33 -183.5l-40 -288h-176l39 276q15 114 -76 114q-46 0 -74.5 -29.5t-35.5 -84.5l-39 -276h-176l74 528h166l1 -53q58 63 159 63z" />
    <glyph glyph-name="Ncommaaccent" unicode="&#x145;" horiz-adv-x="729" 
d="M557 728h177l-102 -728h-177l-195 421l-59 -421h-178l102 728h178l193 -436zM233 -163l18 131h145l-18 -131l-64 -87h-86l65 87h-60z" />
    <glyph glyph-name="ncommaaccent" unicode="&#x146;" horiz-adv-x="630" 
d="M413 538q95 0 145 -66.5t33 -183.5l-40 -288h-176l39 276q15 114 -76 114q-46 0 -74.5 -29.5t-35.5 -84.5l-39 -276h-176l74 528h166l1 -53q58 63 159 63zM187 -163l18 131h145l-18 -131l-64 -87h-86l65 87h-60z" />
    <glyph glyph-name="Ncaron" unicode="&#x147;" horiz-adv-x="729" 
d="M642 942l-138 -164h-134l-90 164h139l32 -66l52 66h139zM23 0l102 728h178l193 -436l61 436h177l-102 -728h-177l-195 421l-59 -421h-178z" />
    <glyph glyph-name="ncaron" unicode="&#x148;" horiz-adv-x="630" 
d="M447 578h-134l-90 164h139l32 -66l52 66h139zM413 538q95 0 145 -66.5t33 -183.5l-40 -288h-176l39 276q15 114 -76 114q-46 0 -74.5 -29.5t-35.5 -84.5l-39 -276h-176l74 528h166l1 -53q58 63 159 63z" />
    <glyph glyph-name="Eng" unicode="&#x14a;" horiz-adv-x="729" 
d="M454 0l-194 421l-59 -421h-178l102 728h178l193 -436l61 436h177l-109 -768q-12 -85 -60.5 -122.5t-151.5 -37.5h-76l22 153h45q24 0 35 7.5t13 26.5z" />
    <glyph glyph-name="eng" unicode="&#x14b;" horiz-adv-x="640" 
d="M374 -16l42 292q8 55 -12 84.5t-64 29.5q-46 0 -74.5 -29.5t-35.5 -84.5l-39 -276h-176l74 528h166l1 -53q58 63 159 63q95 0 145 -66.5t33 -183.5l-47 -331q-24 -169 -219 -169h-107l22 153h62q35 0 50.5 9t19.5 34z" />
    <glyph glyph-name="Omacron" unicode="&#x14c;" horiz-adv-x="779" 
d="M286 924h329l-16 -111h-329zM39 345q0 175 113.5 284t272.5 109q145 0 243.5 -93.5t98.5 -253.5q0 -173 -113.5 -281.5t-273.5 -108.5q-145 0 -243 92t-98 252zM576 395q0 90 -47 134t-111 44q-79 0 -133.5 -64.5t-54.5 -164.5q0 -89 44 -133.5t108 -44.5q80 0 137 65.5
t57 163.5z" />
    <glyph glyph-name="omacron" unicode="&#x14d;" horiz-adv-x="622" 
d="M195 716h329l-16 -111h-329zM30 243q0 130 88 213.5t216 83.5q105 0 180.5 -71.5t75.5 -193.5q0 -126 -86 -205.5t-213 -79.5q-112 0 -186.5 69.5t-74.5 183.5zM297 138q51 0 85.5 39t34.5 102q0 57 -28.5 85t-68.5 28q-49 0 -82.5 -40.5t-33.5 -104.5q0 -56 26 -82.5
t67 -26.5z" />
    <glyph glyph-name="Obreve" unicode="&#x14e;" horiz-adv-x="779" 
d="M503 942h107q-6 -82 -50.5 -124t-121.5 -42q-70 0 -111 46.5t-29 119.5h107q-6 -28 5 -45t35 -17q53 0 58 62zM39 345q0 175 113.5 284t272.5 109q145 0 243.5 -93.5t98.5 -253.5q0 -173 -113.5 -281.5t-273.5 -108.5q-145 0 -243 92t-98 252zM576 395q0 90 -47 134
t-111 44q-79 0 -133.5 -64.5t-54.5 -164.5q0 -89 44 -133.5t108 -44.5q80 0 137 65.5t57 163.5z" />
    <glyph glyph-name="obreve" unicode="&#x14f;" horiz-adv-x="622" 
d="M412 734h107q-6 -82 -50.5 -124t-121.5 -42q-70 0 -111 46.5t-29 119.5h107q-6 -28 5 -45t35 -17q53 0 58 62zM30 243q0 130 88 213.5t216 83.5q105 0 180.5 -71.5t75.5 -193.5q0 -126 -86 -205.5t-213 -79.5q-112 0 -186.5 69.5t-74.5 183.5zM297 138q51 0 85.5 39
t34.5 102q0 57 -28.5 85t-68.5 28q-49 0 -82.5 -40.5t-33.5 -104.5q0 -56 26 -82.5t67 -26.5z" />
    <glyph glyph-name="Ohungarumlaut" unicode="&#x150;" horiz-adv-x="779" 
d="M283 788l117 164h138l-130 -164h-125zM456 788l139 164h139l-152 -164h-126zM39 345q0 175 113.5 284t272.5 109q145 0 243.5 -93.5t98.5 -253.5q0 -173 -113.5 -281.5t-273.5 -108.5q-145 0 -243 92t-98 252zM576 395q0 90 -47 134t-111 44q-79 0 -133.5 -64.5
t-54.5 -164.5q0 -89 44 -133.5t108 -44.5q80 0 137 65.5t57 163.5z" />
    <glyph glyph-name="ohungarumlaut" unicode="&#x151;" horiz-adv-x="622" 
d="M192 580l117 164h138l-130 -164h-125zM365 580l139 164h139l-152 -164h-126zM30 243q0 130 88 213.5t216 83.5q105 0 180.5 -71.5t75.5 -193.5q0 -126 -86 -205.5t-213 -79.5q-112 0 -186.5 69.5t-74.5 183.5zM297 138q51 0 85.5 39t34.5 102q0 57 -28.5 85t-68.5 28
q-49 0 -82.5 -40.5t-33.5 -104.5q0 -56 26 -82.5t67 -26.5z" />
    <glyph glyph-name="OE" unicode="&#x152;" horiz-adv-x="1127" 
d="M1127 574h-313l-19 -134h223l-21 -150h-223l-19 -136h329l-22 -154h-507l8 60q-79 -70 -205 -70q-142 0 -230.5 89.5t-88.5 254.5q0 173 109 288.5t277 115.5q145 0 222 -83l10 73h491zM386 158q82 0 136 65t54 163q0 88 -45 136t-113 48q-81 0 -134.5 -64t-53.5 -163
q0 -89 44 -137t112 -48z" />
    <glyph glyph-name="oe" unicode="&#x153;" horiz-adv-x="973" 
d="M710 540q119 0 182 -74.5t47 -196.5l-7 -52h-359q-5 -38 20.5 -63t72.5 -25q65 0 89 49h168q-29 -93 -101 -140.5t-164 -47.5q-58 0 -109 19.5t-76 58.5q-75 -78 -190 -78q-113 0 -182 67t-69 185q0 131 86 214.5t205 83.5q130 0 193 -87q70 87 194 87zM772 327
q1 37 -21.5 57t-59.5 20t-65.5 -20t-36.5 -57h183zM301 134q50 0 81.5 41.5t31.5 101.5q0 51 -23.5 83t-67.5 32q-50 0 -81.5 -41.5t-31.5 -101.5q0 -51 23.5 -83t67.5 -32z" />
    <glyph glyph-name="Racute" unicode="&#x154;" horiz-adv-x="694" 
d="M281 778l117 164h138l-130 -164h-125zM23 0l102 728h317q115 0 182.5 -62t67.5 -169q0 -92 -47 -152.5t-123 -87.5l88 -257h-200l-73 233h-103l-33 -233h-178zM254 380h126q56 0 89.5 30t33.5 77q0 87 -93 87h-128z" />
    <glyph glyph-name="racute" unicode="&#x155;" horiz-adv-x="430" 
d="M482 742l-130 -164h-125l117 164h138zM265 484q31 44 99 44h88l-21 -154h-86q-58 0 -82 -22.5t-31 -73.5l-40 -278h-176l74 528h166z" />
    <glyph glyph-name="Rcommaaccent" unicode="&#x156;" horiz-adv-x="694" 
d="M692 497q0 -92 -47 -152.5t-123 -87.5l88 -257h-200l-73 233h-103l-33 -233h-178l102 728h317q115 0 182.5 -62t67.5 -169zM380 380q56 0 89.5 30t33.5 77q0 87 -93 87h-128l-28 -194h126zM191 -163l18 131h145l-18 -131l-64 -87h-86l65 87h-60z" />
    <glyph glyph-name="rcommaaccent" unicode="&#x157;" horiz-adv-x="430" 
d="M364 528h88l-21 -154h-86q-58 0 -82 -22.5t-31 -73.5l-40 -278h-176l74 528h166l9 -44q31 44 99 44zM9 -163l18 131h145l-18 -131l-64 -87h-86l65 87h-60z" />
    <glyph glyph-name="Rcaron" unicode="&#x158;" horiz-adv-x="694" 
d="M549 942l-138 -164h-134l-90 164h139l32 -66l52 66h139zM23 0l102 728h317q115 0 182.5 -62t67.5 -169q0 -92 -47 -152.5t-123 -87.5l88 -257h-200l-73 233h-103l-33 -233h-178zM254 380h126q56 0 89.5 30t33.5 77q0 87 -93 87h-128z" />
    <glyph glyph-name="rcaron" unicode="&#x159;" horiz-adv-x="430" 
d="M357 578h-134l-90 164h139l32 -66l52 66h139zM265 484q31 44 99 44h88l-21 -154h-86q-58 0 -82 -22.5t-31 -73.5l-40 -278h-176l74 528h166z" />
    <glyph glyph-name="Sacute" unicode="&#x15a;" horiz-adv-x="660" 
d="M323 788l117 164h138l-130 -164h-125zM302 -10q-133 0 -212 64.5t-66 167.5h172q-5 -40 27.5 -62t91.5 -22q60 0 92 21.5t32 57.5q0 24 -17 38t-58 25l-99 26q-98 26 -145.5 73.5t-47.5 123.5q0 101 77.5 168t229.5 67q54 0 100 -10.5t87.5 -34.5t64 -71t19.5 -112h-169
q6 46 -24.5 66t-81.5 20q-56 0 -85.5 -20t-29.5 -52q0 -23 19 -38.5t68 -27.5l102 -25q179 -44 179 -199q0 -117 -95 -180.5t-231 -63.5z" />
    <glyph glyph-name="sacute" unicode="&#x15b;" horiz-adv-x="531" 
d="M236 578l117 164h138l-130 -164h-125zM3 171h170q-3 -29 16 -44t56 -15q69 0 69 41q0 16 -13.5 26.5t-48.5 17.5l-61 13q-149 31 -149 142q0 84 71.5 135t178.5 51q114 0 175.5 -49t50.5 -126h-171q4 24 -14.5 38.5t-51.5 14.5q-29 0 -45 -10.5t-16 -28.5q0 -15 13 -22.5
t48 -15.5l71 -16q145 -33 145 -151q0 -88 -75 -135t-184 -47q-107 0 -171 46.5t-64 134.5z" />
    <glyph glyph-name="Scircumflex" unicode="&#x15c;" horiz-adv-x="660" 
d="M205 788l138 164h134l90 -164h-139l-32 66l-52 -66h-139zM302 -10q-133 0 -212 64.5t-66 167.5h172q-5 -40 27.5 -62t91.5 -22q60 0 92 21.5t32 57.5q0 24 -17 38t-58 25l-99 26q-98 26 -145.5 73.5t-47.5 123.5q0 101 77.5 168t229.5 67q54 0 100 -10.5t87.5 -34.5
t64 -71t19.5 -112h-169q6 46 -24.5 66t-81.5 20q-56 0 -85.5 -20t-29.5 -52q0 -23 19 -38.5t68 -27.5l102 -25q179 -44 179 -199q0 -117 -95 -180.5t-231 -63.5z" />
    <glyph glyph-name="scircumflex" unicode="&#x15d;" horiz-adv-x="531" 
d="M118 578l138 164h134l90 -164h-139l-32 66l-52 -66h-139zM3 171h170q-3 -29 16 -44t56 -15q69 0 69 41q0 16 -13.5 26.5t-48.5 17.5l-61 13q-149 31 -149 142q0 84 71.5 135t178.5 51q114 0 175.5 -49t50.5 -126h-171q4 24 -14.5 38.5t-51.5 14.5q-29 0 -45 -10.5
t-16 -28.5q0 -15 13 -22.5t48 -15.5l71 -16q145 -33 145 -151q0 -88 -75 -135t-184 -47q-107 0 -171 46.5t-64 134.5z" />
    <glyph glyph-name="Scedilla" unicode="&#x15e;" horiz-adv-x="660" 
d="M650 510h-169q6 46 -24.5 66t-81.5 20q-56 0 -85.5 -20t-29.5 -52q0 -23 19 -38.5t68 -27.5l102 -25q179 -44 179 -199q0 -112 -87 -175t-216 -69l-13 -30q38 1 61 -18t23 -55q0 -42 -31 -66t-81 -24t-80 25.5t-24 63.5h75q0 -21 26 -21q27 0 27 25q0 15 -11.5 21
t-29.5 2l-29 18l28 60q-118 9 -186.5 72.5t-55.5 158.5h172q-5 -40 27.5 -62t91.5 -22q60 0 92 21.5t32 57.5q0 24 -17 38t-58 25l-99 26q-98 26 -145.5 73.5t-47.5 123.5q0 101 77.5 168t229.5 67q54 0 100 -10.5t87.5 -34.5t64 -71t19.5 -112z" />
    <glyph glyph-name="scedilla" unicode="&#x15f;" horiz-adv-x="531" 
d="M518 363h-171q4 24 -14.5 38.5t-51.5 14.5q-29 0 -45 -10.5t-16 -28.5q0 -15 13 -22.5t48 -15.5l71 -16q145 -33 145 -151q0 -83 -68.5 -130t-171.5 -52l-9 -21q38 1 61 -18t23 -55q0 -42 -31 -66t-81 -24t-80 25.5t-24 63.5h75q0 -21 26 -21q27 0 27 25q0 15 -11.5 21
t-29.5 2l-29 18l24 52q-90 9 -142.5 54.5t-52.5 124.5h170q-3 -29 16 -44t56 -15q69 0 69 41q0 16 -13.5 26.5t-48.5 17.5l-61 13q-149 31 -149 142q0 84 71.5 135t178.5 51q114 0 175.5 -49t50.5 -126z" />
    <glyph glyph-name="Scaron" unicode="&#x160;" horiz-adv-x="660" 
d="M591 952l-138 -164h-134l-90 164h139l32 -66l52 66h139zM302 -10q-133 0 -212 64.5t-66 167.5h172q-5 -40 27.5 -62t91.5 -22q60 0 92 21.5t32 57.5q0 24 -17 38t-58 25l-99 26q-98 26 -145.5 73.5t-47.5 123.5q0 101 77.5 168t229.5 67q54 0 100 -10.5t87.5 -34.5
t64 -71t19.5 -112h-169q6 46 -24.5 66t-81.5 20q-56 0 -85.5 -20t-29.5 -52q0 -23 19 -38.5t68 -27.5l102 -25q179 -44 179 -199q0 -117 -95 -180.5t-231 -63.5z" />
    <glyph glyph-name="scaron" unicode="&#x161;" horiz-adv-x="531" 
d="M504 742l-138 -164h-134l-90 164h139l32 -66l52 66h139zM3 171h170q-3 -29 16 -44t56 -15q69 0 69 41q0 16 -13.5 26.5t-48.5 17.5l-61 13q-149 31 -149 142q0 84 71.5 135t178.5 51q114 0 175.5 -49t50.5 -126h-171q4 24 -14.5 38.5t-51.5 14.5q-29 0 -45 -10.5
t-16 -28.5q0 -15 13 -22.5t48 -15.5l71 -16q145 -33 145 -151q0 -88 -75 -135t-184 -47q-107 0 -171 46.5t-64 134.5z" />
    <glyph glyph-name="uni0162" unicode="&#x162;" horiz-adv-x="644" 
d="M85 728h604l-21 -154h-213l-81 -574h-178l81 574h-213zM200 -163l18 131h145l-18 -131l-64 -87h-86l65 87h-60z" />
    <glyph glyph-name="uni0163" unicode="&#x163;" horiz-adv-x="405" 
d="M273 376l-23 -163q-5 -37 4.5 -48.5t43.5 -11.5h63l-22 -153h-124q-86 0 -122.5 44.5t-22.5 140.5l27 191h-75l21 152h25q27 0 40 9t17 38l14 101h176l-21 -148h119l-21 -152h-119zM107 -163l18 131h145l-18 -131l-64 -87h-86l65 87h-60z" />
    <glyph glyph-name="Tcaron" unicode="&#x164;" horiz-adv-x="644" 
d="M599 942l-138 -164h-134l-90 164h139l32 -66l52 66h139zM455 574l-81 -574h-178l81 574h-213l21 154h604l-21 -154h-213z" />
    <glyph glyph-name="tcaron" unicode="&#x165;" horiz-adv-x="412" 
d="M508 760l-56 -198h-106l28 198h134zM22 376l21 152h25q27 0 40 9t17 38l14 101h176l-21 -148h119l-21 -152h-119l-23 -163q-5 -37 4.5 -48.5t43.5 -11.5h63l-22 -153h-124q-86 0 -122.5 44.5t-22.5 140.5l27 191h-75z" />
    <glyph glyph-name="Tbar" unicode="&#x166;" horiz-adv-x="644" 
d="M668 574h-213l-23 -162h110l-18 -131h-110l-40 -281h-178l40 281h-111l18 131h111l23 162h-213l21 154h604z" />
    <glyph glyph-name="tbar" unicode="&#x167;" horiz-adv-x="432" 
d="M282 376l-5 -36h129l-18 -131h-130q-4 -35 6 -45.5t43 -10.5h63l-22 -153h-124q-86 0 -122.5 44.5t-22.5 140.5l3 24h-61l18 131h62l5 36h-75l21 152h25q27 0 40 9t17 38l14 101h176l-21 -148h119l-21 -152h-119z" />
    <glyph glyph-name="Utilde" unicode="&#x168;" horiz-adv-x="720" 
d="M362 941q40 0 82.5 -26.5t62.5 -26.5q42 0 48 44h85q-2 -69 -39.5 -110t-95.5 -41q-39 0 -81 26.5t-64 26.5q-43 0 -49 -44h-85q2 69 40 110t96 41zM295 728l-63 -447q-9 -68 23 -103t89 -35q56 0 96 33t49 94l64 458h181l-64 -458q-19 -132 -102 -206t-228 -74
t-225.5 84.5t-59.5 237.5l58 416h182z" />
    <glyph glyph-name="utilde" unicode="&#x169;" horiz-adv-x="602" 
d="M272 634q-43 0 -49 -44h-85q2 69 40 110t96 41q40 0 82.5 -26.5t62.5 -26.5q42 0 48 44h85q-2 -69 -39.5 -110t-95.5 -41q-39 0 -81 26.5t-64 26.5zM425 529h164l-74 -529h-162v54q-53 -64 -151 -64q-83 0 -131.5 53t-34.5 154l46 332h165l-39 -284q-7 -56 10 -81t61 -25
t71 26t34 74z" />
    <glyph glyph-name="Umacron" unicode="&#x16a;" horiz-adv-x="720" 
d="M285 914h329l-16 -111h-329zM295 728l-63 -447q-9 -68 23 -103t89 -35q56 0 96 33t49 94l64 458h181l-64 -458q-19 -132 -102 -206t-228 -74t-225.5 84.5t-59.5 237.5l58 416h182z" />
    <glyph glyph-name="umacron" unicode="&#x16b;" horiz-adv-x="602" 
d="M526 714l-16 -111h-329l16 111h329zM425 529h164l-74 -529h-162v54q-53 -64 -151 -64q-83 0 -131.5 53t-34.5 154l46 332h165l-39 -284q-7 -56 10 -81t61 -25t71 26t34 74z" />
    <glyph glyph-name="Ubreve" unicode="&#x16c;" horiz-adv-x="720" 
d="M502 932h107q-6 -82 -50.5 -124t-121.5 -42q-70 0 -111 46.5t-29 119.5h107q-6 -28 5 -45t35 -17q53 0 58 62zM295 728l-63 -447q-9 -68 23 -103t89 -35q56 0 96 33t49 94l64 458h181l-64 -458q-19 -132 -102 -206t-228 -74t-225.5 84.5t-59.5 237.5l58 416h182z" />
    <glyph glyph-name="ubreve" unicode="&#x16d;" horiz-adv-x="602" 
d="M349 566q-70 0 -111 46.5t-29 119.5h107q-6 -28 5 -45t35 -17q53 0 58 62h107q-6 -82 -50.5 -124t-121.5 -42zM425 529h164l-74 -529h-162v54q-53 -64 -151 -64q-83 0 -131.5 53t-34.5 154l46 332h165l-39 -284q-7 -56 10 -81t61 -25t71 26t34 74z" />
    <glyph glyph-name="Uring" unicode="&#x16e;" horiz-adv-x="720" 
d="M425 718q-56 0 -93.5 35t-37.5 92q0 62 42 99t100 37q55 0 93 -35t38 -92q0 -62 -42 -99t-100 -37zM429 799q23 0 38 15t15 39q0 20 -14 33.5t-35 13.5q-23 0 -38 -15t-15 -39q0 -20 14 -33.5t35 -13.5zM295 728l-63 -447q-9 -68 23 -103t89 -35q56 0 96 33t49 94l64 458
h181l-64 -458q-19 -132 -102 -206t-228 -74t-225.5 84.5t-59.5 237.5l58 416h182z" />
    <glyph glyph-name="uring" unicode="&#x16f;" horiz-adv-x="602" 
d="M337 518q-56 0 -93.5 35t-37.5 92q0 62 42 99t100 37q55 0 93 -35t38 -92q0 -62 -42 -99t-100 -37zM345 700q-23 0 -38 -15t-15 -39q0 -20 14 -33.5t35 -13.5q23 0 38 15t15 39q0 20 -14 33.5t-35 13.5zM425 529h164l-74 -529h-162v54q-53 -64 -151 -64q-83 0 -131.5 53
t-34.5 154l46 332h165l-39 -284q-7 -56 10 -81t61 -25t71 26t34 74z" />
    <glyph glyph-name="Uhungarumlaut" unicode="&#x170;" horiz-adv-x="720" 
d="M282 778l117 164h138l-130 -164h-125zM455 778l139 164h139l-152 -164h-126zM295 728l-63 -447q-9 -68 23 -103t89 -35q56 0 96 33t49 94l64 458h181l-64 -458q-19 -132 -102 -206t-228 -74t-225.5 84.5t-59.5 237.5l58 416h182z" />
    <glyph glyph-name="uhungarumlaut" unicode="&#x171;" horiz-adv-x="602" 
d="M449 742l-130 -164h-125l117 164h138zM493 578h-126l139 164h139zM384 239l41 290h164l-74 -529h-162v54q-53 -64 -151 -64q-83 0 -131.5 53t-34.5 154l46 332h165l-39 -284q-7 -56 10 -81t61 -25t71 26t34 74z" />
    <glyph glyph-name="Uogonek" unicode="&#x172;" horiz-adv-x="720" 
d="M553 728h181l-64 -458q-16 -115 -81.5 -186.5t-178.5 -88.5h2q-85 -31 -85 -75q0 -21 27 -21q15 0 36 8l-14 -94q-31 -16 -69 -16q-43 0 -69 20.5t-26 57.5q0 75 89 117q-128 12 -197 95t-49 225l58 416h182l-63 -447q-9 -68 23 -103t89 -35q56 0 96 33t49 94z" />
    <glyph glyph-name="uogonek" unicode="&#x173;" horiz-adv-x="602" 
d="M515 0q-85 -31 -85 -75q0 -21 27 -21q15 0 36 8l-14 -94q-31 -16 -69 -16q-43 0 -69 20.5t-26 57.5q0 78 96 120h-58v54q-53 -64 -151 -64q-83 0 -131.5 53t-34.5 154l46 332h165l-39 -284q-7 -56 10 -81t61 -25t71 26t34 74l41 290h164z" />
    <glyph glyph-name="Wcircumflex" unicode="&#x174;" horiz-adv-x="1096" 
d="M441 778l138 164h134l90 -164h-139l-32 66l-52 -66h-139zM164 0l-86 728h197l33 -486l198 486h217l42 -486l183 486h200l-298 -728h-210l-60 500l-206 -500h-210z" />
    <glyph glyph-name="wcircumflex" unicode="&#x175;" horiz-adv-x="852" 
d="M291 578l138 164h134l90 -164h-139l-32 66l-52 -66h-139zM229 528l19 -337l123 337h189l24 -339l113 339h182l-214 -528h-193l-28 347l-136 -347h-194l-67 528h182z" />
    <glyph glyph-name="Ycircumflex" unicode="&#x176;" horiz-adv-x="730" 
d="M249 778l138 164h134l90 -164h-139l-32 66l-52 -66h-139zM269 264l-204 464h204l108 -278l199 278h219l-348 -464l-37 -264h-178z" />
    <glyph glyph-name="ycircumflex" unicode="&#x177;" 
d="M147 578l138 164h134l90 -164h-139l-32 66l-52 -66h-139zM214 528l68 -359l163 359h187l-306 -611q-17 -34 -38 -57t-39 -35t-46.5 -17.5t-45 -6.5t-49.5 -1h-142l22 154h140q38 0 38 33q0 9 -5 29l-126 512h179z" />
    <glyph glyph-name="Ydieresis" unicode="&#x178;" horiz-adv-x="730" 
d="M242 779l20 145h152l-20 -145h-152zM467 779l20 145h152l-20 -145h-152zM269 264l-204 464h204l108 -278l199 278h219l-348 -464l-37 -264h-178z" />
    <glyph glyph-name="Zacute" unicode="&#x179;" horiz-adv-x="621" 
d="M326 778l117 164h138l-130 -164h-125zM253 154h321l-22 -154h-549l19 133l388 441h-326l23 154h549l-20 -133z" />
    <glyph glyph-name="zacute" unicode="&#x17a;" horiz-adv-x="522" 
d="M243 578l117 164h138l-130 -164h-125zM248 154h222l-22 -154h-450l22 154l256 220h-223l21 154h450l-21 -154z" />
    <glyph glyph-name="Zdotaccent" unicode="&#x17b;" horiz-adv-x="621" 
d="M307 791l22 159h167l-22 -159h-167zM253 154h321l-22 -154h-549l19 133l388 441h-326l23 154h549l-20 -133z" />
    <glyph glyph-name="zdotaccent" unicode="&#x17c;" horiz-adv-x="522" 
d="M224 591l22 159h167l-22 -159h-167zM248 154h222l-22 -154h-450l22 154l256 220h-223l21 154h450l-21 -154z" />
    <glyph glyph-name="Zcaron" unicode="&#x17d;" horiz-adv-x="621" 
d="M594 942l-138 -164h-134l-90 164h139l32 -66l52 66h139zM253 154h321l-22 -154h-549l19 133l388 441h-326l23 154h549l-20 -133z" />
    <glyph glyph-name="zcaron" unicode="&#x17e;" horiz-adv-x="522" 
d="M511 742l-138 -164h-134l-90 164h139l32 -66l52 66h139zM248 154h222l-22 -154h-450l22 154l256 220h-223l21 154h450l-21 -154z" />
    <glyph glyph-name="florin" unicode="&#x192;" horiz-adv-x="589" 
d="M534 579q-43 0 -61 -14t-29 -46l-37 -111h141l-18 -128h-165l-97 -293q-27 -83 -71 -115.5t-133 -32.5h-92l21 148h58q37 0 53.5 11.5t26.5 42.5l78 239h-109l18 128h133l59 180q22 69 66.5 104.5t131.5 35.5h114l-21 -149h-67z" />
    <glyph glyph-name="Aringacute" unicode="&#x1fa;" horiz-adv-x="730" 
d="M654 1101l-130 -164h-125l117 164h138zM499 0l-28 136h-241l-68 -136h-191l355 689q-31 34 -31 85q0 62 42 99t100 37q55 0 93 -35t38 -92q0 -62 -43 -100l160 -683h-186zM434 829q-23 0 -38 -15t-15 -39q0 -20 14 -33.5t35 -13.5q23 0 38 15t15 39q0 20 -14 33.5
t-35 13.5zM296 267h148l-43 209z" />
    <glyph glyph-name="aringacute" unicode="&#x1fb;" horiz-adv-x="596" 
d="M538 899l-130 -164h-125l117 164h138zM535 126h22l-18 -126h-92q-82 0 -93 55q-51 -65 -164 -65q-82 0 -129.5 39t-47.5 112q0 78 55 126t158 48h133l3 20q5 30 -13 48t-56 18t-60 -17.5t-27 -46.5h-156q7 68 47.5 116t106.5 69q-15 27 -15 63q0 62 42 99t100 37
q55 0 93 -35t38 -92q0 -47 -25 -80q118 -50 98 -195l-23 -169q-3 -24 23 -24zM328 640q-23 0 -38 -15t-15 -39q0 -20 14 -33.5t35 -13.5q23 0 38 15t15 39q0 20 -14 33.5t-35 13.5zM341 189l2 17h-90q-57 0 -57 -43q0 -38 60 -38q77 0 85 64z" />
    <glyph glyph-name="AEacute" unicode="&#x1fc;" horiz-adv-x="1034" 
d="M691 778l117 164h138l-130 -164h-125zM-42 0l524 728h573l-21 -154h-313l-19 -134h223l-21 -150h-223l-19 -136h329l-22 -154h-497l21 146h-221l-101 -146h-213zM369 287h143l36 259z" />
    <glyph glyph-name="aeacute" unicode="&#x1fd;" horiz-adv-x="915" 
d="M670 742l-130 -164h-125l117 164h138zM640 539q125 0 191 -81.5t50 -201.5l-5 -38h-358q-3 -46 21.5 -68t65.5 -22q69 0 94 49h168q-31 -97 -102.5 -143t-164.5 -46q-135 0 -196 89q-61 -87 -200 -87q-90 0 -140.5 40.5t-50.5 109.5q0 83 58.5 129t154.5 46h133l4 25
q4 28 -14 44.5t-54 16.5q-39 0 -61 -18t-26 -46h-158q10 91 83 146t173 55q108 0 159 -59q71 60 175 60zM716 328q1 37 -21 56t-59 19t-66 -19t-37 -56h183zM341 189l2 17h-90q-57 0 -57 -43q0 -38 60 -38q77 0 85 64z" />
    <glyph glyph-name="Oslashacute" unicode="&#x1fe;" horiz-adv-x="779" 
d="M581 952l-130 -164h-125l117 164h138zM659 654q108 -97 108 -263q0 -173 -113.5 -281.5t-273.5 -108.5q-65 0 -123 20l-33 -52h-142l70 110q-113 95 -113 266q0 175 113.5 284t272.5 109q68 0 131 -23l27 43h142zM226 344q0 -66 25 -108l213 335q-22 6 -46 6
q-80 0 -136 -65.5t-56 -167.5zM382 163q82 0 140 66t58 166q0 59 -22 100l-209 -329q17 -3 33 -3z" />
    <glyph glyph-name="Scommaaccent" unicode="&#x218;" horiz-adv-x="660" 
d="M650 510h-169q6 46 -24.5 66t-81.5 20q-56 0 -85.5 -20t-29.5 -52q0 -23 19 -38.5t68 -27.5l102 -25q179 -44 179 -199q0 -117 -95 -180.5t-231 -63.5q-133 0 -212 64.5t-66 167.5h172q-5 -40 27.5 -62t91.5 -22q60 0 92 21.5t32 57.5q0 24 -17 38t-58 25l-99 26
q-98 26 -145.5 73.5t-47.5 123.5q0 101 77.5 168t229.5 67q54 0 100 -10.5t87.5 -34.5t64 -71t19.5 -112zM207 -172l18 131h145l-18 -131l-64 -87h-86l65 87h-60z" />
    <glyph glyph-name="scommaaccent" unicode="&#x219;" horiz-adv-x="531" 
d="M518 363h-171q4 24 -14.5 38.5t-51.5 14.5q-29 0 -45 -10.5t-16 -28.5q0 -15 13 -22.5t48 -15.5l71 -16q145 -33 145 -151q0 -88 -75 -135t-184 -47q-107 0 -171 46.5t-64 134.5h170q-3 -29 16 -44t56 -15q69 0 69 41q0 16 -13.5 26.5t-48.5 17.5l-61 13
q-149 31 -149 142q0 84 71.5 135t178.5 51q114 0 175.5 -49t50.5 -126zM143 -163l18 131h145l-18 -131l-64 -87h-86l65 87h-60z" />
    <glyph glyph-name="uni021A" unicode="&#x21a;" horiz-adv-x="644" 
d="M85 728h604l-21 -154h-213l-81 -574h-178l81 574h-213zM200 -163l18 131h145l-18 -131l-64 -87h-86l65 87h-60z" />
    <glyph glyph-name="uni021B" unicode="&#x21b;" horiz-adv-x="405" 
d="M273 376l-23 -163q-5 -37 4.5 -48.5t43.5 -11.5h63l-22 -153h-124q-86 0 -122.5 44.5t-22.5 140.5l27 191h-75l21 152h25q27 0 40 9t17 38l14 101h176l-21 -148h119l-21 -152h-119zM107 -163l18 131h145l-18 -131l-64 -87h-86l65 87h-60z" />
    <glyph glyph-name="uni0237" unicode="&#x237;" horiz-adv-x="286" 
d="M197 -28q-13 -92 -61.5 -132t-150.5 -40h-76l22 153h35q28 0 41 10.5t17 36.5l73 528h176z" />
    <glyph glyph-name="uni02BB" unicode="&#x2bb;" horiz-adv-x="176" 
d="M232 823l-65 -87h60l-18 -131h-145l18 131l64 87h86z" />
    <glyph glyph-name="uni02BC" unicode="&#x2bc;" horiz-adv-x="266" 
d="M365 760l-56 -198h-106l28 198h134z" />
    <glyph glyph-name="circumflex" unicode="&#x2c6;" horiz-adv-x="427" 
d="M87 646l138 164h134l90 -164h-139l-32 66l-52 -66h-139z" />
    <glyph glyph-name="caron" unicode="&#x2c7;" horiz-adv-x="427" 
d="M472 810l-138 -164h-134l-90 164h139l32 -66l52 66h139z" />
    <glyph glyph-name="breve" unicode="&#x2d8;" horiz-adv-x="358" 
d="M305 810h107q-6 -82 -50.5 -124t-121.5 -42q-70 0 -111 46.5t-29 119.5h107q-6 -28 5 -45t35 -17q53 0 58 62z" />
    <glyph glyph-name="dotaccent" unicode="&#x2d9;" horiz-adv-x="257" 
d="M101 659l22 159h167l-22 -159h-167z" />
    <glyph glyph-name="ring" unicode="&#x2da;" horiz-adv-x="312" 
d="M207 599q-56 0 -93.5 35t-37.5 92q0 62 42 99t100 37q55 0 93 -35t38 -92q0 -62 -42 -99t-100 -37zM211 680q23 0 38 15t15 39q0 20 -14 33.5t-35 13.5q-23 0 -38 -15t-15 -39q0 -20 14 -33.5t35 -13.5z" />
    <glyph glyph-name="ogonek" unicode="&#x2db;" horiz-adv-x="302" 
d="M160 -182q-31 -16 -69 -16q-43 0 -69 20.5t-26 57.5q0 78 96 120h104q-85 -31 -85 -75q0 -21 27 -21q15 0 36 8z" />
    <glyph glyph-name="tilde" unicode="&#x2dc;" horiz-adv-x="436" 
d="M215 809q40 0 82.5 -26.5t62.5 -26.5q42 0 48 44h85q-2 -69 -39.5 -110t-95.5 -41q-40 0 -82 26.5t-63 26.5q-43 0 -49 -44h-85q2 69 40 110t96 41z" />
    <glyph glyph-name="hungarumlaut" unicode="&#x2dd;" horiz-adv-x="480" 
d="M93 646l117 164h138l-130 -164h-125zM266 646l139 164h139l-152 -164h-126z" />
    <glyph glyph-name="uni0326" unicode="&#x326;" horiz-adv-x="0" 
d="M-248 0h145l-18 -131l-64 -87h-86l65 87h-60z" />
    <glyph glyph-name="uni0335" unicode="&#x335;" horiz-adv-x="0" 
d="M-356 365h399l-18 -131h-399z" />
    <glyph glyph-name="uni0336" unicode="&#x336;" horiz-adv-x="0" 
d="M-637 352h595l-12 -111h-595z" />
    <glyph glyph-name="uni0337" unicode="&#x337;" horiz-adv-x="0" 
d="M-600 -42l499 609h142l-498 -609h-143z" />
    <glyph glyph-name="uni0338" unicode="&#x338;" horiz-adv-x="0" 
d="M-740 -31l591 789h142l-591 -789h-142z" />
    <glyph glyph-name="pi" unicode="&#x3c0;" horiz-adv-x="800" 
d="M785 421h-120v-187q0 -20 6 -34t12 -20t20 -9.5t19.5 -3.5h20.5h42v-167h-112q-95 0 -138.5 53.5t-43.5 134.5l-1 233h-138v-421h-176v421h-115v154h724v-154z" />
    <glyph glyph-name="Wgrave" unicode="&#x1e80;" horiz-adv-x="1096" 
d="M676 778h-125l-130 164h138zM164 0l-86 728h197l33 -486l198 486h217l42 -486l183 486h200l-298 -728h-210l-60 500l-206 -500h-210z" />
    <glyph glyph-name="wgrave" unicode="&#x1e81;" horiz-adv-x="852" 
d="M526 578h-125l-130 164h138zM229 528l19 -337l123 337h189l24 -339l113 339h182l-214 -528h-193l-28 347l-136 -347h-194l-67 528h182z" />
    <glyph glyph-name="Wacute" unicode="&#x1e82;" horiz-adv-x="1096" 
d="M559 778l117 164h138l-130 -164h-125zM164 0l-86 728h197l33 -486l198 486h217l42 -486l183 486h200l-298 -728h-210l-60 500l-206 -500h-210z" />
    <glyph glyph-name="wacute" unicode="&#x1e83;" horiz-adv-x="852" 
d="M409 578l117 164h138l-130 -164h-125zM229 528l19 -337l123 337h189l24 -339l113 339h182l-214 -528h-193l-28 347l-136 -347h-194l-67 528h182z" />
    <glyph glyph-name="Wdieresis" unicode="&#x1e84;" horiz-adv-x="1096" 
d="M434 779l20 145h152l-20 -145h-152zM659 779l20 145h152l-20 -145h-152zM164 0l-86 728h197l33 -486l198 486h217l42 -486l183 486h200l-298 -728h-210l-60 500l-206 -500h-210z" />
    <glyph glyph-name="wdieresis" unicode="&#x1e85;" horiz-adv-x="852" 
d="M284 579l20 145h152l-20 -145h-152zM509 579l20 145h152l-20 -145h-152zM229 528l19 -337l123 337h189l24 -339l113 339h182l-214 -528h-193l-28 347l-136 -347h-194l-67 528h182z" />
    <glyph glyph-name="Ygrave" unicode="&#x1ef2;" horiz-adv-x="730" 
d="M484 778h-125l-130 164h138zM269 264l-204 464h204l108 -278l199 278h219l-348 -464l-37 -264h-178z" />
    <glyph glyph-name="ygrave" unicode="&#x1ef3;" 
d="M382 578h-125l-130 164h138zM214 528l68 -359l163 359h187l-306 -611q-17 -34 -38 -57t-39 -35t-46.5 -17.5t-45 -6.5t-49.5 -1h-142l22 154h140q38 0 38 33q0 9 -5 29l-126 512h179z" />
    <glyph glyph-name="endash" unicode="&#x2013;" horiz-adv-x="663" 
d="M46 380h604l-21 -155h-604z" />
    <glyph glyph-name="emdash" unicode="&#x2014;" horiz-adv-x="999" 
d="M46 380h940l-21 -155h-940z" />
    <glyph glyph-name="quoteleft" unicode="&#x2018;" horiz-adv-x="279" 
d="M291 637l-28 -193h-198l28 193l91 123h96l-80 -123h91z" />
    <glyph glyph-name="quoteright" unicode="&#x2019;" horiz-adv-x="278" 
d="M93 444l81 123h-91l27 193h198l-27 -193l-92 -123h-96z" />
    <glyph glyph-name="quotesinglbase" unicode="&#x201a;" horiz-adv-x="278" 
d="M3 0l27 193h198l-27 -193l-91 -123h-96l80 123h-91z" />
    <glyph glyph-name="quotedblleft" unicode="&#x201c;" horiz-adv-x="519" 
d="M291 637l-28 -193h-198l28 193l91 123h96l-80 -123h91zM531 637l-28 -193h-198l28 193l91 123h96l-80 -123h91z" />
    <glyph glyph-name="quotedblright" unicode="&#x201d;" horiz-adv-x="518" 
d="M93 444l81 123h-91l27 193h198l-27 -193l-92 -123h-96zM333 444l81 123h-91l27 193h198l-27 -193l-92 -123h-96z" />
    <glyph glyph-name="quotedblbase" unicode="&#x201e;" horiz-adv-x="518" 
d="M3 0l27 193h198l-27 -193l-91 -123h-96l80 123h-91zM243 0l27 193h198l-27 -193l-91 -123h-96l80 123h-91z" />
    <glyph glyph-name="dagger" unicode="&#x2020;" horiz-adv-x="525" 
d="M506 568v-128h-145v-336h-129v336h-145v128h145v160h129v-160h145z" />
    <glyph glyph-name="daggerdbl" unicode="&#x2021;" horiz-adv-x="496" 
d="M479 456h-145v-80h145v-128h-145v-144h-129v144h-145v128h145v80h-145v128h145v144h129v-144h145v-128z" />
    <glyph glyph-name="bullet" unicode="&#x2022;" horiz-adv-x="428" 
d="M205 140q-70 0 -114.5 45t-44.5 113q0 77 56.5 134t136.5 57q70 0 114 -45.5t44 -113.5q0 -78 -57 -134t-135 -56z" />
    <glyph glyph-name="ellipsis" unicode="&#x2026;" horiz-adv-x="813" 
d="M3 0l28 198h198l-28 -198h-198zM270 0l28 198h198l-28 -198h-198zM538 0l28 198h198l-28 -198h-198z" />
    <glyph glyph-name="perthousand" unicode="&#x2030;" horiz-adv-x="1401" 
d="M253 315q-75 0 -127 52t-52 145q0 94 54 160t143 66q79 0 129 -54.5t50 -145.5q0 -99 -57.5 -161t-139.5 -62zM162 0l557 728h145l-556 -728h-146zM256 437q27 0 42 30.5t15 72.5q0 75 -44 75q-28 0 -43 -30.5t-15 -72.5q0 -75 45 -75zM754 -10q-75 0 -127 52t-52 145
q0 94 54 160t143 66q79 0 129 -54.5t50 -145.5q0 -99 -57.5 -161t-139.5 -62zM1158 -10q-75 0 -127 52t-52 145q0 94 54 160t143 66q79 0 129 -54.5t50 -145.5q0 -99 -57.5 -161t-139.5 -62zM757 112q27 0 42 30.5t15 72.5q0 75 -44 75q-28 0 -43 -30.5t-15 -72.5
q0 -75 45 -75zM1161 112q27 0 42 30.5t15 72.5q0 75 -44 75q-28 0 -43 -30.5t-15 -72.5q0 -75 45 -75z" />
    <glyph glyph-name="guilsinglleft" unicode="&#x2039;" horiz-adv-x="430" 
d="M193 56l-157 239l223 233h181l-222 -233l156 -239h-181z" />
    <glyph glyph-name="guilsinglright" unicode="&#x203a;" horiz-adv-x="430" 
d="M246 529l157 -233l-223 -239h-182l224 239l-158 233h182z" />
    <glyph glyph-name="uni2042" unicode="&#x2042;" horiz-adv-x="734" 
d="M214 591l23 64l64 -22q31 -11 40 -18q-3 39 -3 44v69h67v-69q0 -27 -4 -44q18 11 41 19l64 22l22 -65l-65 -22q-28 -9 -44 -10q15 -11 31 -33l42 -56l-56 -41l-40 56q-17 20 -24 40q-9 -19 -25 -40l-41 -56l-56 41l44 56q20 26 31 33q-17 1 -45 10zM14 291l23 64l64 -22
q31 -11 40 -18q-3 39 -3 44v69h67v-69q0 -27 -4 -44q18 11 41 19l64 22l22 -65l-65 -22q-28 -9 -44 -10q15 -11 31 -33l42 -56l-56 -41l-40 56q-17 20 -24 40q-9 -19 -25 -40l-41 -56l-56 41l44 56q20 26 31 33q-17 1 -45 10zM414 291l23 64l64 -22q31 -11 40 -18
q-3 39 -3 44v69h67v-69q0 -27 -4 -44q18 11 41 19l64 22l22 -65l-65 -22q-28 -9 -44 -10q15 -11 31 -33l42 -56l-56 -41l-40 56q-17 20 -24 40q-9 -19 -25 -40l-41 -56l-56 41l44 56q20 26 31 33q-17 1 -45 10z" />
    <glyph glyph-name="fraction" unicode="&#x2044;" horiz-adv-x="221" 
d="M-157 0l460 728h103l-460 -728h-103z" />
    <glyph glyph-name="Euro" unicode="&#x20ac;" horiz-adv-x="648" 
d="M413 157q64 0 108 28l70 -143q-92 -52 -189 -52q-120 0 -203.5 63.5t-110.5 176.5h-78l16 114h51l3 42h-48l16 114h62q46 108 143.5 173t225.5 65q126 0 202 -52l-110 -142q-34 28 -100 28q-95 0 -150 -72h186l-29 -114h-204q-4 -25 -5 -42h199l-26 -114h-157
q31 -73 128 -73z" />
    <glyph glyph-name="uni2116" unicode="&#x2116;" horiz-adv-x="1241" 
d="M773 506q0 99 64.5 166t166.5 67q95 0 154.5 -58t59.5 -152q0 -98 -65 -164t-167 -66q-92 0 -152.5 55.5t-60.5 151.5zM25 0l102 728h140l233 -396l55 396h173l-102 -728h-140l-232 396l-56 -396h-173zM1079 527q0 40 -23.5 61.5t-56.5 21.5q-38 0 -62 -29t-24 -70
q0 -42 23.5 -62t56.5 -20q39 0 62.5 29t23.5 69zM761 134l18 130h361l-18 -130h-361z" />
    <glyph glyph-name="uni2117" unicode="&#x2117;" horiz-adv-x="538" 
d="M535 506q0 -97 -66 -164.5t-166 -67.5q-97 0 -164 68t-67 164q0 95 67 163.5t164 68.5q100 0 166 -68t66 -164zM303 671q-73 0 -118 -47.5t-45 -117.5q0 -69 45 -116.5t118 -47.5q77 0 121 47t44 117t-45 117.5t-120 47.5zM289 461h33q37 0 59.5 19.5t22.5 55.5
q0 33 -21 55t-55 22h-99v-216h60v64zM313 562q31 0 31 -26t-31 -26h-24v52h24z" />
    <glyph glyph-name="trademark" unicode="&#x2122;" horiz-adv-x="687" 
d="M84 641l12 87h258l-12 -87h-79l-29 -210h-100l29 210h-79zM515 516l103 212h93l-41 -297h-86l11 78q6 49 15 70l-68 -148h-72l-28 148q3 -21 -3 -70l-11 -78h-86l41 297h90z" />
    <glyph glyph-name="estimated" unicode="&#x212e;" horiz-adv-x="816" 
d="M82 367q1 165 97 268t246 103q153 0 247 -92t94 -250q2 -28 0 -55h-580v-187q86 -122 252 -122q80 0 147 38t100 101l40 -15q-38 -77 -115 -121t-174 -44q-160 0 -258 104t-96 272zM186 568v-189h477v208q-39 53 -101.5 82t-136.5 28q-76 -1 -138 -35.5t-101 -93.5z" />
    <glyph glyph-name="oneeighth" unicode="&#x215b;" horiz-adv-x="859" 
d="M294 350h-232l12 82h75l29 207l-85 -38l12 86l85 41h88l-42 -296h70zM603 728h103l-460 -728h-103zM774 199q39 -24 39 -79q0 -56 -43 -90.5t-110 -34.5q-62 0 -101 30t-39 82q0 35 18.5 61.5t46.5 35.5q-29 25 -29 67q0 51 39.5 81.5t100.5 30.5q54 0 91 -28t37 -76
q0 -57 -50 -80zM686 233q21 0 36.5 13t15.5 32q0 17 -12.5 28.5t-33.5 11.5q-23 0 -37.5 -13.5t-14.5 -32.5q0 -18 13 -28.5t33 -10.5zM664 67q27 0 44 14.5t17 37.5q0 20 -15 33.5t-40 13.5q-26 0 -43.5 -15t-17.5 -37q0 -21 15.5 -34t39.5 -13z" />
    <glyph glyph-name="threeeighths" unicode="&#x215c;" horiz-adv-x="878" 
d="M333 462q0 -56 -43.5 -86.5t-105.5 -30.5q-65 0 -103.5 37.5t-30.5 97.5h85q-4 -29 11 -44.5t39 -15.5q22 0 37.5 12.5t15.5 34.5q0 17 -11.5 28.5t-34.5 11.5h-34l10 67h35q53 0 53 44q0 19 -12.5 30t-33.5 11q-26 0 -41 -16.5t-17 -43.5h-84q5 61 45 97.5t106 36.5
q59 0 94.5 -29t35.5 -77q0 -32 -17 -55t-45 -32q46 -21 46 -78zM622 728h103l-460 -728h-103zM793 199q39 -24 39 -79q0 -56 -43 -90.5t-110 -34.5q-62 0 -101 30t-39 82q0 35 18.5 61.5t46.5 35.5q-29 25 -29 67q0 51 39.5 81.5t100.5 30.5q54 0 91 -28t37 -76
q0 -57 -50 -80zM705 233q21 0 36.5 13t15.5 32q0 17 -12.5 28.5t-33.5 11.5q-23 0 -37.5 -13.5t-14.5 -32.5q0 -18 13 -28.5t33 -10.5zM683 67q27 0 44 14.5t17 37.5q0 20 -15 33.5t-40 13.5q-26 0 -43.5 -15t-17.5 -37q0 -21 15.5 -34t39.5 -13z" />
    <glyph glyph-name="fiveeighths" unicode="&#x215d;" horiz-adv-x="879" 
d="M339 490q0 -65 -44.5 -105t-112.5 -40q-58 0 -98.5 33.5t-37.5 97.5h83q-1 -25 14.5 -40.5t38.5 -15.5q26 0 44.5 18.5t18.5 48.5q0 26 -13.5 41t-37.5 15q-46 0 -61 -39h-81l72 224h227l-10 -75h-160l-18 -51q26 11 58 11q51 0 84.5 -33t33.5 -90zM623 728h103
l-460 -728h-103zM794 199q39 -24 39 -79q0 -56 -43 -90.5t-110 -34.5q-62 0 -101 30t-39 82q0 35 18.5 61.5t46.5 35.5q-29 25 -29 67q0 51 39.5 81.5t100.5 30.5q54 0 91 -28t37 -76q0 -57 -50 -80zM706 233q21 0 36.5 13t15.5 32q0 17 -12.5 28.5t-33.5 11.5
q-23 0 -37.5 -13.5t-14.5 -32.5q0 -18 13 -28.5t33 -10.5zM684 67q27 0 44 14.5t17 37.5q0 20 -15 33.5t-40 13.5q-26 0 -43.5 -15t-17.5 -37q0 -21 15.5 -34t39.5 -13z" />
    <glyph glyph-name="seveneighths" unicode="&#x215e;" horiz-adv-x="848" 
d="M155 350h-88q34 142 164 303h-166l10 75h270l-10 -70q-138 -145 -180 -308zM592 728h103l-460 -728h-103zM763 199q39 -24 39 -79q0 -56 -43 -90.5t-110 -34.5q-62 0 -101 30t-39 82q0 35 18.5 61.5t46.5 35.5q-29 25 -29 67q0 51 39.5 81.5t100.5 30.5q54 0 91 -28
t37 -76q0 -57 -50 -80zM675 233q21 0 36.5 13t15.5 32q0 17 -12.5 28.5t-33.5 11.5q-23 0 -37.5 -13.5t-14.5 -32.5q0 -18 13 -28.5t33 -10.5zM653 67q27 0 44 14.5t17 37.5q0 20 -15 33.5t-40 13.5q-26 0 -43.5 -15t-17.5 -37q0 -21 15.5 -34t39.5 -13z" />
    <glyph glyph-name="uni2160" unicode="&#x2160;" horiz-adv-x="537" 
d="M477 617h-121v-506h121v-111h-417v111h121v506h-121v111h417v-111z" />
    <glyph glyph-name="uni2161" unicode="&#x2161;" horiz-adv-x="851" 
d="M791 0h-731v111h120v506h-120v111h731v-111h-119v-506h119v-111zM496 617h-140v-506h140v506z" />
    <glyph glyph-name="uni2162" unicode="&#x2162;" horiz-adv-x="1195" 
d="M1135 0h-1075v115h128v498h-128v115h1075v-115h-128v-498h128v-115zM363 115h146v498h-146v-498zM831 613h-146v-498h146v498z" />
    <glyph glyph-name="uni2163" unicode="&#x2163;" horiz-adv-x="1232" 
d="M1172 -1h-1112v115h148v499h-148v115h1112v-115h-88l-162 -499h250v-115zM383 114h212l-163 499h-49v-499zM904 613h-288l144 -468z" />
    <glyph glyph-name="uni2164" unicode="&#x2164;" horiz-adv-x="944" 
d="M884 613h-87l-162 -498h247v-115h-820v115h251l-163 498h-90v115h824v-115zM617 613h-287l143 -467z" />
    <glyph glyph-name="uni2165" unicode="&#x2165;" horiz-adv-x="1232" 
d="M1172 0h-1112v115h255l-162 498h-93v115h1112v-115h-131v-498h131v-115zM617 613h-284l142 -463zM636 115h228v498h-67z" />
    <glyph glyph-name="uni2166" unicode="&#x2166;" horiz-adv-x="1515" 
d="M1455 0h-1395v115h244l-162 498h-82v115h1393v-115h-126v-498h127zM605 613h-283l143 -463zM624 115h229v498h-68zM1151 613h-121v-498h121v498z" />
    <glyph glyph-name="uni2167" unicode="&#x2167;" horiz-adv-x="1838" 
d="M1778 0h-1718v115h234l-158 498h-76v115h1716v-115h-125v-498h127v-115zM591 613h-275l138 -461zM614 115h236v498h-79zM1026 115h136v498h-136v-498zM1339 115h136v498h-136v-498z" />
    <glyph glyph-name="uni2168" unicode="&#x2168;" horiz-adv-x="1155" 
d="M1095 0h-1035v115h123v498h-123v115h1035v-115h-72l-185 -256l180 -242h77v-115zM416 613h-58v-498h61l181 244zM720 454l113 159h-225zM609 115h215l-108 151z" />
    <glyph glyph-name="uni2169" unicode="&#x2169;" horiz-adv-x="933" 
d="M873 613h-103l-184 -255l179 -243h108v-115h-813v115h107l180 245l-184 253h-103v115h813v-115zM466 454l113 159h-222zM357 115h215l-108 151z" />
    <glyph glyph-name="arrowleft" unicode="&#x2190;" horiz-adv-x="877" 
d="M402 622l55 -55l-254 -254h614v-72h-615l252 -252l-52 -51l-342 341z" />
    <glyph glyph-name="arrowup" unicode="&#x2191;" horiz-adv-x="804" 
d="M60 414l340 339l344 -339l-51 -51l-257 251v-614h-72v615l-253 -252z" />
    <glyph glyph-name="arrowright" unicode="&#x2192;" horiz-adv-x="877" 
d="M474 620l343 -342l-343 -342l-54 55l254 254l-614 -1v73h614l-251 252z" />
    <glyph glyph-name="arrowdown" unicode="&#x2193;" horiz-adv-x="804" 
d="M744 285l-342 -342l-342 342l55 55l254 -254v614h72v-615l252 252z" />
    <glyph glyph-name="arrowboth" unicode="&#x2194;" horiz-adv-x="1027" 
d="M722 28v106l105 107l-381 -1v1l-245 -1l107 -108v-105l-248 250l247 249v-107l-106 -106l243 2v1h142v-1l241 -1l-106 106v106l246 -248z" />
    <glyph glyph-name="arrowupdn" unicode="&#x2195;" horiz-adv-x="618" 
d="M345 -37l107 106h106l-250 -248l-248 248h105l107 -107l-1 244h-1v142h1l1 241l-107 -107h-105l248 247l250 -247h-106l-107 106v-625z" />
    <glyph glyph-name="uni2196" unicode="&#x2196;" horiz-adv-x="679" 
d="M544 557v-78h-359l434 -433l-51 -52l-435 435v-356h-73v484h484z" />
    <glyph glyph-name="uni2197" unicode="&#x2197;" horiz-adv-x="682" 
d="M138 559h484v-484h-77v359l-434 -434l-51 51l434 435h-356v73z" />
    <glyph glyph-name="uni2198" unicode="&#x2198;" horiz-adv-x="679" 
d="M619 484v-484h-484v78h359l-434 433l51 52l435 -434v355h73z" />
    <glyph glyph-name="uni2199" unicode="&#x2199;" horiz-adv-x="683" 
d="M544 0h-484v484h78v-359l433 434l52 -51l-434 -435h355v-73z" />
    <glyph glyph-name="partialdiff" unicode="&#x2202;" horiz-adv-x="623" 
d="M444 728q76 -47 123.5 -158t47.5 -228q0 -152 -83 -252t-231 -100q-121 0 -197 68t-76 190q0 119 72.5 192t187.5 78q77 3 123 -25q-7 18 -15 34.5t-20.5 33t-19.5 27t-25.5 27t-24.5 22.5t-30 23.5t-28.5 21t-33.5 23.5t-32 22zM303 148q48 0 78.5 32.5t30.5 81.5
q0 45 -26 72t-68 27q-47 0 -78 -32t-31 -83q0 -45 25.5 -71.5t68.5 -26.5z" />
    <glyph glyph-name="emptyset" unicode="&#x2205;" 
d="M608 500l-86 -78q37 -62 37 -139q0 -122 -83 -205t-199 -83q-97 0 -165 52l-85 -78l-55 63l86 78q-35 61 -35 141q0 118 81 202t197 84q99 0 166 -53l86 79zM183 251q0 -10 2 -24l163 149q-19 12 -49 12q-54 0 -85 -41.5t-31 -95.5zM398 280q0 10 -2 26l-165 -151
q20 -11 48 -11q54 0 86.5 42t32.5 94z" />
    <glyph glyph-name="product" unicode="&#x220f;" horiz-adv-x="756" 
d="M782 728l-21 -154h-108l-80 -574h-165l80 574h-142l-80 -574h-165l80 574h-97l21 154h677z" />
    <glyph glyph-name="summation" unicode="&#x2211;" horiz-adv-x="595" 
d="M243 350l-155 245l17 133h516l-22 -157l-312 3l149 -239l-202 -209l303 -1l-22 -157h-516l20 144z" />
    <glyph glyph-name="minus" unicode="&#x2212;" 
d="M84 407h474l-22 -154h-474z" />
    <glyph glyph-name="radical" unicode="&#x221a;" horiz-adv-x="849" 
d="M918 874v-148h-265l-311 -830h-160l-147 392h160l67 -178l286 764h370z" />
    <glyph glyph-name="infinity" unicode="&#x221e;" horiz-adv-x="1013" 
d="M283 33q-104 0 -173.5 64.5t-69.5 166.5q0 101 70 168t174 67q136 0 222 -121q86 121 222 121q104 0 174 -67t70 -168q0 -102 -69.5 -166.5t-173.5 -64.5q-139 0 -223 117q-84 -117 -223 -117zM296 188q64 0 125 77q-61 77 -125 77q-39 0 -62.5 -22.5t-23.5 -54.5
t23.5 -54.5t62.5 -22.5zM716 188q39 0 62.5 22.5t23.5 54.5t-23.5 54.5t-62.5 22.5q-64 0 -125 -77q61 -77 125 -77z" />
    <glyph glyph-name="integral" unicode="&#x222b;" horiz-adv-x="491" 
d="M405 889h134l-23 -161h-90q-24 0 -36.5 -7.5t-15 -16t-5.5 -27.5l-103 -736q-20 -146 -180 -146h-112l23 162h70q24 0 35.5 8t15.5 33l100 730q22 161 187 161z" />
    <glyph glyph-name="approxequal" unicode="&#x2248;" 
d="M344 491q3 -2 9 -7q50 -39 69 -39t31 17.5t12 50.5h124q0 -88 -42 -143t-117 -55q-28 0 -53.5 9.5t-40 19.5t-41.5 32q-6 5 -14.5 12t-12 9.5t-9 7t-9 6t-8 2.5t-9.5 1q-45 0 -45 -68h-124q0 88 41 143t117 55q33 0 59.5 -12.5t62.5 -40.5zM304 251q3 -2 9 -7
q50 -39 69 -39t31 17.5t12 50.5h124q0 -88 -42 -143t-117 -55q-28 0 -53.5 9.5t-40 19.5t-41.5 32q-6 5 -14.5 12t-12 9.5t-9 7t-9 6t-8 2.5t-9.5 1q-45 0 -45 -68h-124q0 88 41 143t117 55q33 0 59.5 -12.5t62.5 -40.5z" />
    <glyph glyph-name="notequal" unicode="&#x2260;" 
d="M533 377h-142l-48 -94h176l-19 -140h-228l-46 -91h-109l46 91h-97l19 140h149l48 94h-183l19 140h234l46 90h109l-46 -90h91z" />
    <glyph glyph-name="lessequal" unicode="&#x2264;" 
d="M569 629l-22 -159l-291 -76l269 -80l-22 -155l-427 148l25 174zM55 154h448l-22 -154h-448z" />
    <glyph glyph-name="greaterequal" unicode="&#x2265;" 
d="M67 159l23 159l291 80l-269 78l21 153l428 -148l-25 -174zM515 154l-22 -154h-448l22 154h448z" />
    <glyph glyph-name="filledbox" unicode="&#x25a0;" horiz-adv-x="811" 
d="M42 728h727v-727h-727v727z" />
    <glyph glyph-name="uni25A1" unicode="&#x25a1;" horiz-adv-x="812" 
d="M42 728h728v-728h-728v728zM113 657v-586h586v586h-586z" />
    <glyph glyph-name="triagup" unicode="&#x25b2;" horiz-adv-x="969" 
d="M42 0h885l-443 731z" />
    <glyph glyph-name="uni25B3" unicode="&#x25b3;" horiz-adv-x="965" 
d="M42 0l440 728l441 -728h-881zM177 75h612l-306 506z" />
    <glyph glyph-name="lozenge" unicode="&#x25ca;" horiz-adv-x="645" 
d="M259 0l-217 361l217 367h121l223 -367l-223 -361h-121zM511 360l-189 322l-188 -322l188 -314z" />
    <glyph glyph-name="circle" unicode="&#x25cb;" horiz-adv-x="836" 
d="M417 -10q-156 0 -265.5 110t-109.5 266q0 155 110 265.5t265 110.5t266 -110.5t111 -265.5t-111 -265.5t-266 -110.5zM418 63q125 0 214.5 89t89.5 214q0 126 -89 215t-215 89t-215 -88.5t-89 -215.5q0 -126 89 -214.5t215 -88.5z" />
    <glyph glyph-name="uni25CF" unicode="&#x25cf;" horiz-adv-x="842" 
d="M422 -20q-158 0 -269 111t-111 269q0 157 111 267.5t269 110.5q157 0 267.5 -110.5t110.5 -267.5q0 -158 -110.5 -269t-267.5 -111z" />
    <glyph glyph-name="uni262E" unicode="&#x262e;" horiz-adv-x="836" 
d="M417 -15q-158 0 -269 111.5t-111 269.5q0 157 111.5 269t268.5 112t269.5 -112t112.5 -269t-112.5 -269t-269.5 -112zM131 239l251 154v284q-119 -14 -198.5 -103t-79.5 -208q0 -67 27 -127zM705 239q27 60 27 127q0 118 -79.5 207.5t-197.5 103.5v-285zM382 54v254
l-214 -133q83 -107 214 -121zM455 54q130 16 213 122l-213 131v-253z" />
    <glyph glyph-name="uni2713" unicode="&#x2713;" horiz-adv-x="724" 
d="M694 613l72 -75l-472 -445l-242 272l79 73l168 -187z" />
    <glyph glyph-name="uniA7B6" unicode="&#xa7b6;" horiz-adv-x="711" 
d="M677 420q0 -65 -29 -139.5t-76 -137.5h99v-143h-294v143q38 31 76 102t38 144q0 87 -37.5 130.5t-102.5 42.5t-102.5 -44.5t-37.5 -128.5q0 -79 37 -146.5t77 -99.5v-143h-298v143h103q-47 63 -76 137.5t-29 139.5q0 150 86.5 233.5t239.5 83.5t239.5 -83.5t86.5 -233.5z
" />
    <glyph glyph-name="i.loclTRK" horiz-adv-x="276" 
d="M99 591l22 159h167l-22 -159h-167zM13 0l74 528h176l-74 -528h-176z" />
    <glyph glyph-name="f_f_t" horiz-adv-x="1109" 
d="M977 376l-23 -163q-5 -37 4.5 -48.5t43.5 -11.5h63l-22 -153h-124q-86 0 -122.5 44.5t-22.5 140.5l27 191h-168l-53 -376h-176l53 376h-174l-53 -376h-176l53 376h-76l21 152h76l6 42q14 97 57.5 143.5t142.5 46.5h108l-20 -141h-43q-33 0 -49.5 -14.5t-21.5 -46.5
l-4 -30h174l6 42q14 97 57.5 143.5t142.5 46.5h108l-20 -141h-43q-33 0 -49.5 -14.5t-21.5 -46.5l-4 -30h118q27 0 40 9t17 38l14 101h176l-21 -148h119l-21 -152h-119z" />
    <glyph glyph-name="f_t" horiz-adv-x="759" 
d="M627 376l-23 -163q-5 -37 4.5 -48.5t43.5 -11.5h63l-22 -153h-124q-86 0 -122.5 44.5t-22.5 140.5l27 191h-168l-53 -376h-176l53 376h-76l21 152h76l6 42q14 97 57.5 143.5t142.5 46.5h108l-20 -141h-43q-33 0 -49.5 -14.5t-21.5 -46.5l-4 -30h118q27 0 40 9t17 38
l14 101h176l-21 -148h119l-21 -152h-119z" />
    <glyph glyph-name="t_t" horiz-adv-x="770" 
d="M638 376l-23 -163q-5 -37 4.5 -48.5t43.5 -11.5h63l-22 -153h-124q-86 0 -122.5 44.5t-22.5 140.5l27 191h-189l-23 -163q-5 -37 4.5 -48.5t43.5 -11.5h63l-22 -153h-124q-86 0 -122.5 44.5t-22.5 140.5l27 191h-75l21 152h25q27 0 40 9t17 38l14 101h176l-21 -148h139
q27 0 40 9t17 38l14 101h176l-21 -148h119l-21 -152h-119z" />
    <glyph glyph-name="zero.tf" horiz-adv-x="650" 
d="M303 -10q-137 0 -210 87t-73 236q0 179 94.5 302t246.5 123q124 0 200.5 -89t76.5 -242q0 -184 -93.5 -300.5t-241.5 -116.5zM203 258l227 290q-28 48 -78 48q-71 0 -112.5 -74.5t-41.5 -192.5q0 -36 5 -71zM306 132q65 0 110 71.5t45 193.5q0 29 -3 53l-222 -283
q26 -35 70 -35z" />
    <glyph glyph-name="one.tf" horiz-adv-x="650" 
d="M428 163h152l-22 -163h-490l22 163h165l55 390l-193 -72l23 169l194 78h173z" />
    <glyph glyph-name="two.tf" horiz-adv-x="650" 
d="M424 253l-130 -91h260l-23 -162h-512l22 157l296 216q34 25 48 36t30 35t16 49q0 37 -23.5 62t-66.5 25q-47 0 -74.5 -30t-32.5 -80h-166q7 132 85.5 200t197.5 68q116 0 186.5 -62t70.5 -166q0 -43 -15 -81.5t-45.5 -71t-56 -54t-67.5 -50.5z" />
    <glyph glyph-name="three.tf" horiz-adv-x="650" 
d="M497 365q40 -19 63.5 -57.5t23.5 -92.5q0 -72 -41.5 -124.5t-105.5 -76.5t-140 -24q-128 0 -202 73t-58 190h168q-8 -56 20 -85.5t73 -29.5q41 0 70 23.5t29 63.5q0 32 -21.5 53.5t-65.5 21.5h-65l19 132h68q100 0 100 83q0 35 -24 56t-63 21q-48 0 -77 -31.5t-32 -83.5
l-165 1q11 118 88 189t204 71q113 0 182.5 -56.5t69.5 -148.5q0 -62 -32.5 -106.5t-85.5 -61.5z" />
    <glyph glyph-name="four.tf" horiz-adv-x="650" 
d="M320 0l17 123h-326l22 153l383 452h184l-63 -453h90l-22 -152h-90l-17 -123h-178zM204 275h155l29 208z" />
    <glyph glyph-name="five.tf" horiz-adv-x="650" 
d="M600 580h-306l-33 -92q43 20 109 20q98 0 163 -63.5t65 -174.5q0 -124 -86 -202t-218 -78q-112 0 -190.5 65t-72.5 189h163q-3 -48 26.5 -77t73.5 -29q49 0 84 34.5t35 91.5q0 49 -26 77.5t-71 28.5q-47 0 -76.5 -24t-38.5 -52h-160l140 434h439z" />
    <glyph glyph-name="six.tf" horiz-adv-x="650" 
d="M348 505q105 0 175 -66.5t66 -183.5q-4 -121 -83.5 -192.5t-193.5 -71.5q-124 0 -203 84t-76 240q3 115 42 209.5t117 154t182 59.5t172.5 -57t83.5 -152h-164q-7 34 -35.5 50t-64.5 16q-53 0 -89.5 -33t-49.5 -91q47 34 121 34zM421 259q1 50 -27 79.5t-73 29.5
q-49 0 -85 -34t-37 -86q-2 -48 25 -79.5t75 -31.5q51 0 86 35t36 87z" />
    <glyph glyph-name="seven.tf" horiz-adv-x="650" 
d="M400 580h-316l20 148h521l-19 -137q-133 -139 -221.5 -293t-124.5 -298h-172q31 132 113 283t199 297z" />
    <glyph glyph-name="eight.tf" horiz-adv-x="650" 
d="M523 382q33 -19 54 -57.5t21 -92.5q0 -108 -83 -175t-212 -67q-120 0 -195.5 58t-75.5 159q0 69 35 119t88 68q-54 46 -54 128q0 98 77 157t194 59q104 0 175 -54.5t71 -147.5q0 -56 -28 -95.5t-67 -58.5zM352 450q40 0 68.5 24t28.5 61q0 33 -23 53.5t-62 20.5
q-43 0 -70 -25t-27 -60q0 -33 24 -53.5t61 -20.5zM311 133q49 0 80.5 27t31.5 69q0 39 -28 64.5t-74 25.5q-49 0 -81 -28.5t-32 -70.5q0 -39 28.5 -63t74.5 -24z" />
    <glyph glyph-name="nine.tf" horiz-adv-x="650" 
d="M348 738q40 0 76 -9t72.5 -32.5t63 -59t43 -93t16.5 -130.5q0 -116 -37.5 -210t-117 -153.5t-188.5 -59.5q-111 0 -179.5 58t-74.5 151h164q4 -34 31 -49t63 -15q49 0 87 28.5t50 92.5q-50 -33 -119 -33q-39 0 -78 12t-76 37.5t-59.5 73t-22.5 110.5q0 127 84 204t202 77
zM230 470q0 -49 31 -79t75 -30q48 0 82.5 33.5t34.5 87.5q0 50 -30.5 80t-75.5 30q-50 0 -83.5 -35.5t-33.5 -86.5z" />
    <glyph glyph-name="zero.dnom" horiz-adv-x="381" 
d="M170 -5q-75 0 -117 47t-42 124q0 92 50 154.5t133 62.5q70 0 113 -47.5t43 -128.5q0 -94 -50 -153t-130 -59zM171 72q38 0 63.5 35.5t25.5 96.5q0 48 -18.5 75t-52.5 27q-41 0 -65 -37t-24 -95q0 -102 71 -102z" />
    <glyph glyph-name="one.dnom" horiz-adv-x="280" 
d="M185 82h72l-12 -82h-232l12 82h73l29 207l-85 -38l12 86l85 41h88z" />
    <glyph glyph-name="two.dnom" horiz-adv-x="315" 
d="M209 132l-69 -50h133l-12 -82h-265l11 80l154 113q18 13 26 19.5t16 19t8 25.5q0 20 -12 33t-36 13q-50 0 -57 -58h-84q4 68 44.5 103t101.5 35q60 0 96.5 -31.5t36.5 -85.5q0 -29 -15 -56t-32 -42t-45 -36z" />
    <glyph glyph-name="three.dnom" horiz-adv-x="320" 
d="M238 190q46 -21 46 -78q0 -56 -43.5 -86.5t-105.5 -30.5q-65 0 -103.5 37.5t-30.5 97.5h85q-4 -29 11 -44.5t39 -15.5q22 0 37.5 12.5t15.5 34.5q0 17 -11.5 28.5t-34.5 11.5h-34l10 67h35q53 0 53 44q0 19 -12.5 30t-33.5 11q-26 0 -41 -16.5t-17 -43.5h-84
q5 61 45 97.5t106 36.5q59 0 94.5 -29t35.5 -77q0 -32 -17 -55t-45 -32z" />
    <glyph glyph-name="four.dnom" horiz-adv-x="340" 
d="M148 0l9 65h-170l11 77l200 236h93l-33 -236h48l-12 -77h-47l-9 -65h-90zM85 142h83l16 112z" />
    <glyph glyph-name="five.dnom" horiz-adv-x="320" 
d="M292 303h-160l-18 -51q26 11 58 11q51 0 84.5 -33t33.5 -90q0 -65 -44.5 -105t-112.5 -40q-58 0 -98.5 33.5t-37.5 97.5h83q-1 -25 14.5 -40.5t38.5 -15.5q26 0 44.5 18.5t18.5 48.5q0 26 -13.5 41t-37.5 15q-46 0 -61 -39h-81l72 224h227z" />
    <glyph glyph-name="six.dnom" horiz-adv-x="333" 
d="M173 262q51 0 88 -34t37 -91q0 -64 -42.5 -103t-102.5 -39q-68 0 -106 41.5t-38 126.5q0 92 46.5 156t127.5 64q54 0 88 -29t43 -79h-83q-8 36 -54 36q-29 0 -48.5 -19.5t-24.5 -51.5q27 22 69 22zM150 69q27 0 45 18.5t18 47.5q0 27 -15.5 42.5t-40.5 15.5t-44 -18
t-19 -47q0 -25 15 -42t41 -17z" />
    <glyph glyph-name="seven.dnom" horiz-adv-x="289" 
d="M182 303h-166l10 75h270l-10 -70q-138 -145 -180 -308h-88q34 142 164 303z" />
    <glyph glyph-name="eight.dnom" horiz-adv-x="338" 
d="M253 199q39 -24 39 -79q0 -56 -43 -90.5t-110 -34.5q-62 0 -101 30t-39 82q0 35 18.5 61.5t46.5 35.5q-29 25 -29 67q0 51 39.5 81.5t100.5 30.5q54 0 91 -28t37 -76q0 -57 -50 -80zM165 233q21 0 36.5 13t15.5 32q0 17 -12.5 28.5t-33.5 11.5q-23 0 -37.5 -13.5
t-14.5 -32.5q0 -18 13 -28.5t33 -10.5zM143 67q27 0 44 14.5t17 37.5q0 20 -15 33.5t-40 13.5q-26 0 -43.5 -15t-17.5 -37q0 -21 15.5 -34t39.5 -13z" />
    <glyph glyph-name="nine.dnom" horiz-adv-x="340" 
d="M166 383q57 0 100.5 -40.5t43.5 -126.5q0 -96 -46 -158.5t-129 -62.5q-53 0 -91.5 30.5t-38.5 77.5h83q3 -34 50 -34q28 0 48.5 18.5t24.5 52.5q-29 -24 -72 -24q-44 0 -81 30.5t-37 88.5q0 66 41 107t104 41zM162 186q25 0 43.5 17.5t18.5 46.5q0 25 -15 42t-40 17
q-27 0 -45 -18t-18 -47q0 -27 16 -42.5t40 -15.5z" />
    <glyph glyph-name="zero.numr" horiz-adv-x="381" 
d="M219 345q-75 0 -117 47t-42 124q0 92 50 154.5t133 62.5q70 0 113 -47.5t43 -128.5q0 -94 -50 -153t-130 -59zM220 422q38 0 63.5 35.5t25.5 96.5q0 48 -18.5 75t-52.5 27q-41 0 -65 -37t-24 -95q0 -102 71 -102z" />
    <glyph glyph-name="one.numr" horiz-adv-x="280" 
d="M236 432h70l-12 -82h-232l12 82h75l29 207l-85 -38l12 86l85 41h88z" />
    <glyph glyph-name="two.numr" horiz-adv-x="315" 
d="M258 482l-69 -50h133l-12 -82h-265l11 80l154 113q18 13 26 19.5t16 19t8 25.5q0 20 -12 33t-36 13q-50 0 -57 -58h-84q4 68 44.5 103t101.5 35q60 0 96.5 -31.5t36.5 -85.5q0 -29 -15 -56t-32 -42t-45 -36z" />
    <glyph glyph-name="three.numr" horiz-adv-x="319" 
d="M287 540q46 -21 46 -78q0 -56 -43.5 -86.5t-105.5 -30.5q-65 0 -103.5 37.5t-30.5 97.5h85q-4 -29 11 -44.5t39 -15.5q22 0 37.5 12.5t15.5 34.5q0 17 -11.5 28.5t-34.5 11.5h-34l10 67h35q53 0 53 44q0 19 -12.5 30t-33.5 11q-26 0 -41 -16.5t-17 -43.5h-84
q5 61 45 97.5t106 36.5q59 0 94.5 -29t35.5 -77q0 -32 -17 -55t-45 -32z" />
    <glyph glyph-name="four.numr" horiz-adv-x="342" 
d="M199 350l9 65h-172l11 77l196 236h99l-33 -236h48l-12 -77h-47l-9 -65h-90zM148 492h71l16 104z" />
    <glyph glyph-name="five.numr" horiz-adv-x="320" 
d="M341 653h-160l-18 -51q26 11 58 11q51 0 84.5 -33t33.5 -90q0 -65 -44.5 -105t-112.5 -40q-58 0 -98.5 33.5t-37.5 97.5h83q-1 -25 14.5 -40.5t38.5 -15.5q26 0 44.5 18.5t18.5 48.5q0 26 -13.5 41t-37.5 15q-46 0 -61 -39h-81l72 224h227z" />
    <glyph glyph-name="six.numr" horiz-adv-x="333" 
d="M222 612q51 0 88 -34t37 -91q0 -64 -42.5 -103t-102.5 -39q-68 0 -106 41.5t-38 126.5q0 92 46.5 156t127.5 64q54 0 88 -29t43 -79h-83q-8 36 -54 36q-29 0 -48.5 -19.5t-24.5 -51.5q27 22 69 22zM199 419q27 0 45 18.5t18 47.5q0 27 -16 42.5t-40 15.5q-25 0 -44 -18
t-19 -47q0 -25 15 -42t41 -17z" />
    <glyph glyph-name="seven.numr" horiz-adv-x="289" 
d="M231 653h-166l10 75h270l-10 -70q-138 -145 -180 -308h-88q34 142 164 303z" />
    <glyph glyph-name="eight.numr" horiz-adv-x="338" 
d="M302 549q39 -24 39 -79q0 -56 -43 -90.5t-110 -34.5q-62 0 -101 30t-39 82q0 35 18.5 61.5t46.5 35.5q-29 25 -29 67q0 51 39.5 81.5t100.5 30.5q54 0 91 -28t37 -76q0 -57 -50 -80zM214 583q21 0 36.5 13t15.5 32q0 17 -12.5 28.5t-33.5 11.5q-23 0 -37.5 -13.5
t-14.5 -32.5q0 -18 13 -28.5t33 -10.5zM192 417q27 0 44 14.5t17 37.5q0 20 -15 33.5t-40 13.5q-26 0 -43.5 -15t-17.5 -37q0 -21 15.5 -34t39.5 -13z" />
    <glyph glyph-name="nine.numr" horiz-adv-x="340" 
d="M216 733q57 0 100.5 -40.5t43.5 -126.5q0 -96 -46 -158.5t-129 -62.5q-53 0 -91.5 30.5t-38.5 77.5h83q3 -34 50 -34q28 0 48.5 18.5t24.5 52.5q-29 -24 -72 -24q-44 0 -81 30.5t-37 88.5q0 66 41 107t104 41zM212 536q25 0 43.5 17.5t18.5 46.5q0 25 -15 42t-40 17
q-27 0 -45 -18t-18 -47q0 -27 16 -42.5t40 -15.5z" />
    </font>
</defs>
</svg>
